<?xml version="1.0" encoding="UTF-8"?><svg id="a" xmlns="http://www.w3.org/2000/svg" xmlns:xlink="http://www.w3.org/1999/xlink" viewBox="0 0 541.56 122.38"><defs><clipPath id="b"><rect x="66.99" y="20.94" width="131.12" height="80.5" style="fill:none;"/></clipPath><clipPath id="c"><rect x="66.83" y="22.65" width="131.12" height="80.5" style="fill:none;"/></clipPath></defs><rect x="21.91" y=".38" width="363.98" height="121.63" rx="8.62" ry="8.62" style="fill:none; stroke:#040000; stroke-miterlimit:10; stroke-width:.75px;"/><g style="opacity:0;"><rect x="410.16" y="17.74" width="131.4" height="86.9" style="fill:#fff;"/></g><path d="M441.86,26.24h27.9c3.9,0,6.3,3.2,5.4,7.1l-13,55.7c-.9,3.9-4.8,7.1-8.7,7.1h-27.9c-3.9,0-6.3-3.2-5.4-7.1l13-55.7c.9-3.9,4.8-7.1,8.7-7.1" style="fill:#de2323;"/><path d="M467.46,26.24h32.1c3.9,0,2.1,3.2,1.2,7.1l-13,55.7c-.9,3.9-.6,7.1-4.5,7.1h-32.1c-3.9,0-6.3-3.2-5.4-7.1l13-55.7c.9-3.9,4.8-7.1,8.7-7.1" style="fill:#15315e;"/><path d="M498.26,26.24h27.9c3.9,0,6.3,3.2,5.4,7.1l-13,55.7c-.9,3.9-4.8,7.1-8.7,7.1h-27.9c-3.9,0-6.3-3.2-5.4-7.1l13-55.7c.9-3.9,4.8-7.1,8.7-7.1" style="fill:#016863;"/><path d="M493.56,78.64h2.6l.8-2.5h-2.6l-.8,2.5ZM495.66,71.74l-.9,3s1-.5,1.5-.7c.5-.1,1.4-.2,1.4-.2l.6-2.1h-2.6ZM496.96,67.44l-.9,2.9s1-.4,1.5-.6c.5-.1,1.4-.2,1.4-.2l.6-2.1s-2.6,0-2.6,0ZM502.76,67.44l-3.4,11.2h.9l-.7,2.3h-.9l-.2.7h-3.2l.2-.7h-6.6l.7-2.2h.7l3.4-11.4.7-2.3h3.3l-.3,1.2s.9-.6,1.7-.9c.8-.2,5.6-.3,5.6-.3l-.7,2.3h-1.1l-.1.1Z" style="fill:#fff; fill-rule:evenodd;"/><path d="M504.26,65.14h3.5v1.3c0,.2.2.3.6.3h.7l-.7,2.2h-1.9c-1.6.1-2.3-.6-2.2-1.4,0,0,0-2.4,0-2.4Z" style="fill:#fff;"/><path d="M504.76,75.34h-3.4l.6-1.9h3.8l.5-1.8h-3.8l.7-2.2h10.5l-.7,2.2h-3.5l-.6,1.8h3.5l-.6,1.9h-3.8l-.7.8h1.6l.4,2.4c0,.2,0,.4.1.5,0,0,.5.1.8.1h.5l-.7,2.4h-2c-.4,0-.6-.2-.9-.4-.2-.1-.5-.4-.6-.8l-.4-2.4-1.7,2.4c-.6.8-1.3,1.3-2.6,1.3h-2.4l.6-2.1h.9c.3,0,.5-.1.7-.2.2,0,.3-.2.5-.4l2.5-3.6h.2Z" style="fill:#fff;"/><path d="M467.96,70.14h8.9l-.7,2.1h-3.6l-.6,1.8h3.6l-.7,2.2h-3.6l-.9,2.9c-.1.3.9.4,1.2.4l1.8-.3-.7,2.4h-4.1c-.3,0-.6,0-.9-.1-.3,0-.5-.2-.7-.5-.1-.2-.4-.4-.2-.9l1.2-3.9h-2l.7-2.2h2l.5-1.8h-2l.6-2.1h.2Z" style="fill:#fff;"/><path d="M473.96,66.34h3.6l-.7,2.2h-5l-.5.5c-.2.2-.3.1-.6.3-.3.1-.9.4-1.6.4h-1.6l.6-2.1h.5c.4,0,.7,0,.8-.1.2,0,.3-.3.5-.7l.9-1.7h3.6l-.6,1.2h.1Z" style="fill:#fff;"/><path d="M480.96,69.94s1-.9,2.7-1.2h2.8l.4-1.2h-5.1l-.7,2.5-.1-.1ZM485.76,70.84h-5.1l-.3,1h5.1l.3-1ZM479.16,65.14h3.1l-.5,1.6s1-.8,1.7-1.1,2.2-.5,2.2-.5h5l-1.7,5.7c-.3,1-.6,1.6-.8,1.9-.2.3-.4.5-.9.8-.4.2-.8.4-1.2.4h-6.3l-1.4,4.5c-.1.4-.2.7-.1.8,0,.1.2.2.5.2l2.1-.2-.7,2.5h-4.1c-.4,0-.8,0-1-.2s-.6-.5-.6-.7.1-.7.3-1.2l4.3-14.4.1-.1Z" style="fill:#fff; fill-rule:evenodd;"/><path d="M488.16,74.34l-.3,1.4c-.1.4-.2.8-.6,1-.3.3-.7.6-1.7.6h-1.7v1.6q0,.4.2.5s.1.1.2.1h.5l1.6-.1-.7,2.3h-1.9c-1.3,0-2.3,0-2.6-.3-.3-.2-.4-.5-.3-.9v-6h3.1v1.2h1.2s.2-.2.2-.3l.3-1h2.4l.1-.1Z" style="fill:#fff;"/><path d="M445.16,44.04c-.1.5-2,9.4-2,9.4-.4,1.8-.7,3.1-1.7,3.9-.6.5-1.3.7-2.1.7-1.3,0-2-.6-2.1-1.8v-.4l.4-2.4s2-8.1,2.4-9.2v-.1h-4.7l-.1.6-2.1,9.2-.2.8-.3,2.5c0,.8.1,1.4.4,1.9.9,1.7,3.6,1.9,5.2,1.9s3.8-.4,5-1.2c2.2-1.3,2.7-3.3,3.2-5l.2-.9s2.1-8.5,2.5-9.5v-.1h-4" style="fill:#fff;"/><path d="M456.76,60.84h-3.5c.1-.7.3-1.4.4-2l.2-.9c.3-1.3.6-2.9.6-3.3,0-.3.1-1-.7-1s-.7.2-1.1.3c-.2.7-.6,2.7-.8,3.6-.4,1.9-.4,2.1-.6,3.1h-.1c-1.4.1-1.9.1-3.6.2h0c.3-1.3.6-2.4.8-3.5.7-3.1.9-4.2,1.1-5.8h.1c1.6-.3,2-.4,3.8-.7v.2c.1,0-.1,1-.1,1,.3-.2.6-.4.9-.5.8-.4,1.7-.5,2.3-.5.8,0,1.6.2,2,1.1.3.8.1,1.8-.3,3.7l-.2,1c-.5,2.1-.5,2.5-.8,4h-.4Z" style="fill:#fff;"/><path d="M462.46,60.84h-3.7v-.1c.2-.8.3-1.1.4-1.4.1-.3.2-.6.4-1.4.2-1.1.4-1.8.5-2.5.1-.6.2-1.2.3-1.8h0v-.1c.8-.1,1.4-.2,1.9-.3.6,0,1.1-.2,2-.4h0v.2c-.2.7-.3,1.3-.5,2s-.3,1.3-.5,2c-.3,1.4-.4,1.9-.5,2.3,0,.4,0,.6-.2,1.3h0v.1l-.1.1Z" style="fill:#fff;"/><path d="M471.36,55.84c0,.4-.4,1.7-.8,2.3-.3.4-.7.7-1.1.7s-.8,0-.8-1c0-.5,0-1,.2-1.6.4-1.6.8-3,1.9-3s.9,1,.6,2.7M475.06,56.04c.5-2.2.1-3.2-.4-3.8-.7-.9-2-1.2-3.4-1.2s-2.7,0-4.2,1.5c-1.1,1-1.6,2.3-1.9,3.6-.3,1.3-.6,3.7,1.5,4.6.7.3,1.6.4,2.3.4,1.6,0,3.2-.4,4.5-1.7,1-1.1,1.4-2.6,1.5-3.3" style="fill:#fff;"/><path d="M509.36,60.94h-3.8c.4-1.7.9-3.3,1.2-5,.5-2.1.6-3,.8-4.2h.1c1.7-.3,2.1-.4,3.9-.7h0c-.3,1.5-.6,2.8-.9,4.1-.6,2.8-.9,4.2-1.1,5.7h-.2v.1Z" style="fill:#fff;"/><path d="M506.76,56.04c0,.3-.4,1.7-.8,2.3-.3.4-1,.7-1.4.7s-.8,0-.8-1c0-.5.1-1,.2-1.6.4-1.6.8-3,1.9-3s1.2,1,.9,2.6M510.16,56.24c.5-2.1-1.5-.2-1.8-.9-.5-1.1-.2-3.3-2.1-4.1-.7-.3-2.5,0-4,1.5-1.1,1-1.6,2.3-1.9,3.6s-.6,3.7,1.5,4.5c.7.3,1.3.4,1.9.4,2.2-.1,3.9-3.4,5.1-4.7,1-1,1.1.4,1.3-.2" style="fill:#fff;"/><path d="M484.66,60.84h-3.5c.1-.7.3-1.4.4-2l.2-.9c.3-1.3.6-2.9.6-3.3,0-.3.1-1-.7-1s-.7.2-1.1.3c-.2.7-.6,2.7-.8,3.6-.4,1.9-.4,2.1-.6,3.1h-.1c-1.4.1-1.9.1-3.6.2h0c.3-1.3.5-2.4.8-3.5.7-3.1.9-4.2,1.1-5.8h.1c1.6-.3,2-.4,3.8-.7v.2c.1,0-.1,1-.1,1,.3-.2.6-.4.9-.5.8-.4,1.8-.5,2.2-.5.8,0,1.6.2,2,1.1.3.8.1,1.8-.3,3.7l-.2,1c-.5,2.1-.5,2.5-.8,4h-.3Z" style="fill:#fff;"/><path d="M496.76,44.04h-5.9c0,.2-.1.6-.1.6l-1.1,5s-2.6,10.7-2.7,11.2h4.2c.1-.5.7-3.5.7-3.5,0,0,.5-2.2.6-2.3,0,0,.2-.2.3-.3h.2c2.3,0,4.9,0,6.9-1.5,1.4-1,2.3-2.5,2.7-4.3.1-.4.2-1,.2-1.5s-.1-1.4-.6-1.9c-1-1.4-3.1-1.5-5.4-1.5M498.26,49.24c-.2,1.1-1,2.1-1.9,2.5-.8.4-1.7.4-2.7.4h-.6v-.2l1.2-5v-.5h.5l2.4.3c.9.4,1.3,1.3,1.1,2.5" style="fill:#fff;"/><path d="M523.16,51.04h-.1c-1.7.2-2,.3-3.6.5h-.1v.2h0c-1.2,2.7-1.1,2.1-2.1,4.3v-.3l-.2-4.7h-.2c-1.8.2-1.9.3-3.5.5h-.1v.3h0c.2,1.1.2.9.4,2.5,0,.8.2,1.7.3,2.5.2,1.4.3,2,.5,4.1-1.1,1.9-1.4,2.6-2.5,4.2h3.2l.3-.3c.9-2,7.9-13.9,7.9-13.9" style="fill:#fff;"/><path d="M463.96,52.24c.9-.6,1-1.5.3-2-.8-.5-2.2-.3-3.1.3-.9.6-1,1.5-.3,2,.8.5,2.2.3,3.1-.3" style="fill:#fff;"/><path d="M515.16,65.14l-1.4,2.3c-.4.8-1.2,1.4-2.5,1.4h-2.2l.6-2.1h.9c.1,0,.2-.1.3-.2l.8-1.3h3.4l.1-.1Z" style="fill:#fff;"/><g style="opacity:0;"><rect x="231.55" y="19.52" width="126" height="83.34" style="fill:#fff;"/></g><rect x="277.93" y="34.04" width="33.24" height="54.29" style="fill:#eb5f1b;"/><path d="M281.36,61.18c0-10.59,4.85-20.6,13.19-27.14-14.99-11.78-36.69-9.18-48.48,5.81-11.78,14.99-9.18,36.69,5.81,48.48,12.52,9.84,30.14,9.84,42.66,0-8.33-6.54-13.2-16.55-13.19-27.15Z" style="fill:#dc171f;"/><path d="M347.11,82.59v-1.11h.48v-.23h-1.14v.23h.45v1.11h.21ZM349.32,82.59v-1.34h-.35l-.4.96-.4-.96h-.35v1.34h.25v-1.02l.37.87h.26l.37-.87v1.02h.24Z" style="fill:#ee9a23;"/><path d="M350.4,61.19c0,19.07-15.46,34.52-34.52,34.52-7.74,0-15.25-2.6-21.34-7.38,14.99-11.78,17.59-33.48,5.81-48.48-1.7-2.16-3.65-4.11-5.81-5.81,14.99-11.78,36.69-9.19,48.48,5.8,4.78,6.08,7.38,13.6,7.38,21.34h0Z" style="fill:#ee9a23;"/><g style="clip-path:url(#b);"><g style="clip-path:url(#c);"><path d="M117.54,43.67l-16.16,38.56h-10.54l-7.95-30.77c-.48-1.9-.9-2.59-2.37-3.39-2.4-1.3-6.36-2.52-9.84-3.28l.24-1.12h16.97c2.16,0,4.11,1.44,4.6,3.93l4.2,22.31,10.38-26.24h10.48ZM158.85,69.64c.04-10.18-14.07-10.74-13.97-15.28.03-1.38,1.35-2.85,4.23-3.23,1.43-.19,5.37-.33,9.83,1.73l1.75-8.18c-2.4-.87-5.49-1.71-9.33-1.71-9.86,0-16.8,5.24-16.85,12.74-.06,5.55,4.95,8.65,8.73,10.49,3.89,1.89,5.19,3.1,5.18,4.79-.03,2.59-3.1,3.73-5.97,3.77-5.01.08-7.92-1.36-10.24-2.43l-1.81,8.45c2.33,1.07,6.63,2,11.09,2.05,10.48,0,17.33-5.18,17.36-13.19M184.88,82.23h9.22l-8.05-38.56h-8.51c-1.91,0-3.53,1.11-4.24,2.83l-14.97,35.73h10.47l2.08-5.76h12.8l1.2,5.76ZM173.75,68.56l5.25-14.48,3.02,14.48h-8.27ZM131.79,43.67l-8.25,38.56h-9.97l8.25-38.56h9.97Z" style="fill:#1f449a;"/></g></g><rect y="34.3" width="43.83" height="53.77" style="fill:#fff;"/><path d="M2.49,56.33c.5.68.91,1.44,1.17,2.25.28.82.43,1.68.43,2.6s-.15,1.79-.43,2.6c-.26.81-.68,1.57-1.17,2.26-.69.92-.5,2.23.43,2.92.92.68,2.23.49,2.92-.43.76-1.03,1.36-2.18,1.78-3.41.42-1.23.65-2.56.65-3.93s-.23-2.7-.64-3.93c-.42-1.24-1.03-2.38-1.78-3.41-.68-.92-1.99-1.12-2.91-.43-.93.68-1.13,1.99-.43,2.92M9.65,52.44c1.57,2.55,2.47,5.53,2.47,8.75s-.9,6.2-2.47,8.76c-.6.98-.3,2.27.68,2.87.98.6,2.27.29,2.87-.68,1.96-3.18,3.09-6.94,3.09-10.94s-1.13-7.76-3.09-10.94c-.6-.98-1.89-1.29-2.87-.68s-1.28,1.89-.68,2.87M17.23,48.47c2.19,3.74,3.43,8.08,3.43,12.72s-1.24,8.98-3.43,12.72c-.59,1-.24,2.28.75,2.86,1,.58,2.28.25,2.86-.74,2.54-4.36,4-9.43,4-14.83s-1.46-10.48-4-14.83c-.58-.99-1.86-1.33-2.86-.75-.99.58-1.33,1.86-.75,2.86M24.79,44.48c2.8,4.93,4.41,10.62,4.41,16.7s-1.6,11.77-4.41,16.7c-.56,1-.22,2.28.78,2.85,1.01.57,2.28.22,2.85-.78,3.15-5.53,4.95-11.94,4.95-18.76s-1.8-13.23-4.95-18.76c-.57-1-1.84-1.35-2.85-.78-1,.57-1.35,1.85-.78,2.85" style="fill:#101820;"/></svg>