<?xml version="1.0" encoding="UTF-8"?><svg id="a" xmlns="http://www.w3.org/2000/svg" xmlns:xlink="http://www.w3.org/1999/xlink" viewBox="0 0 1126.11 122.38"><defs><clipPath id="c"><rect x="417.99" y="20.64" width="105.77" height="80.89" style="fill:none;"/></clipPath><clipPath id="d"><rect x="417.99" y="20.64" width="105.77" height="80.89" style="fill:none;"/></clipPath><clipPath id="e"><path d="M493.26,62.43v5.84h6.41c.2,0,.58-.03.76-.07,1.23-.27,2.25-1.36,2.25-2.85s-1.02-2.58-2.25-2.85c-.18-.04-.56-.07-.76-.07h-6.41Z" style="fill:none;"/></clipPath><linearGradient id="f" x1="-22.14" y1="-353.27" x2="-21.83" y2="-353.27" gradientTransform="translate(2427.79 -30891.08) scale(87.63 -87.63)" gradientUnits="userSpaceOnUse"><stop offset="0" stop-color="#007e44"/><stop offset=".26" stop-color="#1b8e3e"/><stop offset=".75" stop-color="#4aaa33"/><stop offset="1" stop-color="#5db530"/></linearGradient><clipPath id="g"><path d="M498.92,27.88c-6.11,0-11.07,4.96-11.07,11.07v11.5h15.66c.36,0,.81.03,1.08.04,3.55.18,6.16,2,6.16,5.16,0,2.49-1.79,4.61-5.04,5.09v.12c3.59.25,6.34,2.23,6.34,5.34,0,3.37-3.02,5.54-7.04,5.54h-17.17v22.57h16.24c6.11,0,11.07-4.96,11.07-11.07V27.88h-16.24Z" style="fill:none;"/></clipPath><linearGradient id="h" x1="-22.14" y1="-353.38" x2="-21.83" y2="-353.38" gradientTransform="translate(2427.85 -30905.5) scale(87.63 -87.63)" xlink:href="#f"/><clipPath id="i"><path d="M493.26,53.75v5.39h5.81c.21,0,.52-.03.63-.05,1.2-.2,2.23-1.18,2.23-2.65s-1.02-2.44-2.23-2.65c-.11-.02-.42-.05-.63-.05h-5.81Z" style="fill:none;"/></clipPath><linearGradient id="j" x1="-22.14" y1="-353.49" x2="-21.83" y2="-353.49" gradientTransform="translate(2427.66 -30917.88) scale(87.62 -87.62)" xlink:href="#f"/><clipPath id="k"><path d="M437.67,27.88c-6.11,0-11.07,4.96-11.07,11.07v27.34c3.1,1.5,6.31,2.48,9.58,2.48,3.83,0,5.93-2.34,5.93-5.48v-12.84h9.52v12.84c0,5.02-3.08,9.05-13.67,9.05-6.37,0-11.36-1.37-11.36-1.37v23.33h16.24c6.11,0,11.07-4.96,11.07-11.07V27.88h-16.24Z" style="fill:none;"/></clipPath><linearGradient id="l" x1="-20.67" y1="-353.28" x2="-20.36" y2="-353.28" gradientTransform="translate(2266.09 -31375.26) scale(88.98 -88.98)" gradientUnits="userSpaceOnUse"><stop offset="0" stop-color="#232b74"/><stop offset=".05" stop-color="#202f78"/><stop offset=".68" stop-color="#095ea7"/><stop offset="1" stop-color="#0071ba"/></linearGradient><clipPath id="m"><path d="M468.3,27.88c-6.11,0-11.07,4.96-11.07,11.07v14.49c2.8-2.41,7.66-3.91,15.54-3.55,4.22.19,8.69,1.32,8.69,1.32v4.69c-2.24-1.13-4.92-2.19-8.38-2.45-5.98-.45-9.58,2.47-9.58,7.64s3.6,8.09,9.58,7.64c3.46-.26,6.18-1.34,8.38-2.44v4.68s-4.47,1.13-8.69,1.32c-7.88.35-12.73-1.15-15.54-3.55v25.56h16.24c6.11,0,11.07-4.96,11.07-11.07V27.88h-16.24Z" style="fill:none;"/></clipPath><linearGradient id="n" x1="-21.31" y1="-353.46" x2="-21" y2="-353.46" gradientTransform="translate(2298.53 -30485.68) scale(86.42 -86.42)" gradientUnits="userSpaceOnUse"><stop offset="0" stop-color="#7e3033"/><stop offset=".35" stop-color="#a61f35"/><stop offset=".78" stop-color="#d30d37"/><stop offset="1" stop-color="#e50639"/></linearGradient><clipPath id="q"><rect x="66.99" y="20.84" width="131.12" height="80.5" style="fill:none;"/></clipPath><clipPath id="r"><rect x="66.83" y="22.54" width="131.12" height="80.5" style="fill:none;"/></clipPath></defs><rect x="21.91" y=".38" width="1103.82" height="121.63" rx="8.62" ry="8.62" style="fill:none; stroke:#040000; stroke-miterlimit:10; stroke-width:.75px;"/><g id="b"><g style="clip-path:url(#c);"><g style="clip-path:url(#d);"><path d="M520.7,83.97c0,8.56-6.94,15.5-15.5,15.5h-84.13v-61.26c0-8.56,6.94-15.5,15.5-15.5h84.13v61.26Z" style="fill:#fff;"/></g><g style="clip-path:url(#e);"><rect x="493.26" y="62.43" width="9.43" height="5.84" style="fill:url(#f);"/></g><g style="clip-path:url(#g);"><rect x="487.85" y="27.88" width="27.31" height="66.42" style="fill:url(#h);"/></g><g style="clip-path:url(#i);"><rect x="493.26" y="53.75" width="8.67" height="5.39" style="fill:url(#j);"/></g><g style="clip-path:url(#k);"><rect x="426.6" y="27.88" width="27.31" height="66.42" style="fill:url(#l);"/></g><g style="clip-path:url(#m);"><rect x="457.23" y="27.88" width="27.31" height="66.42" style="fill:url(#n);"/></g></g></g><g id="o"><g style="opacity:0;"><rect x="245.05" y="19.42" width="126" height="83.34" style="fill:#fff;"/></g><rect x="291.43" y="33.94" width="33.24" height="54.29" style="fill:#eb5f1b;"/><path d="M294.86,61.08c0-10.59,4.85-20.6,13.19-27.14-14.99-11.78-36.69-9.18-48.48,5.81-11.78,14.99-9.18,36.69,5.81,48.48,12.52,9.84,30.14,9.84,42.66,0-8.33-6.54-13.2-16.55-13.19-27.15Z" style="fill:#dc171f;"/><path d="M360.6,82.48v-1.11h.48v-.23h-1.14v.23h.45v1.11h.21ZM362.82,82.48v-1.34h-.35l-.4.96-.4-.96h-.35v1.34h.25v-1.02l.37.87h.26l.37-.87v1.02h.24Z" style="fill:#ee9a23;"/><path d="M363.9,61.09c0,19.07-15.46,34.52-34.52,34.52-7.74,0-15.25-2.6-21.34-7.38,14.99-11.78,17.59-33.48,5.81-48.48-1.7-2.16-3.65-4.11-5.81-5.81,14.99-11.78,36.69-9.19,48.48,5.8,4.78,6.08,7.38,13.6,7.38,21.34h0Z" style="fill:#ee9a23;"/></g><g id="p"><g style="clip-path:url(#q);"><g style="clip-path:url(#r);"><path d="M117.54,43.57l-16.16,38.56h-10.54l-7.95-30.77c-.48-1.9-.9-2.59-2.37-3.39-2.4-1.3-6.36-2.52-9.84-3.28l.24-1.12h16.97c2.16,0,4.11,1.44,4.6,3.93l4.2,22.31,10.38-26.24h10.48ZM158.85,69.53c.04-10.18-14.07-10.74-13.97-15.28.03-1.38,1.35-2.85,4.23-3.23,1.43-.19,5.37-.33,9.83,1.73l1.75-8.18c-2.4-.87-5.49-1.71-9.33-1.71-9.86,0-16.8,5.24-16.85,12.74-.06,5.55,4.95,8.65,8.73,10.49,3.89,1.89,5.19,3.1,5.18,4.79-.03,2.59-3.1,3.73-5.97,3.77-5.01.08-7.92-1.36-10.24-2.43l-1.81,8.45c2.33,1.07,6.63,2,11.09,2.05,10.48,0,17.33-5.18,17.36-13.19M184.88,82.12h9.22l-8.05-38.56h-8.51c-1.91,0-3.53,1.11-4.24,2.83l-14.97,35.73h10.47l2.08-5.76h12.8l1.2,5.76ZM173.75,68.46l5.25-14.48,3.02,14.48h-8.27ZM131.79,43.57l-8.25,38.56h-9.97l8.25-38.56h9.97Z" style="fill:#1f449a;"/></g></g></g><g id="s"><rect y="34.3" width="43.83" height="53.77" style="fill:#fff;"/><path d="M2.49,56.33c.5.68.91,1.44,1.17,2.25.28.82.43,1.68.43,2.6s-.15,1.79-.43,2.6c-.26.81-.68,1.57-1.17,2.26-.69.92-.5,2.23.43,2.92.92.68,2.23.49,2.92-.43.76-1.03,1.36-2.18,1.78-3.41.42-1.23.65-2.56.65-3.93s-.23-2.7-.64-3.93c-.42-1.24-1.03-2.38-1.78-3.41-.68-.92-1.99-1.12-2.91-.43-.93.68-1.13,1.99-.43,2.92M9.65,52.44c1.57,2.55,2.47,5.53,2.47,8.75s-.9,6.2-2.47,8.76c-.6.98-.3,2.27.68,2.87.98.6,2.27.29,2.87-.68,1.96-3.18,3.09-6.94,3.09-10.94s-1.13-7.76-3.09-10.94c-.6-.98-1.89-1.29-2.87-.68s-1.28,1.89-.68,2.87M17.23,48.47c2.19,3.74,3.43,8.08,3.43,12.72s-1.24,8.98-3.43,12.72c-.59,1-.24,2.28.75,2.86,1,.58,2.28.25,2.86-.74,2.54-4.36,4-9.43,4-14.83s-1.46-10.48-4-14.83c-.58-.99-1.86-1.33-2.86-.75-.99.58-1.33,1.86-.75,2.86M24.79,44.48c2.8,4.93,4.41,10.62,4.41,16.7s-1.6,11.77-4.41,16.7c-.56,1-.22,2.28.78,2.85,1.01.57,2.28.22,2.85-.78,3.15-5.53,4.95-11.94,4.95-18.76s-1.8-13.23-4.95-18.76c-.57-1-1.84-1.35-2.85-.78-1,.57-1.35,1.85-.78,2.85" style="fill:#101820;"/></g><g id="t"><path d="M635.97,69.7v-5.75h3.79V26.56h-69.05v26.54l2.78-3.02-.72,10h-2.07v35.53h69.05v-20.21s-3.69.08-3.79.13c0,0,0-5.83,0-5.83Z" style="fill:#0c6bb1;"/><path d="M639.79,75.41v-11.46h-42.35l-1.11,1.56-1.11-1.56h-12.28v12.15h12.25l1.09-1.59,1.14,1.59h7.69v-2.68h-.24c1.01,0,1.94-.19,2.76-.5v3.18h5.54v-1.48l1.11,1.48h22.88c1.01,0,1.88-.24,2.63-.69M631.28,60.08h5.25v-12.15h-5.67v1.7l-1.09-1.7h-4.96v2.2l-.95-2.2h-7.98c-.34,0-.69,0-1.03.08-.34.05-.66.11-.98.21-.24.08-.48.16-.69.27-.24.11-.48.24-.69.37v-.9h-26.01l-.69,2.04-.69-2.04h-6.21v2.2l-.95-2.2h-4.93l-2.23,5.2v6.92h3.47l.66-1.75h1.19l.69,1.75h27.15v-1.48l1.11,1.48h7.48v-.82c.21.13.42.24.64.32s.42.16.66.24c.32.08.61.16.93.19.37.05.72.08,1.06.08h4.43l.66-1.75h1.19l.66,1.75h7.61v-1.51l.98,1.51h-.08Z" style="fill:#fff;"/><path d="M591.45,67.61v-1.64h-6.42v8.14h6.42v-1.64h-4.56v-1.62h4.45v-1.62h-4.45v-1.59h4.56v-.03ZM598.34,74.08h2.33l-3.26-4.11,3.24-4.03h-2.25l-2.04,2.65-2.04-2.65h-2.33l3.26,4.06-3.24,4.08h2.25l2.04-2.68,2.07,2.68h-.03ZM601.21,65.94v8.14h1.86v-2.73h2.47c1.78,0,2.86-1.14,2.86-2.7s-1.06-2.7-2.78-2.7c0,0-4.4,0-4.4,0ZM606.51,68.67c0,.58-.37,1.06-1.09,1.06h-2.39v-2.12h2.39c.72,0,1.09.48,1.09,1.06M611.47,71.11h.95l2.49,2.97h2.33l-2.7-3.02c1.38-.27,2.2-1.22,2.2-2.49,0-1.54-1.06-2.6-2.78-2.6h-4.35v8.14h1.86v-3ZM613.78,67.61c.72,0,1.09.42,1.09.95s-.37.95-1.09.95h-2.33v-1.94h2.33v.03ZM624.3,67.61v-1.64h-6.42v8.14h6.42v-1.64h-4.56v-1.62h4.45v-1.62h-4.45v-1.59h4.56v-.03ZM629.66,72.44h-4.14v1.64h4.03c1.75,0,2.81-1.06,2.81-2.55s-.95-2.33-2.52-2.33h-1.86c-.48,0-.85-.32-.85-.8s.34-.8.85-.8h3.5l.74-1.64h-4.11c-1.75,0-2.81,1.06-2.81,2.52s.98,2.36,2.52,2.36h1.86c.48,0,.85.32.85.82s-.34.8-.85.8M637.22,72.44h-4.14v1.64h4.06c1.75,0,2.81-1.06,2.81-2.55s-.95-2.33-2.52-2.33h-1.86c-.48,0-.85-.32-.85-.8s.34-.8.85-.8h3.5l.74-1.64h-4.11c-1.75,0-2.81,1.06-2.81,2.52s.98,2.36,2.52,2.36h1.86c.48,0,.85.32.85.82s-.34.8-.85.8" style="fill:#0c6bb1;"/><path d="M578.14,58.09h2.07l-3.47-8.14h-2.47l-3.5,8.14h2.02l.69-1.75h3.98s.69,1.75.69,1.75ZM574.82,52.89l.61-1.7.64,1.7.74,1.88h-2.73s.74-1.88.74-1.88ZM584.92,58.09h1.62l2.36-6.58v6.58h1.83v-8.14h-3.08l-1.91,5.49-1.91-5.49h-3.1v8.14h1.83v-6.58l2.33,6.58h.03ZM598.82,51.59v-1.64h-6.42v8.14h6.42v-1.64h-4.56v-1.62h4.45v-1.62h-4.45v-1.59h4.56v-.03ZM602.16,55.12h.95l2.49,2.97h2.33l-2.7-3.02c1.38-.27,2.2-1.25,2.2-2.49,0-1.54-1.06-2.6-2.78-2.6h-4.35v8.14h1.86v-3ZM604.49,51.59c.72,0,1.09.42,1.09.95s-.37.95-1.09.95h-2.33v-1.94h2.33v.03ZM608.6,58.09h1.86v-8.14h-1.86v8.14ZM615.53,58.09h.08l.77-1.67h-.53c-1.38,0-2.17-.85-2.17-2.33v-.13c0-1.33.74-2.31,2.15-2.31h2.07v-1.7h-2.2c-2.47,0-3.85,1.7-3.85,3.98v.16c0,2.36,1.38,3.98,3.74,3.98M624.12,58.09h2.07l-3.47-8.14h-2.47l-3.5,8.14h2.02l.69-1.75h3.98s.69,1.75.69,1.75ZM620.8,52.89l.61-1.7.64,1.7.74,1.88h-2.73l.74-1.88ZM628.94,53.1l3.18,4.99h2.31v-8.14h-1.86v5.38l-.5-.8-2.94-4.59h-2.41v8.14h1.86v-5.54l.37.58v-.03Z" style="fill:#0c6bb1;"/></g><path d="M780.57,88.91c0,3.41-2.83,6.17-6.31,6.17h-80.51c-3.49,0-6.31-2.76-6.31-6.17v-55.64c0-3.41,2.83-6.17,6.31-6.17h80.51c3.49,0,6.31,2.76,6.31,6.17v55.64Z" style="fill:#fff;"/><path d="M687.96,33.27v55.64c0,3.1,2.58,5.63,5.78,5.64h80.51c3.2,0,5.77-2.53,5.78-5.64v-55.64c0-3.1-2.58-5.64-5.78-5.64h-80.51c-3.2,0-5.77,2.53-5.78,5.64M693.74,95.61c-3.77,0-6.85-2.99-6.85-6.71v-55.64c0-3.71,3.08-6.7,6.85-6.71h80.51c3.77,0,6.85,2.99,6.85,6.71v55.64c0,3.71-3.08,6.7-6.85,6.71h-80.51Z" style="fill:#0065ac;"/><path d="M697.65,76.18c0,1.31.93,1.46,1.76,1.46,3.66,0,4.87-2.76,4.87-5.29,0-3.17-2.03-5.46-5.31-5.46-.7,0-1.02.05-1.32.07v9.22ZM695.99,68.23c0-1.52-.8-1.42-1.56-1.44v-.44c.66.03,1.34.03,2,.03.71,0,1.68-.03,2.93-.03,4.39,0,6.78,2.93,6.78,5.93,0,1.68-.98,5.9-6.99,5.9-.86,0-1.66-.03-2.46-.03s-1.51.02-2.27.03v-.44c1.02-.1,1.51-.14,1.56-1.29v-8.22Z" style="fill:#231815;"/><path d="M708.55,67.83c-.44,0-.83-.41-.83-.85s.41-.82.83-.82.83.36.83.82-.37.85-.83.85M706.74,77.74h.32c.47,0,.81,0,.81-.56v-4.59c0-.75-.25-.85-.88-1.19v-.27c.8-.24,1.75-.56,1.81-.61.12-.07.22-.09.31-.09s.12.1.12.24v6.51c0,.56.37.56.85.56h.29v.44c-.58,0-1.17-.03-1.78-.03s-1.22.02-1.85.03v-.44Z" style="fill:#231815;"/><path d="M711.97,72.69c0-.63-.19-.8-.98-1.12v-.32c.73-.24,1.42-.46,2.24-.82.05,0,.1.03.1.17v1.1c.97-.69,1.8-1.27,2.94-1.27,1.44,0,1.95,1.05,1.95,2.37v4.37c0,.56.37.56.85.56h.31v.44c-.6,0-1.19-.03-1.8-.03s-1.22.02-1.83.03v-.44h.31c.47,0,.81,0,.81-.56v-4.39c0-.97-.59-1.44-1.56-1.44-.54,0-1.41.44-1.97.81v5.02c0,.56.37.56.85.56h.3v.44c-.59,0-1.19-.03-1.8-.03s-1.22.02-1.83.03v-.44h.31c.47,0,.81,0,.81-.56v-4.49Z" style="fill:#231815;"/><path d="M723.66,72.96c.42,0,.47-.22.47-.42,0-.86-.53-1.56-1.48-1.56-1.03,0-1.75.76-1.95,1.98h2.95ZM720.66,73.51c-.03.15-.03.41,0,.98.1,1.61,1.14,2.93,2.49,2.93.93,0,1.66-.51,2.29-1.13l.24.24c-.78,1.03-1.75,1.92-3.14,1.92-2.7,0-3.24-2.61-3.24-3.7,0-3.32,2.24-4.31,3.42-4.31,1.37,0,2.85.86,2.87,2.66,0,.1,0,.2-.02.31l-.15.1h-4.76Z" style="fill:#231815;"/><path d="M725.98,77.74h.46c.47,0,.81,0,.81-.56v-4.76c0-.52-.63-.63-.88-.76v-.25c1.24-.53,1.92-.97,2.07-.97.1,0,.15.05.15.22v1.53h.04c.42-.66,1.14-1.75,2.17-1.75.42,0,.97.29.97.9,0,.46-.32.87-.79.87-.53,0-.53-.41-1.12-.41-.29,0-1.24.39-1.24,1.41v3.98c0,.56.34.56.81.56h.95v.44c-.93-.02-1.64-.03-2.37-.03s-1.41.02-2.02.03v-.44Z" style="fill:#231815;"/><path d="M732.51,75.83c.22,1.12.9,2.07,2.14,2.07,1,0,1.37-.61,1.37-1.2,0-2-3.69-1.36-3.69-4.09,0-.95.76-2.17,2.63-2.17.54,0,1.27.15,1.93.49l.12,1.73h-.39c-.17-1.07-.76-1.68-1.85-1.68-.68,0-1.32.39-1.32,1.12,0,1.98,3.93,1.37,3.93,4.04,0,1.12-.9,2.31-2.92,2.31-.68,0-1.48-.24-2.07-.58l-.19-1.95.31-.09Z" style="fill:#231815;"/><path d="M752.68,69.42h-.42c-.32-1.98-1.73-2.78-3.63-2.78s-4.78,1.3-4.78,5.37c0,3.43,2.44,5.88,5.05,5.88,1.68,0,3.07-1.15,3.41-2.93l.39.1-.39,2.48c-.71.44-2.63.9-3.75.9-3.97,0-6.47-2.56-6.47-6.38,0-3.48,3.1-5.97,6.43-5.97,1.37,0,2.69.44,4,.9l.17,2.42Z" style="fill:#231815;"/><path d="M753.29,77.74h.32c.48,0,.81,0,.81-.56v-9.44c0-1.1-.25-1.14-.9-1.32v-.27c.68-.22,1.39-.52,1.75-.73.18-.1.32-.19.37-.19.1,0,.14.1.14.24v11.71c0,.56.37.56.85.56h.29v.44c-.57,0-1.17-.03-1.78-.03s-1.22.02-1.85.03v-.44Z" style="fill:#231815;"/><path d="M764.18,77.25c0,.31.19.32.47.32.2,0,.46-.02.68-.02v.36c-.73.07-2.12.42-2.44.53l-.08-.05v-1.37c-1.02.83-1.8,1.43-3,1.43-.91,0-1.86-.59-1.86-2.02v-4.34c0-.44-.07-.87-1.02-.95v-.32c.61-.02,1.96-.12,2.19-.12.19,0,.19.12.19.49v4.37c0,.51,0,1.97,1.47,1.97.58,0,1.34-.44,2.05-1.03v-4.56c0-.34-.81-.53-1.42-.69v-.3c1.52-.1,2.47-.24,2.64-.24.14,0,.14.12.14.31v6.25Z" style="fill:#231815;"/><path d="M767.55,76.27c0,.64.61,1.73,1.75,1.73,1.81,0,2.58-1.78,2.58-3.29,0-1.83-1.39-3.36-2.71-3.36-.63,0-1.15.41-1.61.8v4.12ZM767.55,71.66c.68-.57,1.59-1.22,2.53-1.22,1.97,0,3.15,1.71,3.15,3.56,0,2.22-1.63,4.44-4.05,4.44-1.25,0-1.91-.41-2.36-.59l-.51.39-.36-.19c.15-1,.24-1.98.24-3.02v-7.29c0-1.1-.26-1.14-.9-1.32v-.27c.68-.22,1.39-.52,1.75-.73.19-.1.32-.19.37-.19.1,0,.14.1.14.24v6.19Z" style="fill:#231815;"/><path d="M694.41,88.04h.13c.33,0,.68-.05.68-.53v-4.83c0-.48-.35-.53-.68-.53h-.13v-.28c.36,0,.91.04,1.37.04s1.01-.04,1.45-.04v.28h-.13c-.33,0-.68.05-.68.53v4.83c0,.48.35.53.68.53h.13v.28c-.44,0-1-.04-1.46-.04s-1,.04-1.36.04v-.28Z" style="fill:#231815;"/><path d="M697.18,88.28v-.2s-.09,0-.09,0c-.33,0-.72-.06-.72-.57v-4.83c0-.51.39-.57.72-.57h.09v-.2c-.43,0-.96.04-1.41.04s-.97-.03-1.33-.04v.2h.09c.33,0,.72.06.72.57v4.83c0,.51-.39.57-.72.57h-.09v.2c.36,0,.88-.04,1.32-.04s.98.03,1.42.04M697.22,88.36c-.45,0-1-.04-1.46-.04s-.99.04-1.36.04h-.04v-.36h.17c.33,0,.64-.03.64-.49v-4.83c0-.45-.31-.48-.64-.49h-.17v-.36h.04c.36,0,.92.04,1.37.04s1.01-.04,1.45-.04h.04v.36h-.17c-.34,0-.64.04-.64.49v4.83c0,.45.31.48.64.49h.17v.36h-.04Z" style="fill:#231815;"/><path d="M703.56,86.5l.02-.02v-3.46c0-.76-.53-.87-.8-.87h-.2v-.28c.43,0,.86.04,1.29.04.38,0,.76-.04,1.13-.04v.28h-.14c-.39,0-.82.07-.82,1.17v4.2c0,.32,0,.65.05.93h-.35l-4.75-5.3v3.8c0,.8.16,1.08.87,1.08h.16v.28c-.4,0-.79-.04-1.19-.04s-.84.04-1.25.04v-.28h.13c.64,0,.83-.43.83-1.17v-3.89c0-.52-.43-.83-.84-.83h-.12v-.28c.35,0,.71.04,1.06.04.28,0,.55-.04.82-.04l4.11,4.62Z" style="fill:#231815;"/><path d="M703.54,86.48h0s0,0,0,0h0ZM703.56,86.5l.03-.03-.03.03ZM703.74,88.42h.31c-.04-.28-.05-.58-.05-.89v-4.2c0-1.11.46-1.21.86-1.21h.1v-.2c-.36,0-.73.04-1.09.04-.42,0-.83-.03-1.25-.04v.2s.16,0,.16,0c.28,0,.84.13.84.91v3.49s-.03.02-.03.02l-.03.03-4.1-4.64c-.27,0-.54.04-.82.04-.34,0-.68-.03-1.02-.04v.2s.08,0,.08,0c.43,0,.88.33.88.87v3.89c0,.74-.21,1.21-.87,1.21h-.09s0,.2,0,.2c.4,0,.81-.04,1.21-.04s.77.03,1.15.04v-.2h-.12c-.73,0-.91-.32-.91-1.12v-3.91l4.79,5.36ZM704.09,88.5h-.38s-4.68-5.23-4.68-5.23v3.7c.01.8.13,1.03.83,1.04h.2v.36h-.04c-.4,0-.8-.04-1.19-.04-.41,0-.84.04-1.26.04h-.04v-.36h.17c.61,0,.78-.4.79-1.13v-3.89c0-.49-.4-.79-.8-.79h-.16v-.36h.04c.35,0,.71.04,1.06.04.28,0,.54-.04.85-.02l4.05,4.56v-3.39c0-.73-.49-.82-.76-.83h-.24v-.36h.04c.44,0,.86.04,1.29.04.38,0,.75-.04,1.13-.04h.04v.36h-.18c-.38,0-.77.04-.78,1.13v4.2c0,.32.01.64.05.93v.05s-.04,0-.04,0Z" style="fill:#231815;"/><path d="M706.38,82.34c-.69,0-.72.17-.86.84h-.28c.04-.26.08-.52.11-.78.04-.26.06-.52.06-.78h.22c.07.28.3.27.55.27h4.76c.25,0,.48,0,.5-.29l.22.04c-.04.25-.07.5-.1.75-.02.25-.02.5-.02.75l-.28.1c-.02-.34-.06-.89-.68-.89h-1.51v4.91c0,.71.32.79.77.79h.18v.28c-.36,0-1.01-.04-1.5-.04-.55,0-1.2.04-1.56.04v-.28h.18c.51,0,.77-.05.77-.77v-4.93h-1.51Z" style="fill:#231815;"/><path d="M710.02,88.36c-.36,0-1.01-.04-1.5-.04-.55,0-1.2.04-1.56.04h-.04v-.36h.22c.51-.01.71-.02.72-.73v-4.89h-1.47v-.08h1.55v4.97c0,.74-.3.82-.8.82h-.14v.19c.36,0,.99-.04,1.52-.04.48,0,1.1.03,1.46.04v-.19h-.13c-.45,0-.81-.11-.81-.84v-4.95h1.55c.62,0,.7.53.72.87l.2-.07c0-.24,0-.48.02-.72.03-.24.06-.47.1-.71l-.14-.02c-.04.27-.3.28-.53.28h-4.81c-.22,0-.45-.01-.54-.27h-.15c0,.25-.02.5-.05.75-.03.25-.07.5-.1.74h.2c.12-.64.2-.85.89-.84v.08c-.68.01-.67.13-.82.81v.03h-.36v-.05c.04-.26.09-.52.12-.78.04-.26.06-.51.06-.78v-.04h.29v.03c.07.23.24.23.48.24h4.81c.26,0,.44,0,.46-.25v-.04s.05,0,.05,0l.26.04v.04c-.04.25-.08.5-.11.74-.02.25-.02.5-.02.74v.03h-.03s-.33.13-.33.13v-.05c-.03-.35-.06-.85-.65-.85h-1.47v4.87c0,.7.29.74.72.75h.22v.36h-.04Z" style="fill:#231815;"/><path d="M711.96,88.04h.13c.33,0,.68-.05.68-.53v-4.83c0-.48-.35-.53-.68-.53h-.13v-.28c.56,0,1.52.04,2.3.04s1.73-.04,2.36-.04c-.02.4,0,1.01.02,1.41l-.28.07c-.04-.6-.15-1.08-1.12-1.08h-1.28v2.42h1.1c.55,0,.67-.31.73-.81h.28c-.02.36-.03.72-.03,1.08s0,.7.03,1.05l-.28.06c-.05-.55-.08-.91-.72-.91h-1.11v2.15c0,.6.53.6,1.12.6,1.11,0,1.6-.07,1.87-1.12l.26.06c-.12.49-.23.98-.31,1.47-.59,0-1.65-.04-2.48-.04s-1.93.04-2.46.04v-.28Z" style="fill:#231815;"/><path d="M716.86,88.28c.08-.47.19-.93.3-1.4l-.18-.05c-.28,1.03-.81,1.12-1.9,1.12-.58,0-1.16,0-1.17-.64v-2.19h1.15c.64,0,.71.38.76.91l.2-.04c-.02-.34-.03-.68-.03-1.02s0-.69.03-1.04h-.2c-.05.48-.2.82-.76.81h-1.14v-2.5h1.32c.96,0,1.12.49,1.16,1.07l.2-.05c-.02-.26-.03-.59-.03-.9,0-.16,0-.31,0-.44-.63,0-1.56.04-2.32.04s-1.69-.03-2.26-.04v.2h.09c.33,0,.72.06.72.57v4.83c0,.51-.39.57-.72.57h-.09v.19c.54,0,1.6-.04,2.41-.04s1.85.03,2.45.04M716.9,88.36c-.59,0-1.65-.04-2.48-.04s-1.93.04-2.45.04h-.04v-.36h.17c.33,0,.64-.03.64-.49v-4.83c0-.45-.31-.48-.64-.49h-.17v-.36h.04c.56,0,1.52.04,2.3.04s1.73-.04,2.36-.04h.04v.04c0,.14-.01.3-.01.48,0,.32,0,.67.03.93v.03s-.03,0-.03,0l-.32.09v-.05c-.06-.6-.14-1.03-1.09-1.04h-1.24v2.34s1.06,0,1.06,0c.53,0,.63-.28.69-.77v-.04h.36v.04c-.02.36-.03.72-.03,1.08s.01.7.03,1.05v.03s-.03,0-.03,0l-.32.06v-.04c-.07-.56-.07-.87-.68-.88h-1.07v2.11c0,.56.48.56,1.09.56,1.11,0,1.56-.06,1.83-1.1v-.04s.05,0,.05,0l.3.08v.04c-.13.49-.24.98-.32,1.46v.03h-.04Z" style="fill:#231815;"/><path d="M719.64,85h.45c.92,0,1.42-.35,1.42-1.44,0-.82-.53-1.35-1.35-1.35-.28,0-.39.03-.52.04v2.75ZM718.46,82.86c0-.67-.37-.7-.66-.7h-.17v-.28c.3,0,.87.04,1.43.04s1-.04,1.48-.04c1.16,0,2.2.31,2.2,1.62,0,.83-.55,1.34-1.28,1.62l1.58,2.36c.26.39.44.5.9.55v.28c-.31,0-.6-.04-.9-.04-.29,0-.58.04-.87.04-.71-.93-1.32-1.93-1.92-2.99h-.61v1.98c0,.71.33.74.75.74h.17v.28c-.53,0-1.06-.04-1.59-.04-.44,0-.88.04-1.34.04v-.28h.17c.34,0,.66-.16.66-.5v-4.69Z" style="fill:#231815;"/><path d="M720.09,84.96c.91,0,1.37-.33,1.38-1.4,0-.81-.51-1.31-1.31-1.31-.25,0-.37.02-.48.03v2.67h.41ZM719.64,85.04h-.04v-2.82h.04c.13-.01.25-.04.53-.04.84,0,1.39.55,1.39,1.39,0,1.1-.53,1.48-1.46,1.48h-.45ZM719.64,85.29h.63v.02c.61,1.06,1.22,2.06,1.9,2.97.28,0,.58-.04.86-.04s.58.03.87.04v-.2c-.43-.05-.64-.18-.89-.57l-1.61-2.4.05-.02c.72-.28,1.26-.78,1.26-1.59,0-1.28-1-1.58-2.16-1.58-.49,0-.93.04-1.48.04s-1.09-.03-1.39-.04v.2h.13c.29,0,.69.05.69.74v4.69c0,.37-.35.54-.69.54h-.13v.19c.44,0,.86-.04,1.3-.04.52,0,1.04.03,1.55.04v-.19h-.13c-.42,0-.8-.05-.8-.78v-2.01h.04ZM723.93,88.36c-.31,0-.6-.04-.91-.04-.28,0-.58.04-.9.02-.71-.93-1.31-1.92-1.91-2.97h-.55v1.93c.01.69.29.69.71.7h.21v.36h-.04c-.53,0-1.06-.04-1.59-.04-.44,0-.87.04-1.34.04h-.04v-.36h.21c.33,0,.61-.15.61-.46v-4.69c0-.65-.33-.65-.61-.66h-.21v-.36h.04c.3,0,.87.04,1.43.04s.99-.04,1.48-.04c1.16,0,2.23.32,2.24,1.66,0,.83-.55,1.35-1.26,1.64l1.55,2.32c.26.38.42.48.87.54h.03v.36h-.04Z" style="fill:#231815;"/><path d="M730.2,86.5l.02-.02v-3.46c0-.76-.52-.87-.8-.87h-.2v-.28c.43,0,.86.04,1.29.04.38,0,.75-.04,1.14-.04v.28h-.14c-.39,0-.82.07-.82,1.17v4.2c0,.32,0,.65.05.93h-.35l-4.75-5.3v3.8c0,.8.16,1.08.87,1.08h.16v.28c-.4,0-.79-.04-1.19-.04-.42,0-.84.04-1.26.04v-.28h.13c.64,0,.83-.43.83-1.17v-3.89c0-.52-.42-.83-.84-.83h-.12v-.28c.35,0,.71.04,1.06.04.27,0,.54-.04.82-.04l4.11,4.62Z" style="fill:#231815;"/><path d="M730.17,86.48h0s0,0,0,0h0ZM730.2,86.5l.03-.03-.03.03ZM730.38,88.42h.3c-.04-.28-.05-.58-.05-.89v-4.2c0-1.11.47-1.21.86-1.21h.1v-.2c-.36,0-.73.04-1.09.04-.42,0-.83-.03-1.25-.04v.2h.16c.28,0,.84.13.84.91v3.49s-.03.02-.03.02l-.03.03-4.1-4.64c-.27,0-.54.04-.82.04-.34,0-.69-.03-1.02-.04v.2h.08c.43,0,.88.33.88.87v3.88c0,.74-.21,1.21-.87,1.21h-.09s0,.2,0,.2c.4,0,.81-.04,1.21-.04s.77.03,1.15.04v-.2h-.12c-.73,0-.91-.32-.91-1.12v-3.9l4.79,5.36ZM730.73,88.5h-.38s-4.68-5.23-4.68-5.23v3.7c.01.8.13,1.03.83,1.04h.2v.36h-.04c-.4,0-.79-.04-1.19-.04s-.84.04-1.25.04h-.04v-.36h.17c.61,0,.78-.4.79-1.13v-3.88c0-.49-.4-.79-.8-.79h-.16v-.36h.04c.35,0,.71.04,1.06.04.27,0,.54-.04.85-.02l4.06,4.57v-3.39c0-.73-.49-.82-.76-.83h-.24v-.36h.04c.44,0,.86.04,1.29.04.38,0,.75-.04,1.13-.04h.04v.36h-.18c-.38,0-.77.04-.78,1.13v4.2c0,.32,0,.64.06.93v.05s-.04,0-.04,0Z" style="fill:#231815;"/><path d="M734.47,82.91h-.02l-.86,2.61h1.72l-.85-2.61ZM733.12,87c-.09.31-.2.55-.2.72,0,.28.39.32.69.32h.1v.28c-.37-.02-.75-.04-1.12-.04-.33,0-.66.02-1,.04v-.28h.06c.36,0,.66-.21.8-.6l1.48-4.23c.12-.34.29-.8.34-1.15.29-.1.66-.28.84-.4.03,0,.05-.02.07-.02s.05,0,.07.03c.03.07.05.16.08.23l1.7,4.83c.11.32.22.66.34.94.11.26.31.37.61.37h.06v.28c-.42-.02-.83-.04-1.27-.04s-.91.02-1.39.04v-.28h.1c.21,0,.57-.04.57-.27,0-.12-.08-.37-.19-.66l-.36-1.07h-2.09l-.29.96Z" style="fill:#231815;"/><path d="M734.43,82.93h.02s-.02,0-.02,0ZM733.64,85.48h1.62l-.8-2.47-.81,2.47ZM733.53,85.56l.88-2.69h.05v.04h0s0,0,0,0v-.04h.03l.88,2.69h-1.84ZM735.42,88.28c.46-.02.9-.03,1.34-.03s.83.02,1.23.03v-.19h-.01c-.32,0-.53-.12-.65-.39-.12-.28-.23-.62-.34-.94l-1.7-4.83c-.03-.07-.05-.16-.08-.22,0,0,0,0-.01,0h-.02s-.03,0-.05.01c-.18.12-.55.3-.82.37-.06.35-.22.81-.34,1.15l-1.48,4.23c-.14.4-.46.63-.84.63h-.02v.19c.32-.02.64-.03.96-.03.36,0,.72.02,1.07.03v-.19h-.06c-.3,0-.72-.04-.73-.36,0-.18.11-.42.2-.73h.04s-.04,0-.04,0l.3-.99h2.15l.37,1.1c.1.3.19.54.19.68-.01.28-.4.3-.61.31h-.06v.19ZM738.04,88.36c-.41-.02-.83-.04-1.27-.04s-.91.02-1.38.04h-.04s0-.04,0-.04v-.32h.14c.21,0,.53-.05.53-.23,0-.11-.08-.36-.18-.65l-.35-1.04h-2.04l-.29.93c-.09.31-.2.56-.2.71,0,.23.35.28.65.28h.14v.36h-.04c-.37-.02-.75-.04-1.11-.04-.33,0-.66.02-.99.04h-.04s0-.04,0-.04v-.32h.1c.34,0,.63-.2.76-.57l1.48-4.23c.12-.34.29-.8.37-1.17.29-.1.66-.28.84-.4.03,0,.05-.02.09-.02.02,0,.07,0,.1.05.03.08.06.16.08.23l1.7,4.83c.11.32.22.66.34.94.11.25.28.34.57.34h.09v.36h-.04Z" style="fill:#231815;"/><path d="M738.44,82.34c-.69,0-.72.17-.86.84h-.28c.04-.26.08-.52.11-.78.04-.26.05-.52.05-.78h.22c.07.28.3.27.55.27h4.76c.25,0,.48,0,.5-.29l.22.04c-.03.25-.07.5-.1.75-.02.25-.02.5-.02.75l-.28.1c-.02-.34-.06-.89-.68-.89h-1.51v4.91c0,.71.32.79.77.79h.18v.28c-.36,0-1-.04-1.5-.04-.55,0-1.2.04-1.56.04v-.28h.18c.51,0,.77-.05.77-.77v-4.93h-1.51Z" style="fill:#231815;"/><path d="M742.08,88.36c-.36,0-1.01-.04-1.51-.04-.55,0-1.2.04-1.56.04h-.04v-.36h.22c.51-.01.71-.02.73-.73v-4.89h-1.47v-.08h1.55v4.97c0,.74-.3.81-.81.82h-.14v.2c.36,0,.98-.04,1.52-.04.48,0,1.1.03,1.46.04v-.2h-.14c-.44,0-.8-.11-.8-.83v-4.95h1.55c.62,0,.7.53.72.87l.2-.07c0-.24,0-.48.02-.72.02-.24.06-.47.09-.71l-.14-.02c-.04.27-.3.28-.53.28h-4.81c-.22,0-.45-.01-.54-.27h-.15c0,.26-.02.5-.06.75-.03.25-.07.5-.1.74h.2c.12-.64.2-.85.89-.84v.08c-.68.01-.67.13-.82.81v.03h-.36v-.05c.04-.26.09-.52.12-.78.04-.26.05-.51.05-.78v-.04h.29v.03c.07.23.24.23.48.24h4.81c.26,0,.44,0,.46-.25v-.04s.04,0,.04,0l.26.04v.04c-.04.25-.08.5-.11.74-.02.25-.02.5-.02.74v.03h-.03s-.33.13-.33.13v-.05c-.03-.35-.06-.85-.64-.85h-1.47v4.87c0,.7.29.74.73.75h.22v.36h-.04Z" style="fill:#231815;"/><path d="M744.07,88.04h.13c.33,0,.68-.05.68-.53v-4.83c0-.48-.35-.53-.68-.53h-.13v-.28c.36,0,.91.04,1.36.04s1.02-.04,1.45-.04v.28h-.13c-.33,0-.68.05-.68.53v4.83c0,.48.35.53.68.53h.13v.28c-.44,0-1-.04-1.46-.04s-1,.04-1.36.04v-.28Z" style="fill:#231815;"/><path d="M746.84,88.28v-.2h-.09c-.33,0-.72-.06-.72-.57v-4.83c0-.51.39-.57.72-.57h.09v-.2c-.43,0-.96.04-1.41.04s-.97-.03-1.32-.04v.2h.09c.33,0,.72.06.72.57v4.83c0,.51-.39.57-.72.57h-.09v.2c.36,0,.88-.04,1.32-.04s.98.03,1.42.04M746.88,88.36c-.45,0-1-.04-1.46-.04s-1,.04-1.36.04h-.04v-.36h.17c.33,0,.64-.03.64-.49v-4.83c0-.45-.31-.48-.64-.49h-.17v-.36h.04c.36,0,.92.04,1.36.04s1.01-.04,1.45-.04h.04v.36h-.17c-.34,0-.64.04-.64.49v4.83c0,.45.31.48.64.49h.17v.36h-.04Z" style="fill:#231815;"/><path d="M750.7,88.05c1.79,0,2.1-1.58,2.1-2.92s-.73-2.98-2.26-2.98c-1.61,0-2.09,1.44-2.09,2.67,0,1.65.76,3.23,2.25,3.23M750.56,81.74c1.97,0,3.53,1.22,3.53,3.18,0,2.12-1.52,3.53-3.49,3.53s-3.45-1.33-3.45-3.31,1.48-3.4,3.4-3.4" style="fill:#231815;"/><path d="M748.41,84.82c0-1.24.49-2.72,2.13-2.72,1.57,0,2.3,1.67,2.3,3.02,0,1.35-.32,2.96-2.14,2.96v-.08c1.75,0,2.06-1.54,2.06-2.88,0-1.34-.72-2.94-2.22-2.94-1.58,0-2.05,1.41-2.05,2.63,0,1.64.75,3.19,2.21,3.19v.08c-1.53,0-2.29-1.61-2.29-3.27M747.12,85.15c0-1.94,1.51-3.44,3.44-3.44v.08c-1.9,0-3.36,1.47-3.37,3.36,0,1.96,1.48,3.27,3.41,3.27,1.94,0,3.44-1.39,3.45-3.49,0-1.94-1.54-3.14-3.5-3.14v-.08c1.98,0,3.57,1.23,3.57,3.22,0,2.14-1.54,3.57-3.53,3.57-1.97,0-3.49-1.35-3.49-3.35" style="fill:#231815;"/><path d="M760.31,86.5l.02-.02v-3.46c0-.76-.53-.87-.8-.87h-.2v-.28c.43,0,.86.04,1.29.04.38,0,.76-.04,1.14-.04v.28h-.14c-.39,0-.82.07-.82,1.17v4.2c0,.32,0,.65.06.93h-.35l-4.75-5.3v3.8c0,.8.16,1.08.87,1.08h.16v.28c-.4,0-.79-.04-1.19-.04s-.84.04-1.26.04v-.28h.13c.64,0,.83-.43.83-1.17v-3.89c0-.52-.42-.83-.84-.83h-.12v-.28c.35,0,.71.04,1.06.04.28,0,.54-.04.82-.04l4.11,4.62Z" style="fill:#231815;"/><path d="M760.29,86.48h0s0,0,0,0h0ZM760.31,86.5l.03-.03-.03.03ZM760.5,88.42h.3c-.04-.28-.05-.58-.05-.89v-4.2c0-1.11.47-1.21.86-1.21h.1v-.2c-.37,0-.73.04-1.1.04-.42,0-.83-.03-1.25-.04v.2h.16c.28,0,.84.13.84.91v3.49s-.03.02-.03.02l-.03.03-4.11-4.64c-.27,0-.54.04-.82.04-.34,0-.69-.03-1.02-.04v.2h.08c.43,0,.88.33.88.87v3.89c0,.74-.21,1.21-.87,1.21h-.09s0,.2,0,.2c.4,0,.81-.04,1.22-.04s.77.03,1.15.04v-.2h-.12c-.72,0-.91-.32-.91-1.12v-3.91l4.79,5.36ZM760.85,88.5h-.38s-4.68-5.23-4.68-5.23v3.7c.01.8.13,1.03.83,1.04h.2v.36h-.04c-.4,0-.8-.04-1.19-.04s-.84.04-1.26.04h-.04v-.36h.17c.61,0,.78-.39.79-1.13v-3.89c0-.49-.4-.79-.8-.79h-.16v-.36h.04c.35,0,.71.04,1.06.04.27,0,.54-.04.85-.02l4.05,4.56v-3.39c0-.73-.49-.82-.76-.83h-.24v-.36h.04c.43,0,.86.04,1.29.04.38,0,.75-.04,1.14-.04h.04v.36h-.18c-.38,0-.77.04-.78,1.13v4.2c0,.32,0,.64.05.93v.05s-.04,0-.04,0Z" style="fill:#231815;"/><path d="M764.58,82.91h-.02l-.86,2.61h1.73l-.85-2.61ZM763.23,87c-.09.31-.2.55-.2.72,0,.28.39.32.69.32h.1v.28c-.37-.02-.75-.04-1.12-.04-.33,0-.66.02-.99.04v-.28h.05c.36,0,.67-.21.8-.6l1.48-4.23c.12-.34.29-.8.34-1.15.3-.1.66-.28.84-.4.03,0,.04-.02.07-.02.03,0,.04,0,.06.03.03.07.06.16.08.23l1.7,4.83c.11.32.22.66.34.94.11.26.3.37.61.37h.06v.28c-.42-.02-.83-.04-1.27-.04s-.91.02-1.38.04v-.28h.1c.21,0,.57-.04.57-.27,0-.12-.08-.37-.19-.66l-.36-1.07h-2.09l-.3.96Z" style="fill:#231815;"/><path d="M764.54,82.93h.02s-.02,0-.02,0ZM763.76,85.48h1.61l-.8-2.47-.81,2.47ZM763.65,85.56l.89-2.69h.05v.04h-.01s.01,0,.01,0v-.04h.03l.87,2.69h-1.83ZM765.53,88.28c.46-.02.91-.03,1.35-.03s.83.02,1.23.03v-.19h-.02c-.31,0-.53-.12-.65-.39-.12-.28-.23-.62-.34-.94l-1.7-4.83c-.03-.07-.06-.16-.08-.22,0-.01,0-.01-.01-.01h-.02s-.03,0-.05.01c-.18.11-.55.3-.82.37-.06.35-.22.81-.34,1.15l-1.48,4.23c-.14.4-.46.63-.84.63h-.01v.19c.32-.02.63-.03.96-.03.36,0,.72.02,1.08.03v-.19h-.06c-.3,0-.72-.04-.73-.36,0-.18.12-.42.21-.73h.04s-.04,0-.04,0l.3-.99h2.15l.37,1.1c.1.3.19.54.19.68-.01.28-.4.3-.61.31h-.06v.19ZM768.15,88.36c-.42-.02-.83-.04-1.27-.04s-.91.02-1.38.04h-.04s0-.04,0-.04v-.32h.14c.21,0,.53-.05.53-.23,0-.11-.08-.36-.18-.65l-.35-1.04h-2.04l-.29.93c-.09.32-.2.56-.2.71,0,.23.35.28.65.28h.14v.36h-.04c-.37-.02-.75-.04-1.11-.04-.33,0-.66.02-.99.04h-.04s0-.04,0-.04v-.32h.09c.34,0,.63-.2.77-.57l1.48-4.23c.12-.34.28-.8.37-1.17.29-.1.66-.29.84-.4.02,0,.05-.02.09-.02.02,0,.07,0,.1.05.03.07.06.16.09.23l1.7,4.83c.11.32.22.66.34.94.11.24.28.34.57.34h.1v.36h-.04Z" style="fill:#231815;"/><path d="M770.48,87.42c0,.37.26.48.55.52.38.03.79.03,1.22-.02.39-.05.72-.27.88-.5.15-.2.23-.46.29-.66h.27c-.1.53-.23,1.04-.34,1.57-.81,0-1.62-.04-2.43-.04s-1.62.04-2.43.04v-.28h.13c.33,0,.69-.05.69-.62v-4.74c0-.48-.36-.53-.69-.53h-.13v-.28c.49,0,.97.04,1.46.04s.93-.04,1.4-.04v.28h-.23c-.35,0-.63.01-.63.5v4.76Z" style="fill:#231815;"/><path d="M773.31,88.28c.11-.5.23-.99.33-1.49h-.19c-.06.2-.14.45-.28.65-.17.24-.51.46-.91.51-.24.02-.48.04-.71.04-.18,0-.35,0-.52-.02-.3-.03-.59-.16-.59-.56v-4.76c0-.51.32-.54.67-.54h.19v-.2c-.45,0-.9.04-1.36.04s-.94-.03-1.42-.04v.2h.09c.33,0,.73.06.73.57v4.74c0,.6-.4.66-.73.66h-.09v.2c.8,0,1.59-.04,2.4-.04s1.6.03,2.4.04M773.35,88.36c-.81,0-1.63-.04-2.44-.04s-1.62.04-2.44.04h-.04v-.36h.17c.33,0,.65-.03.65-.58v-4.74c0-.45-.32-.48-.65-.49h-.17v-.36h.04c.49,0,.97.04,1.46.04s.93-.04,1.4-.04h.04v.36h-.27c-.36,0-.58,0-.59.46v4.76c0,.35.23.44.52.48.16.01.33.02.51.02.23,0,.46-.01.7-.04.38-.04.7-.26.86-.48.14-.2.22-.45.28-.65v-.03h.36v.05c-.11.53-.24,1.04-.35,1.57v.03h-.04Z" style="fill:#231815;"/><path d="M773.42,82.59h.11c.13,0,.18-.09.18-.25s-.09-.21-.19-.21h-.11v.46ZM773.09,83.1v-.05c.12-.02.14-.01.14-.09v-.72c0-.1-.01-.14-.14-.13v-.05h.5c.17,0,.33.08.33.26,0,.14-.09.25-.23.29l.16.22c.07.1.16.2.21.23v.03h-.19c-.09,0-.17-.19-.35-.45h-.11v.32c0,.06.02.06.14.08v.05h-.47ZM773.57,83.38c.44,0,.77-.37.77-.79s-.33-.79-.77-.79-.77.37-.77.79.33.79.77.79M773.57,81.62c.56,0,.97.43.97.97s-.42.97-.97.97-.97-.42-.97-.97.42-.97.97-.97" style="fill:#231815;"/><path d="M715.95,49.31c0-8.63,7-15.62,15.62-15.62s15.62,7,15.62,15.62-6.99,15.62-15.62,15.62-15.62-7-15.62-15.62" style="fill:#fff;"/><path d="M731.6,65.21c-8.95.04-16.32-7.21-16.32-16.04,0-9.65,7.37-16.33,16.32-16.32h4.2c8.85,0,16.92,6.67,16.92,16.32,0,8.83-8.08,16.04-16.92,16.04h-4.2ZM731.64,34.19c-8.18,0-14.81,6.63-14.81,14.82,0,8.18,6.63,14.81,14.81,14.81,8.18,0,14.81-6.63,14.82-14.81,0-8.18-6.63-14.81-14.82-14.82M728.27,57.77v-17.52c-3.52,1.36-6.02,4.76-6.03,8.76,0,4,2.51,7.41,6.03,8.76M741.03,49c0-4-2.51-7.41-6.03-8.76v17.53c3.52-1.35,6.02-4.76,6.03-8.76" style="fill:#0065ac;"/><path d="M1005.75,25.77h27.76c3.87,0,6.28,3.16,5.38,7.05l-12.92,55.48c-.91,3.87-4.79,7.03-8.67,7.03h-27.75c-3.87,0-6.28-3.16-5.38-7.03l12.93-55.48c.9-3.89,4.78-7.05,8.66-7.05" style="fill:#e41a37;"/><path d="M1031.2,25.77h31.92c3.87,0,2.13,3.16,1.22,7.05l-12.92,55.48c-.91,3.87-.62,7.03-4.51,7.03h-31.92c-3.88,0-6.28-3.16-5.37-7.03l12.92-55.48c.92-3.89,4.79-7.05,8.66-7.05" style="fill:#004678;"/><path d="M1061.85,25.77h27.76c3.88,0,6.29,3.16,5.38,7.05l-12.92,55.48c-.91,3.87-4.79,7.03-8.67,7.03h-27.74c-3.88,0-6.29-3.16-5.38-7.03l12.92-55.48c.9-3.89,4.78-7.05,8.66-7.05" style="fill:#007b84;"/><path d="M1057.22,77.95h2.62l.75-2.51h-2.61l-.76,2.51ZM1059.31,71.01l-.9,2.98s1-.51,1.53-.67c.54-.12,1.36-.22,1.36-.22l.63-2.09h-2.62M1060.61,66.73l-.87,2.86s.98-.44,1.5-.59c.54-.14,1.34-.19,1.34-.19l.63-2.09h-2.61M1066.4,66.73l-3.39,11.2h.91l-.71,2.31h-.9l-.21.71h-3.22l.22-.71h-6.54l.65-2.14h.67l3.43-11.37.68-2.29h3.28l-.34,1.15s.87-.63,1.7-.84c.83-.22,5.59-.3,5.59-.3l-.7,2.28h-1.12" style="fill:#fff; fill-rule:evenodd;"/><path d="M1067.85,64.45h3.51l.03,1.31c-.02.22.17.32.58.32h.71l-.65,2.16h-1.89c-1.64.12-2.26-.59-2.22-1.38l-.07-2.41Z" style="fill:#fff;"/><path d="M1068.31,74.68h-3.34l.57-1.92h3.82l.54-1.75h-3.77l.64-2.16h10.49l-.65,2.16h-3.52l-.55,1.75h3.53l-.59,1.92h-3.81l-.68.81h1.55l.38,2.42c.04.24.04.4.12.5.08.08.54.13.81.13h.47l-.72,2.35h-1.19c-.18,0-.46-.01-.84-.03-.35-.03-.61-.24-.85-.36-.22-.1-.54-.37-.62-.82l-.37-2.41-1.74,2.38c-.55.75-1.29,1.33-2.56,1.33h-2.43l.64-2.1h.93c.27,0,.5-.11.68-.2.18-.07.34-.17.51-.43l2.53-3.57Z" style="fill:#fff;"/><path d="M1031.71,69.42h8.85l-.66,2.11h-3.54l-.55,1.8h3.62l-.66,2.18h-3.62l-.88,2.93c-.11.32.86.36,1.21.36l1.81-.25-.73,2.41h-4.08c-.33,0-.57-.05-.93-.13-.34-.09-.5-.24-.65-.47-.15-.24-.38-.43-.22-.95l1.17-3.87h-2.01l.67-2.21h2.02l.54-1.8h-2.01l.64-2.11Z" style="fill:#fff;"/><path d="M1037.67,65.63h3.63l-.66,2.21h-4.96l-.54.46c-.23.22-.31.13-.61.29-.28.14-.87.42-1.63.42h-1.59l.64-2.12h.48c.4,0,.68-.04.82-.12.16-.1.34-.33.53-.69l.92-1.66h3.6l-.63,1.2Z" style="fill:#fff;"/><path d="M1044.63,69.26s.99-.91,2.69-1.2c.39-.07,2.79-.05,2.79-.05l.37-1.22h-5.11l-.74,2.46ZM1049.42,70.18h-5.07l-.31,1.02h4.39c.52-.06.62.01.67-.01l.32-1.01M1042.86,64.45h3.09l-.45,1.56s.98-.78,1.66-1.06c.68-.25,2.22-.48,2.22-.48l5.01-.03-1.7,5.68c-.29.97-.62,1.6-.83,1.89-.19.29-.41.54-.84.78-.42.23-.81.35-1.16.39-.33.02-.84.03-1.54.04h-4.82l-1.36,4.49c-.13.45-.19.66-.11.78.07.1.23.22.46.22l2.13-.2-.73,2.46h-2.38c-.76,0-1.31-.02-1.69-.05-.37-.03-.75,0-1.01-.2-.22-.2-.56-.45-.55-.72.02-.24.13-.65.28-1.2l4.33-14.36" style="fill:#fff; fill-rule:evenodd;"/><path d="M1051.88,73.61l-.29,1.36c-.12.43-.23.74-.55,1.02-.34.29-.73.59-1.66.59l-1.72.07v1.54c-.03.43.08.39.15.46.08.08.15.11.22.14l.54-.03,1.64-.09-.68,2.25h-1.88c-1.32,0-2.29-.03-2.61-.28-.32-.2-.36-.45-.35-.89l.12-6.01h3l-.04,1.23h.72c.25,0,.41-.02.52-.09.09-.07.16-.16.2-.31l.3-.96h2.36Z" style="fill:#fff;"/><path d="M1009.03,43.48c-.1.49-2.03,9.38-2.04,9.38-.41,1.8-.72,3.08-1.74,3.91-.58.48-1.26.71-2.05.71-1.27,0-2-.63-2.13-1.82l-.02-.41s.39-2.41.39-2.42c0,0,2.02-8.1,2.38-9.17.02-.06.02-.09.03-.12-3.94.03-4.63,0-4.68-.06-.03.09-.12.59-.12.59l-2.06,9.13-.18.77-.34,2.53c0,.75.15,1.36.44,1.88.94,1.64,3.62,1.89,5.14,1.89,1.96,0,3.79-.41,5.03-1.17,2.15-1.27,2.71-3.26,3.22-5.02l.23-.91s2.08-8.41,2.44-9.5c.01-.06.02-.09.04-.12-2.85.03-3.7,0-3.97-.06" style="fill:#fff;"/><path d="M1020.55,60.19c-1.39-.02-1.89-.02-3.52.06l-.06-.12c.14-.62.29-1.23.43-1.86l.2-.85c.3-1.32.59-2.85.63-3.32.03-.28.13-.98-.68-.98-.34,0-.69.16-1.05.33-.2.7-.59,2.68-.78,3.58-.4,1.89-.43,2.11-.61,3.05l-.12.13c-1.44-.02-1.94-.02-3.59.06l-.07-.14c.27-1.12.55-2.26.81-3.39.7-3.06.86-4.22,1.05-5.78l.13-.09c1.61-.23,2.01-.27,3.75-.63l.15.16-.27.97c.3-.18.58-.35.88-.51.82-.4,1.74-.53,2.24-.53.77,0,1.61.21,1.96,1.1.33.79.11,1.76-.32,3.67l-.22.98c-.45,2.13-.52,2.52-.77,3.98l-.16.13Z" style="fill:#fff;"/><path d="M1026.22,60.19c-.84,0-1.39-.02-1.91,0-.53,0-1.04.03-1.82.07l-.04-.07-.05-.07c.21-.81.33-1.09.44-1.37.11-.29.21-.57.4-1.39.25-1.07.4-1.82.49-2.47.12-.63.18-1.17.26-1.8l.06-.05.07-.06c.84-.12,1.37-.2,1.91-.28.55-.07,1.1-.18,1.97-.35l.03.07.02.08c-.16.66-.32,1.32-.48,1.99-.15.67-.32,1.33-.46,1.99-.31,1.41-.44,1.93-.51,2.31-.07.35-.09.55-.21,1.28l-.08.07-.07.06Z" style="fill:#fff;"/><path d="M1035.11,55.22c-.07.36-.39,1.71-.81,2.28-.3.42-.65.68-1.04.68-.12,0-.81,0-.82-1.03,0-.51.1-1.03.22-1.59.37-1.63.8-2.99,1.91-2.99.87,0,.93,1.01.54,2.65M1038.76,55.38c.49-2.15.11-3.15-.37-3.76-.73-.93-2.01-1.23-3.34-1.23-.8,0-2.71.08-4.2,1.45-1.07.99-1.56,2.34-1.86,3.63-.3,1.31-.65,3.68,1.53,4.56.67.29,1.64.37,2.26.37,1.59,0,3.23-.44,4.46-1.74.95-1.06,1.38-2.63,1.53-3.28" style="fill:#fff;"/><path d="M1072.89,60.33c-1.69-.01-2.17-.01-3.73.05l-.1-.13c.42-1.6.84-3.2,1.22-4.82.49-2.1.6-2.99.76-4.22l.13-.1c1.68-.24,2.14-.31,3.88-.63l.05.15c-.32,1.32-.63,2.64-.94,3.96-.64,2.77-.87,4.17-1.12,5.62l-.15.12Z" style="fill:#fff;"/><path d="M1070.36,55.41c-.08.35-.4,1.7-.83,2.27-.29.4-.96.66-1.36.66-.11,0-.8,0-.82-1.01,0-.5.1-1.02.23-1.59.37-1.6.8-2.95,1.91-2.95.87,0,1.24.98.87,2.62M1073.69,55.57c.49-2.13-1.49-.19-1.8-.89-.48-1.1-.18-3.32-2.12-4.07-.75-.29-2.5.08-4,1.45-1.06.98-1.56,2.32-1.85,3.6-.3,1.29-.65,3.66,1.51,4.5.69.29,1.31.38,1.94.35,2.18-.12,3.83-3.4,5.06-4.7.95-1.03,1.11.39,1.26-.24" style="fill:#fff;"/><path d="M1048.3,60.19c-1.4-.02-1.88-.02-3.51.06l-.06-.12c.14-.62.3-1.23.44-1.86l.19-.85c.31-1.32.6-2.85.63-3.32.03-.28.13-.98-.67-.98-.35,0-.7.16-1.06.33-.19.7-.59,2.68-.79,3.58-.39,1.89-.42,2.11-.6,3.05l-.12.13c-1.43-.02-1.93-.02-3.59.06l-.07-.14c.27-1.12.55-2.26.81-3.39.69-3.06.85-4.22,1.05-5.78l.12-.09c1.61-.23,2.01-.27,3.76-.63l.13.16-.25.97c.29-.18.58-.35.87-.51.82-.4,1.74-.53,2.24-.53.76,0,1.6.21,1.96,1.1.32.79.1,1.76-.34,3.67l-.22.98c-.46,2.13-.53,2.52-.77,3.98l-.17.13Z" style="fill:#fff;"/><path d="M1060.4,43.47s-1.16.01-1.16.01c-3.02.04-4.23.03-4.73-.03-.04.22-.12.61-.12.61,0,0-1.08,5.01-1.08,5.02,0,0-2.59,10.65-2.71,11.15,2.64-.03,3.72-.03,4.17.02.1-.5.71-3.48.72-3.48,0,0,.52-2.18.55-2.26,0,0,.16-.23.33-.32h.24c2.27,0,4.84,0,6.85-1.48,1.37-1.01,2.3-2.51,2.72-4.33.11-.45.19-.98.19-1.51,0-.7-.14-1.39-.54-1.93-1.03-1.43-3.07-1.46-5.43-1.47M1061.9,48.69c-.25,1.11-.97,2.05-1.89,2.5-.76.38-1.7.42-2.66.42h-.62l.05-.25s1.15-5,1.14-4.98l.04-.26.02-.2.46.05s2.37.2,2.43.21c.94.36,1.32,1.29,1.05,2.51" style="fill:#fff;"/><path d="M1086.68,50.47l-.13-.15c-1.72.35-2.04.4-3.62.62l-.12.12s-.01.05-.02.07v-.03c-1.18,2.72-1.15,2.13-2.11,4.27,0-.1,0-.16-.01-.26l-.24-4.64-.15-.15c-1.81.35-1.85.4-3.51.62l-.13.12c-.02.06-.02.12-.03.18v.02c.22,1.06.17.83.38,2.51.1.82.23,1.65.32,2.47.16,1.36.26,2.03.46,4.11-1.13,1.86-1.39,2.56-2.48,4.19l.07.15c1.63-.06,2-.06,3.21-.06l.26-.3c.91-1.96,7.85-13.86,7.85-13.86" style="fill:#fff;"/><path d="M1027.75,51.62c.92-.64,1.04-1.53.26-1.99-.79-.46-2.17-.32-3.1.33-.93.63-1.03,1.52-.25,1.99.77.45,2.16.32,3.08-.33" style="fill:#fff;"/><path d="M1078.71,64.5l-1.36,2.32c-.43.79-1.22,1.39-2.49,1.39l-2.16-.04.63-2.09h.42c.22,0,.38-.01.5-.07.11-.04.19-.12.28-.25l.8-1.27h3.37Z" style="fill:#fff;"/><path d="M829.24,30.18v62.52c0,1.32,1.07,2.39,2.39,2.39h66.38c18.59,0,33.65-15.07,33.65-33.65s-15.07-33.65-33.65-33.65h-66.38c-1.32,0-2.39,1.07-2.39,2.39" style="fill:#fff;"/><path d="M837.33,53.88h-4.24v14.81h4.22c2.24,0,3.86-.53,5.28-1.71,1.69-1.4,2.69-3.51,2.69-5.68,0-4.37-3.27-7.42-7.95-7.42M840.71,65.01c-.91.82-2.09,1.18-3.95,1.18h-.78v-9.79h.78c1.87,0,3,.33,3.95,1.2,1,.89,1.6,2.27,1.6,3.69s-.6,2.84-1.6,3.73" style="fill:#231815;"/><rect x="846.61" y="53.88" width="2.89" height="14.81" style="fill:#231815;"/><path d="M856.56,59.56c-1.73-.64-2.24-1.06-2.24-1.86,0-.93.91-1.64,2.15-1.64.87,0,1.58.36,2.33,1.2l1.51-1.98c-1.24-1.09-2.73-1.64-4.35-1.64-2.62,0-4.62,1.82-4.62,4.24,0,2.04.93,3.09,3.64,4.06,1.13.4,1.71.67,2,.84.58.38.87.91.87,1.53,0,1.2-.95,2.09-2.24,2.09-1.38,0-2.49-.69-3.15-1.98l-1.87,1.8c1.33,1.95,2.93,2.82,5.13,2.82,3,0,5.11-2,5.11-4.86,0-2.35-.97-3.42-4.26-4.62" style="fill:#231815;"/><path d="M861.74,61.29c0,4.35,3.42,7.73,7.82,7.73,1.24,0,2.31-.24,3.62-.86v-3.4c-1.16,1.16-2.18,1.62-3.49,1.62-2.91,0-4.97-2.11-4.97-5.11,0-2.84,2.13-5.09,4.84-5.09,1.38,0,2.42.49,3.62,1.67v-3.4c-1.27-.64-2.31-.91-3.55-.91-4.38,0-7.89,3.44-7.89,7.75" style="fill:#231815;"/><polygon points="896.08 63.83 892.13 53.88 888.97 53.88 895.26 69.07 896.81 69.07 903.21 53.88 900.08 53.88 896.08 63.83" style="fill:#231815;"/><polygon points="904.52 68.69 912.71 68.69 912.71 66.18 907.4 66.18 907.4 62.18 912.51 62.18 912.51 59.68 907.4 59.68 907.4 56.39 912.71 56.39 912.71 53.88 904.52 53.88 904.52 68.69" style="fill:#231815;"/><path d="M924.15,58.25c0-2.77-1.91-4.37-5.24-4.37h-4.28v14.81h2.89v-5.95h.38l4,5.95h3.55l-4.66-6.24c2.18-.44,3.38-1.93,3.38-4.2M918.35,60.7h-.84v-4.49h.89c1.8,0,2.78.75,2.78,2.2s-.98,2.29-2.82,2.29" style="fill:#231815;"/><path d="M926.45,54.66c0-.26-.18-.4-.5-.4h-.42v1.31h.31v-.51l.37.51h.38l-.43-.54c.18-.05.29-.18.29-.36M925.9,54.83h-.05v-.34h.06c.15,0,.23.06.23.17s-.08.17-.24.17" style="fill:#231815;"/><path d="M926.02,53.76c-.63,0-1.14.51-1.14,1.14s.51,1.14,1.14,1.14,1.12-.51,1.12-1.14-.51-1.14-1.12-1.14M926.01,55.84c-.5,0-.91-.42-.91-.93s.4-.94.91-.94.9.43.9.94-.4.93-.9.93" style="fill:#231815;"/><path d="M889.8,61.27c0,4.33-3.51,7.84-7.84,7.84s-7.84-3.51-7.84-7.84,3.51-7.84,7.84-7.84,7.84,3.51,7.84,7.84" style="fill:#ee7800;"/><path d="M933.44,26.59h-101.8c-1.98,0-3.59,1.61-3.59,3.59v62.52c0,1.98,1.61,3.59,3.59,3.59h101.8c1.98,0,3.59-1.61,3.59-3.59V30.18c0-1.98-1.61-3.59-3.59-3.59M931.66,61.44c0,18.59-15.07,33.65-33.65,33.65h-66.38c-1.32,0-2.39-1.07-2.39-2.39V30.18c0-1.32,1.07-2.39,2.39-2.39h66.38c18.59,0,33.65,15.07,33.65,33.65Z" style="fill:#ee7800;"/></svg>