<?xml version="1.0" encoding="UTF-8"?><svg id="a" xmlns="http://www.w3.org/2000/svg" viewBox="0 0 443.39 77.52"><g id="b"><path d="M433.57,61.71c0,.56-.45,1.01-1.01,1.01h-37.93c-.56,0-1.01-.46-1.01-1.01v-11.68c0-.55.46-1.01,1.01-1.01h37.93c.56,0,1.01.46,1.01,1.01v11.68" style="fill:#9ed2e8;"/><polygon points="405.67 59.47 405.67 60.22 404.81 60.22 404.81 59.47 404.44 59.47 404.44 61.41 404.81 61.41 404.81 60.58 405.67 60.58 405.67 61.41 406.04 61.41 406.04 59.47 405.67 59.47" style="fill:#274692;"/><path d="M407.47,59.45h-.23l-.81,1.88.34.14s.21-.49.25-.58h.75c.04.09.25.58.25.58l.34-.14-.83-1.88h-.06M407.61,60.52h-.43c.06-.13.14-.32.22-.5.08.18.16.37.22.5" style="fill:#274692;"/><path d="M409.87,59.47s-.38.54-.49.7c-.11-.16-.54-.77-.54-.77l-.31.21.66.94v.87h.37v-.87l.66-.94-.3-.21-.05.07" style="fill:#274692;"/><path d="M411.45,59.45h-.23l-.81,1.88.34.14s.21-.49.25-.58h.75c.04.09.25.58.25.58l.34-.14-.83-1.88h-.06M411.37,60.02c.08.18.16.37.22.5h-.43c.06-.13.14-.32.21-.5" style="fill:#274692;"/><path d="M414.11,59.69l-.26-.26-.06.07-.68.68v-.71h-.37v1.94h.37v-.71l.13-.13c.11.13.71.88.71.88l.29-.22s-.65-.81-.74-.93c.09-.09.61-.61.61-.61" style="fill:#274692;"/><path d="M415.52,59.45h-.23l-.81,1.88.34.14s.21-.49.25-.58h.75c.04.09.25.58.25.58l.34-.14-.83-1.88h-.06M415.66,60.52h-.43c.06-.13.14-.32.22-.5.08.18.16.37.22.5" style="fill:#274692;"/><path d="M418.19,59.69l-.26-.26-.06.07s-.47.47-.68.68v-.71h-.37v1.94h.37v-.71l.13-.13c.11.13.71.88.71.88l.29-.22s-.65-.81-.74-.93c.09-.09.61-.61.61-.61" style="fill:#274692;"/><polygon points="419.14 60.59 419.9 60.59 419.9 60.23 419.14 60.23 419.14 59.83 420.01 59.83 420.01 59.46 418.77 59.46 418.77 61.41 420.02 61.41 420.02 61.04 419.14 61.04 419.14 60.59" style="fill:#274692;"/><path d="M421.91,59.47h-.28v1.21c-.22-.37-.71-1.21-.71-1.21h-.38v1.95h.37v-1.24c.22.38.73,1.24.73,1.24h.37v-1.95h-.09" style="fill:#274692;"/><path d="M399.98,51.9c.1.06.09.15,0,.19s-.26.1-.41.14v-.62l.11.09c.11.07.21.12.3.19M401.14,56.41c-.28-.38-.87-.73-1.5-.98-.05-1.06-.08-1.93-.09-2.72.48-.09,1.09-.22,1.23-.36.26-.27.16-.53-.18-.55-.19-.02-.47.02-.89-.15-.09-.04-.15-.04-.15-.04v-.42c.01-.12.13-.19.13-.35,0-.36-.72-.71-1.19-.61-.21.05-.2.13,0,.21.26.11.43.25.48.74.03.4.05.79.07,1.16-.76.1-1.81.07-2.08-.22-.12-.12-.17-.1-.1.07.19.5,1.1.73,2.2.6.03.8.04,1.62.06,2.5-1.13-.26-1.98-.1-2.19.65-.41,1.51,2.79,1.73,2.73.23v-.22c.33.2.65.48.93.87.27.38.93.11.54-.41M396.13,53.78c.05-.19-.04-.21-.11-.03-.25.51-.57,1.34-.78,1.94-.05.17-.13.11-.18-.06-.17-.67-.19-2.06.59-3.61.12-.26.31-.48.34-.67.05-.34-.26-.79-.61-.98-.1-.06-.15-.06-.13.06.09.45.03.65-.12,1.22-.53,2.06-.76,3.42-.22,4.92.31.86.89.72.8,0-.08-.56,0-1.32.42-2.8M399.13,55.93c.03,1.22-2.12.8-1.96.03.12-.61,1.09-.66,1.96-.26v.22h0Z" style="fill:#fff;"/><path d="M406.22,51.91c-.55.19-1.07.43-1.53.66-.18-.32-.43-.75-.56-1.01-.22-.4-.02-.62.38-.6.4.02.99.02,1.72.94M408.77,54.63c1.45-.55,1.53-2.78-.27-3.09-.37-.06-.8-.04-1.25.06-.04-.46-.34-1.02-1.08-1.11-.18-.03-.21.05-.04.13.32.15.5.5.51.77,0,.13-.1.23-.27.11-.59-.41-1.21-.71-2.02-.78-.95-.08-1.19.64-.79,1.03.25.25.6.63.83.96-.41.21-.75.41-1,.54-.33.19-.78.3-1.06.13-.14-.1-.23-.14-.2.04.08.53.68.89.96.81s.26-.27.76-.63c.26-.18.55-.38.76-.5.62,1.18.99,2.72.99,4.05,0,.86.82.63.78-.03-.09-1.37-.83-3.04-1.48-4.21.52-.32,1.01-.58,1.51-.79.29.3.75.18.84-.27.51-.11.9-.14,1.25-.07,1.15.22,1.17,1.8.06,2.26-.67.27-1.86.3-2.58-.67-.15-.2-.22-.13-.12.1.49,1.16,1.89,1.56,2.93,1.16" style="fill:#fff;"/><path d="M417.82,54.57c-.17-.13-.25-.12-.94-.2-.26-.03-.26-.1-.02-.14.31-.05.58-.12.8-.22.19-.06.24-.19.22-.39-.04-.58-.35-1.01-1.06-1.42-.15-.09-.12-.12.05-.09,1.45.28,2.07,1.61,1.55,2.44-.22.36-.43.15-.61,0M414.48,56.77c-.49.49-.99.3-1.01.06-.04-.32-.2-.52-.66-.94-.15-.14-.11-.17.05-.1.32.14.53.24.87.34.22.07.34.03.44-.09.38-.45.67-1.25.81-2.43.09-.83-.36-1.14-1.16-.93-.22.05-.39.11-.55.16-.34,1.12-.7,2.43-1.16,3.42-.21.43-.46.81-.7.57-.18-.2-.18-.5.05-.86.61-.91,1.04-1.91,1.32-2.95l-.22.09c-.8.31-.66.41-.88.49-.25.09-.6-.37-.66-.83-.02-.11.04-.12.12-.07.26.16.38.18.84.09.3-.06.6-.14.92-.21.09-.39.16-.78.2-1.19.04-.27.06-.58-.33-.8-.17-.08-.18-.14.02-.17.71-.05,1.11.35,1.13.65,0,.2-.15.28-.26.62-.09.23-.18.49-.26.78.13-.02.27-.04.42-.07,1.15-.19,1.66.35,1.66,1.27,0,.97-.27,2.37-.99,3.1" style="fill:#fff;"/><path d="M422.15,56.44c.13.49-.26.69-.54.25-.54-.89-.42-2.34-.08-3.75.08-.32.15-.69.1-.92-.04-.12,0-.13.13-.05.25.17.5.51.4.8-.05.14-.15.23-.25.5-.58,1.45-.4,2.02-.32,2.43.04.12.11.13.14.02.14-.49.27-.89.48-1.43.05-.13.11-.13.09,0-.23,1.16-.27,1.78-.16,2.13M425.27,53.59c.01.83.04,1.57-.16,2.17-.26.75-.83,1.22-1.95,1.54-.14.03-.17-.01-.04-.08.97-.42,1.35-.89,1.57-1.59.14-.44.14-1.25.12-1.99-.67.07-1.75.12-1.96-.38-.06-.12-.02-.12.07-.06.34.19,1.15.14,1.87.05-.01-.22-.02-.44-.03-.62-.04-.37-.09-.53-.39-.67-.13-.06-.1-.12.03-.14.4-.04.94.15.97.43.02.17-.1.16-.1.49v.44c.26-.04.48-.09.64-.12.42-.05.59.42.1.46-.18.02-.45.05-.74.08" style="fill:#fff;"/><path d="M430.27,56.99c-1.12-.36-.26-1.94-.86-2.24-.53-.26-1.7.4-2,1.74-.03.16-.09.61-.41.6-.25,0-.31-.28-.25-.59.07-.4.55-1.02,2.1-3.77.22-.37.17-.72,0-.97-.08-.12-.03-.16.12-.12.37.1.69.53.7.76,0,.25-.16.38-.39.61-.57.57-1.06,1.31-1.41,2.04-.05.12,0,.16.07.06.33-.38,1.07-.87,1.65-.61.99.44.13,1.83.83,2.06.57.2,1.57-.2,2.02-1.56.05-.17.14-.13.11.04-.16,1.38-1.19,2.3-2.29,1.95" style="fill:#fff;"/></g><g id="c"><path d="M279.59,45.3h-32.03c-.67,0-1.2.53-1.2,1.18v18.79c0,.65.53,1.18,1.2,1.18h32.03c.67,0,1.2-.53,1.2-1.18v-18.79c0-.65-.53-1.18-1.2-1.18" style="fill:#dcdbd1;"/><path d="M262.92,54.07c-.41,0-.79.17-1.11.53-.33.35-.5.79-.5,1.32s.17.97.5,1.32c.33.35.7.52,1.11.52s.79-.17,1.12-.52.49-.78.49-1.32-.16-.97-.49-1.32c-.32-.35-.7-.52-1.12-.52" style="fill:#9fd1ce;"/><path d="M259.45,57.25l-.11.02s-.07.05-.18.15c-.17.17-.31.28-.47.33-.25.09-.55.14-.9.14-.59,0-1.06-.15-1.4-.46s-.51-.7-.51-1.16v-.57c0-.38.09-.71.28-.99s.4-.48.65-.61c.24-.12.51-.18.8-.18.23,0,.46.04.68.12.24.09.43.2.56.35.08.09.14.21.16.35.03.2.09.27.12.3l.19.06c.09,0,.16-.03.22-.09.04-.05.08-.14.08-.36v-.75c0-.21-.04-.31-.08-.35-.06-.06-.13-.08-.22-.08l-.14.03-.13.13-.08.11-.12-.08c-.18-.11-.37-.19-.58-.25s-.45-.08-.69-.08c-.4,0-.79.1-1.15.3s-.64.49-.84.86c-.21.37-.31.77-.31,1.2v.59c0,.41.11.78.33,1.13.23.35.5.6.82.76.4.2.86.31,1.36.31.43,0,.83-.08,1.19-.23.25-.1.46-.24.63-.43.1-.11.15-.21.15-.29s-.04-.15-.1-.22c-.07-.06-.13-.09-.21-.09" style="fill:#9fd1ce;"/><path d="M254.04,54.06c.24,0,.34-.04.37-.08.06-.05.09-.12.09-.21s-.03-.16-.09-.21c-.04-.04-.14-.09-.37-.09h-2.68c-.24,0-.33.04-.38.09-.06.05-.09.12-.09.21s.03.16.09.21c.05.04.15.08.38.08h1.04v3.71h-1.04c-.24,0-.33.04-.38.08-.06.05-.09.12-.09.21s.03.16.09.21c.05.05.15.08.38.08h2.68c.24,0,.34-.04.37-.08.06-.06.09-.12.09-.21s-.03-.16-.09-.21c-.04-.04-.14-.08-.37-.08h-1.04v-3.71h1.04" style="fill:#9fd1ce;"/><path d="M274.08,54.59c-.15,0-.29.16-.37.39h0l.15-.05c.17,0,.31.21.31.46s-.14.46-.31.46l-.15-.07h0c.08.25.22.41.37.41.23,0,.43-.38.43-.81s-.2-.8-.43-.8" style="fill:#9fd1ce;"/><path d="M275.63,54.59c-.15,0-.29.16-.37.4h0l.15-.06c.17,0,.31.21.31.46s-.14.46-.31.46l-.15-.07h0c.08.25.21.41.37.41.23,0,.43-.38.43-.81s-.2-.8-.43-.8" style="fill:#9fd1ce;"/><path d="M254.04,57.48c.26,0,.45.05.56.16.13.1.18.24.18.42s-.05.31-.18.42c-.11.1-.3.15-.56.15h-2.68c-.27,0-.45-.05-.57-.15-.12-.11-.18-.25-.18-.42,0-.18.06-.32.18-.42.12-.11.31-.16.57-.16h.75v-3.15h-.75c-.27,0-.45-.05-.57-.15-.12-.1-.18-.25-.18-.42s.06-.31.18-.42c.12-.11.31-.16.57-.16h2.68c.26,0,.45.05.56.16.13.1.18.24.18.42s-.05.31-.18.42c-.11.11-.3.15-.56.15h-.76v3.15h.76" style="fill:#faf4b0;"/><path d="M259.82,58.02c-.19.21-.44.38-.74.5-.39.16-.82.24-1.29.24-.55,0-1.05-.12-1.49-.33-.36-.18-.68-.47-.93-.86-.25-.38-.39-.81-.39-1.27v-.59c0-.47.12-.92.35-1.34.22-.41.54-.74.95-.97.4-.22.83-.33,1.29-.33.27,0,.52.03.76.09.2.05.39.14.57.23l.13-.11c.09-.06.18-.07.28-.07.18,0,.32.06.42.18.11.12.16.29.16.54v.75c0,.25-.05.42-.16.54s-.25.18-.42.18c-.16,0-.29-.04-.38-.14-.09-.09-.16-.23-.21-.44-.01-.1-.04-.17-.09-.22-.1-.11-.24-.2-.44-.27-.2-.07-.39-.11-.59-.11-.24,0-.47.05-.67.15-.2.1-.38.26-.54.51-.15.23-.23.51-.23.83v.57c0,.38.14.7.41.95.28.26.68.39,1.2.39.31,0,.58-.04.79-.12.12-.04.24-.14.38-.27.1-.11.18-.16.25-.2s.16-.05.24-.05c.16,0,.29.06.41.17.11.12.18.26.18.41s-.07.31-.21.47" style="fill:#faf4b0;"/><path d="M264.67,57.85c-.5.52-1.09.78-1.75.78-.6,0-1.13-.22-1.61-.65-.59-.53-.89-1.22-.89-2.07s.3-1.53.89-2.07c.48-.43,1.01-.65,1.61-.65.66,0,1.25.26,1.75.78.51.52.76,1.17.76,1.94s-.25,1.42-.76,1.94" style="fill:#fff;"/><path d="M270.72,57.93c-.18.2-.41.35-.68.47-.38.15-.79.23-1.24.23-.53,0-1-.11-1.43-.32-.34-.18-.63-.45-.86-.81-.24-.37-.37-.77-.37-1.2v-.59c0-.45.11-.88.32-1.27.22-.39.52-.7.9-.91.38-.22.79-.32,1.22-.32.26,0,.5.03.72.09.23.06.44.15.63.27l.18-.17c.06-.03.13-.05.21-.05.13,0,.23.04.32.13.08.09.12.24.12.45v.75c0,.21-.05.36-.12.45-.08.09-.19.14-.32.14s-.21-.03-.28-.1c-.07-.07-.12-.18-.16-.37-.02-.12-.06-.21-.12-.28-.12-.13-.29-.24-.5-.31-.21-.08-.42-.12-.64-.12-.27,0-.51.06-.73.17s-.43.3-.6.56c-.18.25-.26.56-.26.91v.57c0,.42.15.77.46,1.05.32.28.75.42,1.3.42.33,0,.61-.04.84-.13.13-.06.28-.15.43-.3.09-.09.16-.15.21-.17l.18-.04c.12,0,.23.05.31.13.09.08.13.19.13.31,0,.11-.06.24-.18.38" style="fill:#fff;"/><path d="M277.05,58.37c-.09.08-.24.12-.47.12h-1.17c-.22,0-.37-.04-.47-.12-.08-.09-.14-.18-.14-.32s.06-.24.14-.32c.1-.08.25-.12.47-.12h.21l-.23-.54h-2.16l-.22.54h.22c.22,0,.38.04.47.12s.14.18.14.32-.05.23-.14.32c-.09.08-.25.12-.47.12h-1.17c-.23,0-.39-.04-.48-.12-.09-.09-.14-.18-.14-.32s.04-.24.14-.32c.09-.08.25-.12.48-.12l1.41-3.43h-.58c-.23,0-.38-.04-.48-.12-.09-.08-.13-.19-.13-.31,0-.13.05-.24.13-.32.09-.08.25-.12.48-.12h1.9l.49,1.17c.1-.1.22-.15.35-.15.38,0,.67.46.67,1.04,0,.37-.11.68-.3.87l.57,1.37c.23,0,.36.02.42.08.13.1.19.23.19.36s-.05.23-.14.32" style="fill:#fff;"/><path d="M262.92,54.07c-.41,0-.79.17-1.11.53-.33.35-.5.79-.5,1.32s.17.97.5,1.32c.33.35.7.52,1.11.52s.79-.17,1.12-.52.49-.78.49-1.32-.16-.97-.49-1.32c-.32-.35-.7-.52-1.12-.52" style="fill:#22a4db;"/><path d="M259.45,57.25l-.11.02s-.07.05-.18.15c-.17.17-.31.28-.47.33-.25.09-.55.14-.9.14-.59,0-1.06-.15-1.4-.46s-.51-.7-.51-1.16v-.57c0-.38.09-.71.28-.99s.4-.48.65-.61c.24-.12.51-.18.8-.18.23,0,.46.04.68.12.24.09.43.2.56.35.08.09.14.21.16.35.03.2.09.27.12.3l.19.06c.09,0,.16-.03.22-.09.04-.05.08-.14.08-.36v-.75c0-.21-.04-.31-.08-.35-.06-.06-.13-.08-.22-.08l-.14.03-.13.13-.08.11-.12-.08c-.18-.11-.37-.19-.58-.25s-.45-.08-.69-.08c-.4,0-.79.1-1.15.3s-.64.49-.84.86c-.21.37-.31.77-.31,1.2v.59c0,.41.11.78.33,1.13.23.35.5.6.82.76.4.2.86.31,1.36.31.43,0,.83-.08,1.19-.23.25-.1.46-.24.63-.43.1-.11.15-.21.15-.29s-.04-.15-.1-.22c-.07-.06-.13-.09-.21-.09" style="fill:#22a4db;"/><path d="M254.04,54.06c.24,0,.34-.04.37-.08.06-.05.09-.12.09-.21s-.03-.16-.09-.21c-.04-.04-.14-.09-.37-.09h-2.68c-.24,0-.33.04-.38.09-.06.05-.09.12-.09.21s.03.16.09.21c.05.04.15.08.38.08h1.04v3.71h-1.04c-.24,0-.33.04-.38.08-.06.05-.09.12-.09.21s.03.16.09.21c.05.05.15.08.38.08h2.68c.24,0,.34-.04.37-.08.06-.06.09-.12.09-.21s-.03-.16-.09-.21c-.04-.04-.14-.08-.37-.08h-1.04v-3.71h1.04" style="fill:#22a4db;"/><path d="M274.08,54.59c-.15,0-.29.16-.37.39h0l.15-.05c.17,0,.31.21.31.46s-.14.46-.31.46l-.15-.07h0c.08.25.22.41.37.41.23,0,.43-.38.43-.81s-.2-.8-.43-.8" style="fill:#22a4db;"/><path d="M275.63,54.59c-.15,0-.29.16-.37.4h0l.15-.06c.17,0,.31.21.31.46s-.14.46-.31.46l-.15-.07h0c.08.25.21.41.37.41.23,0,.43-.38.43-.81s-.2-.8-.43-.8" style="fill:#22a4db;"/><path d="M254.04,57.48c.26,0,.45.05.56.16.13.1.18.24.18.42s-.05.31-.18.42c-.12.1-.3.16-.56.16h-2.68c-.27,0-.45-.05-.57-.16-.12-.11-.18-.25-.18-.42s.07-.32.18-.42c.12-.11.31-.16.57-.16h.75v-3.15h-.75c-.27,0-.45-.05-.57-.15-.12-.1-.18-.25-.18-.42s.07-.31.18-.42c.12-.11.31-.16.57-.16h2.68c.26,0,.45.05.56.16.13.1.18.24.18.42s-.05.31-.18.42c-.12.11-.3.15-.56.15h-.76v3.15h.76M259.82,58.02c-.19.21-.44.38-.74.5-.39.16-.82.24-1.29.24-.55,0-1.05-.12-1.49-.33-.36-.18-.68-.47-.93-.86-.25-.38-.39-.81-.39-1.27v-.59c0-.47.12-.92.35-1.34.22-.41.54-.74.95-.97.4-.22.83-.33,1.29-.33.27,0,.52.03.76.09.2.05.39.14.57.23l.13-.11c.09-.06.18-.07.28-.07.18,0,.32.06.42.18.11.12.16.29.16.54v.75c0,.25-.05.42-.16.54s-.25.18-.42.18c-.16,0-.29-.04-.38-.14-.09-.09-.16-.23-.21-.44-.01-.1-.04-.17-.09-.22-.1-.11-.24-.2-.44-.27-.2-.07-.39-.11-.59-.11-.24,0-.47.05-.67.15-.2.1-.38.27-.54.51-.15.23-.22.51-.22.83v.57c0,.38.13.7.41.95s.68.39,1.2.39c.31,0,.58-.04.79-.12.12-.04.24-.14.38-.27.1-.11.18-.16.25-.2s.16-.05.24-.05c.16,0,.29.06.41.17.11.12.18.26.18.41s-.07.31-.21.47M264.67,57.85c-.5.52-1.09.78-1.75.78-.6,0-1.13-.22-1.61-.65-.59-.53-.89-1.22-.89-2.07s.3-1.53.89-2.07c.48-.43,1.01-.65,1.61-.65.66,0,1.25.26,1.75.78.51.52.76,1.17.76,1.94s-.25,1.42-.76,1.94M270.72,57.93c-.18.2-.41.35-.68.47-.37.15-.79.23-1.24.23-.53,0-1-.11-1.43-.32-.34-.18-.63-.45-.86-.81-.24-.37-.37-.77-.37-1.2v-.59c0-.45.11-.88.33-1.27s.52-.7.9-.91c.38-.22.79-.32,1.22-.32.26,0,.5.03.72.09.23.06.44.15.63.27l.18-.17c.06-.03.13-.05.21-.05.13,0,.23.04.32.13.08.09.12.24.12.45v.75c0,.21-.05.36-.12.45-.08.09-.19.14-.32.14-.12,0-.21-.03-.28-.1-.07-.07-.12-.18-.16-.37-.02-.12-.06-.21-.12-.28-.12-.13-.29-.24-.5-.31-.21-.08-.42-.12-.64-.12-.27,0-.51.06-.73.17s-.43.3-.6.56c-.18.25-.26.56-.26.91v.57c0,.42.15.77.46,1.05.32.28.75.42,1.3.42.33,0,.61-.04.84-.13.13-.06.28-.15.43-.3.09-.09.16-.15.21-.17l.18-.04c.12,0,.23.05.31.14.09.08.13.19.13.31,0,.11-.06.24-.18.38M277.05,58.37c-.09.08-.24.12-.47.12h-1.17c-.22,0-.37-.04-.47-.12-.08-.09-.14-.18-.14-.32s.05-.24.14-.32c.1-.08.25-.12.47-.12h.21l-.23-.54h-2.16l-.22.54h.22c.22,0,.38.04.47.12s.14.18.14.32-.05.23-.14.32c-.09.08-.25.12-.47.12h-1.17c-.23,0-.39-.04-.48-.12-.09-.09-.14-.18-.14-.32s.04-.24.14-.32c.09-.08.25-.12.48-.12l1.4-3.43h-.58c-.23,0-.38-.04-.48-.12-.09-.08-.13-.19-.13-.31,0-.13.05-.24.13-.32.09-.08.25-.12.48-.12h1.9l.49,1.17c.1-.1.22-.15.35-.15.38,0,.67.46.67,1.04,0,.37-.11.68-.3.87l.57,1.37c.23,0,.36.02.42.08.13.1.19.23.19.36s-.05.23-.14.32M279.28,45.91h-22.7c-.44,0-1.06.25-1.37.56l-7.56,7.71c-.31.32-.56.93-.56,1.37v9.48c0,.44.37.79.81.79h25.53c.45,0,1.06-.26,1.37-.57l4.73-4.88c.31-.32.55-.94.55-1.37v-12.31c0-.44-.36-.79-.8-.79" style="fill:#22a4db;"/></g><g id="d"><path d="M12.89,54.35l13.22-13.22c.84-.84,2.19-.84,3.04,0l13.22,13.22c.84.84.84,2.19,0,3.04l-13.22,13.22c-.84.84-2.19.84-3.04,0l-13.22-13.22c-.84-.84-.84-2.19,0-3.04Z" style="fill:#a4c41e;"/><path d="M17.55,55.79c0,5.59,4.54,10.12,10.12,10.12s10.12-4.54,10.12-10.12-4.54-10.12-10.12-10.12-10.12,4.53-10.12,10.12Z" style="fill:#fff; stroke:#231815; stroke-width:.02px;"/><path d="M18.59,55.79c0-5.01,4.07-9.07,9.07-9.07s9.07,4.07,9.07,9.07-4.07,9.07-9.07,9.07-9.07-4.07-9.07-9.07Z" style="fill:#a4c41e; stroke:#231815; stroke-width:.02px;"/><path d="M36.74,55.68v.1c0,.42-.03.83-.09,1.24l1.04.14c.06-.45.1-.91.1-1.37v-.12h-1.05v.02ZM36.38,53.24c.12.39.2.79.27,1.2l1.04-.15c-.06-.46-.16-.91-.29-1.34l-1.01.29h-.01ZM35.38,51c.21.34.41.71.58,1.08l.96-.43c-.19-.42-.41-.83-.64-1.21l-.89.56ZM33.8,49.1c.3.28.59.58.85.89l.81-.68c-.29-.35-.61-.69-.96-1l-.71.77h.01ZM31.77,47.7c.37.18.72.4,1.06.63l.6-.86c-.38-.26-.77-.49-1.18-.71l-.47.93h-.01ZM29.44,46.89c.41.09.81.19,1.19.32l.34-.99c-.43-.15-.88-.27-1.33-.37,0,0-.2,1.03-.2,1.03ZM26.98,46.74c.23-.02.46-.02.7-.02.18,0,.37,0,.54.01l.06-1.05c-.2-.01-.4-.02-.6-.02-.26,0-.52,0-.77.03l.08,1.05h0ZM24.56,47.26c.39-.14.78-.26,1.18-.34l-.23-1.03c-.45.1-.89.23-1.32.39l.35.99h.01ZM22.39,48.42c.33-.24.69-.46,1.05-.66l-.49-.93c-.41.21-.79.46-1.17.73l.61.85h0ZM20.6,50.12c.26-.32.54-.62.84-.91l-.72-.76c-.33.31-.64.66-.93,1.01l.82.66h0ZM19.33,52.22c.16-.38.35-.75.56-1.1l-.9-.54c-.24.4-.45.81-.62,1.22l.97.41ZM18.68,54.61c.05-.41.14-.82.25-1.21l-1.01-.28c-.12.44-.21.89-.27,1.35l1.04.14h-.01ZM18.69,57.06c-.05-.4-.09-.82-.09-1.24h-1.05c0,.47.03.93.1,1.39,0,0,1.04-.15,1.04-.15ZM19.36,59.44c-.16-.38-.3-.76-.42-1.16l-1.01.29c.13.45.28.88.47,1.3l.97-.42h-.01ZM20.66,61.54c-.26-.32-.5-.66-.72-1.01l-.89.55c.24.4.5.76.81,1.12l.82-.67h-.01ZM22.47,63.22c-.33-.24-.66-.49-.97-.77l-.72.77c.33.31.7.6,1.07.87l.6-.86h.01ZM24.66,64.35c-.39-.14-.77-.3-1.14-.49l-.48.93c.41.2.83.4,1.27.55l.34-.99h.01ZM27.08,64.84c-.42-.02-.83-.09-1.22-.16l-.21,1.03c.44.09.9.15,1.36.18l.06-1.05h.01ZM29.54,64.66c-.4.09-.81.14-1.22.17l.08,1.05c.46-.03.92-.1,1.36-.19,0,0-.21-1.03-.21-1.03ZM31.86,63.83c-.37.19-.74.35-1.13.49l.35.99c.44-.16.86-.34,1.27-.55l-.48-.93h-.01ZM33.88,62.4c-.3.28-.62.55-.96.78l.61.86c.38-.27.73-.56,1.06-.87l-.72-.76h0ZM35.43,60.49c-.21.35-.45.69-.71,1.01l.82.67c.29-.35.56-.73.79-1.13,0,0-.9-.55-.9-.55ZM36.41,58.22c-.11.4-.25.78-.41,1.16l.97.42c.18-.42.33-.85.46-1.3l-1.01-.28h-.01Z" style="fill:#231815;"/><polygon points="17.13 51.16 20.23 52.41 20.36 58.62 16.59 60.02 17.13 51.16" style="fill:#a4c41e;"/><polygon points="38.47 50.86 35.3 52.18 35.12 58.59 39 60.05 38.47 50.86" style="fill:#a4c41e;"/><path d="M21.81,55.1s-.03.06-.06.06h-.58s-.06-.03-.06-.06v-.42s.03-.06.06-.06h.58s.06.03.06.06v.42M21.81,57.7s-.03.06-.06.06h-.58s-.06-.03-.06-.06v-2.23s.03-.06.06-.06h.58s.06.03.06.06v2.23Z" style="fill:#231815;"/><path d="M35.16,57.7s-.03.06-.06.06h-1.79s-.57-.06-.79-.21-.34-.33-.34-.57v-.82s0-.1.02-.13c0,0,.1-.35.31-.5s.49-.21.83-.21h1.78s.06.03.06.06v.33s-.03.06-.06.06h-1.69s-.24.03-.35.11c-.11.08-.16.17-.16.29v.66s0,.1.02.13c0,0,.04.15.15.23.11.08.26.12.43.12h1.62s.06.03.06.06v.33" style="fill:#231815;"/><path d="M25.97,55.73s-.03.06-.06.06h-.77s-.06.03-.06.06v1.84s-.03.06-.06.06h-.59s-.06-.03-.06-.06v-1.84s-.03-.06-.06-.06h-.79s-.06-.03-.06-.06v-.34s.03-.06.06-.06h.79s.06-.03.06-.06v-.74s.03-.06.06-.06h.59s.06.03.06.06v.74s.03.06.06.06h.77s.06.03.06.06v.34" style="fill:#fff;"/><path d="M30.64,57.05s0,.1-.02.13c0,0-.08.28-.26.4-.18.12-.42.18-.7.18h-1.43s-.43-.05-.6-.17c-.17-.12-.26-.27-.26-.46v-.14s0-.1.02-.13c0,0,.06-.28.24-.4s.4-.17.67-.17h1.56s.06-.03.06-.06v-.15s0-.1-.01-.13c0,0-.02-.08-.09-.12-.06-.05-.15-.08-.26-.08h-1.97s-.06-.03-.06-.06v-.3s.03-.06.06-.06h2.18s.43.05.6.17.26.27.26.46v1.11M29.93,57.08v-.33s-.03-.06-.06-.06h-1.47s-.13.02-.2.06c-.08.05-.12.12-.12.19v.06s0,.1.02.13c0,0,.02.08.09.12.08.05.16.08.28.08h1.18s.12-.02.19-.06c.08-.05.11-.11.11-.18h-.01Z" style="fill:#fff;"/><path d="M39.9,57.05s0,.1-.02.13c0,0-.08.28-.26.4-.18.12-.42.18-.7.18h-1.43s-.43-.05-.6-.17c-.17-.12-.26-.27-.26-.46v-.14s0-.1.02-.13c0,0,.06-.28.24-.4s.4-.17.67-.17h1.56s.06-.03.06-.06v-.15s0-.1-.01-.13c0,0-.02-.08-.09-.12-.06-.05-.15-.08-.27-.08h-1.97s-.06-.03-.06-.06v-.3s.03-.06.06-.06h2.18s.43.05.6.17.26.27.26.46v1.11M39.18,57.08v-.33s-.03-.06-.06-.06h-1.47s-.13.02-.2.06c-.08.05-.12.12-.12.19v.06s0,.1.02.13c0,0,.02.08.09.12.08.05.16.08.28.08h1.18s.12-.02.19-.06c.08-.05.11-.11.11-.18h-.01Z" style="fill:#fff;"/><path d="M16.56,57.68s-.03.06-.06.06h-.62s-.06-.03-.06-.08v-3.97s.03-.06.06-.06h.62s.06.03.06.06v3.98" style="fill:#fff;"/><path d="M17.15,55.4s-.06.06-.1.1l-.16.16s-.02.06,0,.1l2.11,2.11s.06.02.1,0l.42-.42s.02-.06,0-.1l-1.59-1.59s-.02-.06,0-.1l1.56-1.56s.02-.06,0-.1l-.42-.42s-.06-.02-.1,0l-1.8,1.8" style="fill:#fff;"/></g><g id="e"><path d="M342.86,54.26c0-.18.04-.28.12-.31.08-.04.17-.06.25-.06h1.17l.18.07.07.18v.04l.09.09.06-.02.06-.05c.09-.08.23-.17.4-.27.18-.1.53-.15.86-.15.2,0,.41.04.61.1.2.06.38.18.54.33.16.16.29.35.39.6s.15.56.15.93v4.51c0,.18-.04.29-.12.31-.08.04-.17.06-.25.06h-1.05c-.18,0-.29-.04-.32-.12s-.06-.17-.06-.25v-4.13c0-.18-.06-.32-.17-.44-.11-.12-.3-.18-.49-.18-.17,0-.36.04-.44.11-.08.07-.16.17-.19.27s-.06.2-.06.31v4.06c0,.18-.04.29-.12.31-.07.04-.16.06-.25.06h-1.05c-.18,0-.29-.04-.31-.12-.04-.08-.06-.17-.06-.25v-6.01" style="fill:#21aede;"/><path d="M351.67,60.27c0,.18-.04.29-.12.31-.07.04-.17.06-.25.06h-1.05c-.18,0-.28-.04-.31-.12s-.06-.17-.06-.25v-6.01c0-.18.04-.29.12-.31.08-.04.17-.06.25-.06h1.05c.08,0,.18.02.25.06.08.04.12.14.12.31v6" style="fill:#21aede;"/><path d="M353.74,54.26c0-.18.04-.28.12-.31s.17-.06.25-.06h1.17l.18.07.07.18v.04l.08.09.07-.02.06-.05c.1-.07.23-.16.41-.26s.42-.16.75-.16c.27,0,.5.05.68.15.18.09.35.21.5.34.08.07.14.11.19.13.05,0,.13-.03.26-.13.15-.11.33-.22.54-.33.21-.11.51-.16.89-.16.2,0,.4.04.6.1s.39.18.54.33c.16.16.29.35.39.6s.15.56.15.93v4.51c0,.18-.04.29-.12.31-.08.04-.17.06-.25.06h-1.05c-.09,0-.18-.02-.25-.06s-.12-.14-.12-.31v-4.13c0-.18-.06-.32-.17-.44s-.26-.18-.45-.18c-.17,0-.3.04-.38.11s-.15.17-.19.27c-.04.1-.06.2-.06.31v4.06c0,.18-.04.29-.12.31-.08.04-.17.06-.25.06h-1.05c-.18,0-.28-.04-.31-.12s-.06-.17-.06-.25v-4.13c0-.18-.06-.32-.17-.44s-.26-.18-.45-.18c-.17,0-.3.04-.38.11-.09.07-.15.17-.19.27-.04.1-.06.2-.06.31v4.06c0,.18-.04.29-.12.31-.08.04-.16.06-.25.06h-1.05c-.18,0-.29-.04-.31-.12-.04-.08-.06-.17-.06-.25v-6.02" style="fill:#21aede;"/><path d="M363.42,56.44c0-.25.03-.53.08-.83s.17-.6.33-.87c.18-.27.42-.5.75-.67.33-.18.78-.27,1.34-.27s1.01.09,1.34.27.58.41.75.67c.18.28.28.56.33.87.06.3.08.58.08.83v1.65c0,.26-.03.54-.08.84s-.17.59-.33.86c-.18.28-.42.5-.75.68-.33.18-.78.27-1.34.27s-1.01-.09-1.34-.27-.58-.41-.75-.68c-.17-.27-.29-.56-.33-.86-.06-.3-.08-.58-.08-.84v-1.65M365.21,58.39c0,.18.02.32.06.42.05.11.1.2.17.27s.14.11.23.14.18.04.25.04.17,0,.25-.04.17-.07.23-.14.12-.16.17-.27c.05-.11.06-.25.06-.42v-2.26c0-.18-.02-.32-.06-.42-.05-.11-.1-.19-.17-.26s-.14-.11-.23-.14-.18-.04-.25-.04-.17.02-.25.04c-.09.03-.17.07-.23.14s-.12.16-.17.26c-.05.11-.06.25-.06.42v2.26Z" style="fill:#21aede;"/><path d="M371.63,57.95c0,.1,0,.21.02.33,0,.13.06.25.12.37.06.12.17.21.3.3.13.07.32.12.57.12.06,0,.12,0,.21,0,.08,0,.21-.03.38-.06.12-.02.21-.04.27-.06l.19-.03c.11,0,.18.03.2.1l.04.17v1.05l-.02.17c0,.06-.06.11-.16.17-.08.06-.23.09-.42.13-.19.03-.47.05-.83.05-.67,0-1.19-.1-1.56-.29-.36-.19-.63-.43-.79-.71s-.26-.57-.29-.89c-.03-.3-.04-.57-.04-.8v-1.68c0-.3.03-.6.07-.91.06-.3.17-.58.35-.83.18-.25.44-.44.79-.61.35-.16.83-.24,1.44-.24.36,0,.64.02.83.05.19.03.33.07.42.13.08.06.14.11.16.17l.02.17v1.05l-.04.17c-.02.06-.09.1-.2.1s-.19,0-.27-.02c-.07,0-.15-.03-.22-.06-.07-.03-.16-.04-.24-.06-.08,0-.19-.02-.31-.02-.23,0-.41.04-.54.1-.13.07-.23.16-.3.27s-.11.23-.13.36c-.02.13-.03.26-.03.38v1.36" style="fill:#21aede;"/><path d="M380.03,60.18v.16l-.04.15-.12.11c-.06.03-.13.05-.24.05h-1.11c-.11,0-.18-.02-.21-.05l-.04-.1v-.11l-.11-.05-.12.06c-.12.11-.29.19-.49.25-.2.06-.4.09-.59.09-.24,0-.46-.05-.68-.14-.21-.09-.41-.23-.57-.42-.17-.18-.3-.42-.4-.72-.09-.29-.15-.43-.15-.83,0-.68.35-1.38.88-1.8.5-.41,1.11-.66,1.72-.89l.33-.12c.09-.04.13-.1.13-.21,0-.19-.09-.32-.28-.39s-.38-.1-.56-.1c-.16,0-.31,0-.45.04-.15.02-.3.06-.44.1-.18.05-.3.08-.4.13-.08.04-.17.06-.24.06-.08,0-.14-.03-.18-.07l-.06-.17v-.81c0-.06.02-.12.05-.19.03-.08.11-.16.24-.23s.32-.14.58-.19c.26-.06.61-.08,1.06-.08.56,0,1.01.06,1.34.19s.58.3.75.49c.17.2.28.42.32.67s.07.49.07.72v4.4M378.24,57.47l-.06-.08-.12.02-.22.15c-.22.14-.32.23-.51.41-.18.18-.31.43-.27.69.06.28.29.5.57.5.18,0,.32-.05.43-.15.11-.09.18,0,.18-.14v-1.39h0Z" style="fill:#21aede;"/><path d="M351.62,51.84c0,.46-.38.84-.84.84s-.84-.38-.84-.84.38-.84.84-.84.84.38.84.84" style="fill:#21aede;"/></g><g id="f"><path d="M136.97,64.28c0,1.06-.86,1.91-1.91,1.91h-30.62c-1.06,0-1.91-.86-1.91-1.91v-16.82c0-1.05.86-1.91,1.91-1.91h30.62c1.06,0,1.91.86,1.91,1.91v16.82" style="fill:#dd6a9c;"/><path d="M108.98,55.06c0,.45-.33.92-.93.92s-.93-.47-.93-.92.33-.92.93-.92.93.47.93.92M107.09,58.24v-1.07c0-.11.05-.14.15-.11.22.06.41.12.82.12,1.38,0,2.3-1,2.3-2.13s-.92-2.13-2.3-2.13-2.3,1-2.3,2.13v3.19h1.33Z" style="fill:#fff;"/><path d="M114.45,55.22c0,.09-.05.14-.14.14h-1.53c-.09,0-.14-.05-.14-.14v-.22c0-.43.32-.89.9-.89s.91.46.91.89v.22M112.65,58.24v-1.65c0-.09.05-.13.14-.13h1.53c.09,0,.14.05.14.13v1.65h1.32v-3.26c0-1.09-.89-2.05-2.23-2.05s-2.23.97-2.23,2.05v3.26h1.33Z" style="fill:#fff;"/><path d="M121.05,53.87s-.07-.1-.16-.2c-.42-.47-1.1-.74-1.78-.74-1.41,0-2.09.81-2.09,1.55,0,.89.74,1.5,2.08,1.57,0,0,.92-.02.92.56,0,.33-.26.68-.91.68-.46,0-.9-.27-1.16-.54h0s-.1-.12-.14-.2l-.94.58.12.2c.39.51,1.11,1.04,2.12,1.04,1.41,0,2.23-.77,2.23-1.75,0-1.09-1.03-1.58-2.22-1.62,0,0-.82,0-.82-.51,0-.18.19-.5.8-.5.25,0,.56.1.83.34.11.09.14.14.17.17l.95-.62" style="fill:#fff;"/><path d="M132.48,56.29c0,.43-.32.89-.91.89s-.9-.46-.9-.89v-1.3c0-.43.32-.89.9-.89s.91.46.91.89v1.3M133.8,56.29v-1.3c0-1.1-.89-2.07-2.23-2.07s-2.23.97-2.23,2.07v1.3c0,1.1.89,2.07,2.23,2.07s2.23-.97,2.23-2.07" style="fill:#fff;"/><path d="M126.53,52.93c-.49,0-.97.17-1.18.46-.21-.3-.69-.46-1.18-.46-1.1,0-1.82.73-1.82,1.6v3.71h1.33v-3.71c0-.27.23-.44.5-.44s.5.17.5.44v2.33h1.33v-2.33c0-.27.23-.44.5-.44s.5.17.5.44v3.71h1.33v-3.71c0-.87-.73-1.6-1.82-1.6" style="fill:#fff;"/></g><g id="g"><path d="M311.56,47.79c1.29-.02,2.32.2,3.22.58.26.1.51.2.74.33.27.16.56.3.81.48.12.09.26.25.43.28.15.04.35-.15.43-.21.33-.22.7-.42,1.09-.58.51-.23,1.07-.38,1.67-.51.25-.06.48-.06.75-.09.32-.06.84-.08,1.18-.02.26.04.5.02.75.08.47.09.94.17,1.34.33,2.28.89,3.82,2.31,4.74,4.55.18.43.3.92.42,1.43.03.19.06.38.08.58.04.24.09.66.05.91v.27c-.02.21-.03.41-.05.61-.09.51-.16.98-.31,1.44-.32,1.02-.83,1.86-1.42,2.61-.2.26-.44.53-.69.73-.26.2-.47.43-.74.62-.85.6-1.8,1.04-2.97,1.33-.95.24-2.36.24-3.32,0-.81-.21-1.55-.45-2.19-.83-.18-.11-.36-.22-.54-.33-.06-.04-.14-.12-.26-.09-.14.04-.26.17-.36.25-.24.15-.47.29-.71.44-.63.37-1.36.6-2.16.81-.25.06-.49.08-.76.12-.24.04-.49,0-.75.06h-.6c-.36-.06-.7-.05-1.03-.11-.89-.2-1.7-.43-2.39-.82-.3-.18-.6-.35-.88-.54-.09-.06-.21-.22-.37-.18-.13.03-.26.15-.36.22-.17.1-.34.2-.52.3-.59.34-1.28.55-2.01.74-1.12.27-2.69.2-3.71-.1-2.35-.71-3.75-1.96-4.88-3.89-.34-.58-.55-1.27-.73-1.99-.39-1.52-.1-3.41.38-4.58.88-2.16,2.55-3.86,4.85-4.58.5-.16,1.02-.24,1.6-.34.22-.04.43,0,.67-.04h.32c.13,0,.26,0,.4,0,.28.05.56.05.83.1.76.17,1.4.38,2.02.66.26.11.51.26.74.41.12.08.26.22.4.25.16.04.27-.11.35-.17.26-.18.53-.34.8-.51.7-.41,1.5-.66,2.41-.86.27-.04.54-.08.81-.1.14,0,.28-.02.43-.03" style="fill:#dd6992; fill-rule:evenodd;"/><polygon points="301.21 57.06 301.21 55.78 301.21 55.53 301.19 55.44 301.13 55.43 301 55.43 300.51 55.43 299.07 55.43 298.65 55.43 298.47 55.43 298.37 55.34 298.28 55.25 298.23 55.2 298.21 55.07 298.21 55.01 298.21 54.89 298.22 54.8 298.28 54.72 298.39 54.6 298.47 54.54 298.58 54.53 298.82 54.53 299.62 54.53 300.08 54.53 300.23 54.5 300.23 54.44 300.23 54.29 300.23 53.83 300.23 53.69 300.21 53.62 300.15 53.61 300.01 53.61 299.45 53.61 297.33 53.61 297.29 53.63 297.29 53.78 297.29 54.19 297.29 55.69 297.29 56.17 297.3 56.34 297.36 56.34 297.48 56.34 297.95 56.34 299.55 56.34 299.86 56.34 300 56.34 300.02 56.35 300.11 56.41 300.21 56.52 300.29 56.63 300.29 56.68 300.28 56.99 300.19 57.1 300.1 57.2 300.03 57.24 299.95 57.25 299.82 57.25 299.33 57.25 297.85 57.25 297.45 57.25 297.3 57.26 297.29 57.33 297.29 57.47 297.29 58.13 297.3 58.16 297.37 58.17 297.5 58.17 298.17 58.17 300.4 58.17 300.98 58.17 301.13 58.17 301.2 58.16 301.21 58.08 301.21 57.89 301.21 57.06" style="fill:#231815; fill-rule:evenodd;"/><polygon points="306.23 57.29 306.23 54.61 306.23 53.86 306.23 53.7 306.21 53.63 306.19 53.61 305.52 53.61 305.38 53.61 305.32 53.63 305.32 53.7 305.32 53.86 305.32 54.48 305.32 56.21 305.32 56.73 305.32 56.86 305.31 56.93 305.31 56.99 305.25 57.06 305.13 57.19 305.04 57.24 304.96 57.25 304.78 57.25 304.2 57.25 303.7 57.25 303.57 57.25 303.48 57.24 303.41 57.18 303.29 57.06 303.23 56.99 303.23 56.93 303.23 56.88 303.23 56.8 303.23 56.39 303.23 54.4 303.23 53.84 303.23 53.7 303.22 53.63 303.16 53.61 303 53.61 302.35 53.61 302.32 53.63 302.31 53.77 302.31 54.14 302.31 55.73 302.31 57.51 302.31 57.98 302.31 58.09 302.32 58.15 302.39 58.17 302.54 58.17 303.19 58.17 305.42 58.17 306.01 58.17 306.15 58.17 306.21 58.16 306.23 58.09 306.23 57.94 306.23 57.29" style="fill:#231815; fill-rule:evenodd;"/><polygon points="311.25 56.2 311.25 55.8 311.22 55.66 311.18 55.66 311.11 55.66 310.87 55.66 310.07 55.66 309.81 55.66 309.72 55.68 309.72 55.75 309.72 55.89 309.72 56.36 309.72 56.51 309.73 56.57 309.82 56.58 309.97 56.58 310.05 56.58 310.15 56.64 310.26 56.75 310.32 56.86 310.33 56.91 310.32 56.99 310.22 57.11 310.14 57.2 310.07 57.24 309.96 57.25 309.75 57.25 309.04 57.25 308.66 57.25 308.49 57.23 308.43 57.18 308.33 57.08 308.26 57 308.25 56.84 308.25 56.49 308.25 55.31 308.25 54.97 308.25 54.85 308.25 54.8 308.32 54.72 308.43 54.6 308.52 54.54 308.65 54.53 308.94 54.53 309.83 54.53 310.15 54.53 310.27 54.52 310.27 54.46 310.27 54.32 310.27 53.83 310.27 53.69 310.26 53.62 310.19 53.61 310.05 53.61 309.5 53.61 307.37 53.61 307.34 53.63 307.33 53.78 307.33 54.14 307.33 55.75 307.33 57.52 307.33 57.98 307.33 58.09 307.34 58.15 307.4 58.17 307.56 58.17 308.21 58.17 310.44 58.17 311.02 58.17 311.17 58.17 311.23 58.16 311.25 58.04 311.25 57.68 311.25 56.2" style="fill:#231815; fill-rule:evenodd;"/><polygon points="318.29 56.6 318.29 55.73 318.29 55.12 318.29 54.92 318.29 54.81 318.37 54.71 318.47 54.61 318.56 54.54 318.58 54.54 318.71 54.53 319.01 54.53 320.49 54.53 321.1 54.53 321.21 54.53 321.26 54.53 321.29 54.5 321.29 54.44 321.29 54.29 321.29 53.86 321.29 53.7 321.28 53.63 321.21 53.61 321.05 53.61 320.34 53.61 317.41 53.61 317.38 53.63 317.37 53.78 317.37 54.16 317.37 55.81 317.37 57.53 317.37 57.98 317.37 58.09 317.38 58.15 317.44 58.17 317.6 58.17 318.26 58.17 320.47 58.17 321.06 58.17 321.2 58.17 321.28 58.16 321.29 58.13 321.29 58.07 321.29 57.98 321.29 57.45 321.29 57.33 321.26 57.25 321.2 57.25 321.08 57.25 320.65 57.25 319.2 57.25 318.73 57.25 318.53 57.23 318.47 57.18 318.37 57.08 318.29 56.99 318.29 56.86 318.29 56.6" style="fill:#d4d2c3; fill-rule:evenodd;"/><path d="M326.3,58.09v-4.46h-.09s-3.8,0-3.8,0l-.02.08v4.45l.08.02h.82l.02-.07v-.49l.02-.17.06-.06.1-.09.09-.08h1.57l.08.07.11.11.07.08v.7h.07s.83,0,.83,0l.02-.08M325.4,54.97v.88c0,.09,0,.15-.03.2l-.14.14-.09.08h-1.56l-.09-.08-.1-.1-.06-.06-.02-.15v-1.1l.08-.09.09-.09.06-.06h.03l.02-.02h1.52l.09.08.1.1.06.06.02.2h.02Z" style="fill:#231815; fill-rule:evenodd;"/><polygon points="316.25 53.62 316.17 53.61 315.98 53.61 315.22 53.61 315.09 53.61 315.09 54.54 315.09 54.54 315.1 54.55 315.17 54.61 315.32 54.77 315.35 54.97 315.35 55.41 315.35 56.52 315.35 56.84 315.34 57 315.28 57.08 315.17 57.18 315.11 57.23 315.1 57.24 315.09 57.24 315.09 58.17 315.1 58.17 315.45 58.17 316.03 58.17 316.18 58.17 316.25 58.16 316.27 58.09 316.27 57.92 316.27 57.19 316.27 54.49 316.27 53.84 316.27 53.69 316.25 53.62" style="fill:#d4d2c3;"/><polygon points="314.91 57.25 314.42 57.25 313.81 57.25 313.62 57.25 313.54 57.25 313.44 57.18 313.34 57.07 313.28 57.01 313.27 56.81 313.27 56.34 313.27 55.27 313.27 54.95 313.27 54.8 313.35 54.71 313.45 54.61 313.5 54.55 313.54 54.54 313.57 54.53 314.61 54.53 314.94 54.53 315.09 54.54 315.09 53.61 312.39 53.61 312.36 53.63 312.35 53.78 312.35 54.16 312.35 55.82 312.35 57.53 312.35 57.98 312.35 58.09 312.36 58.15 312.42 58.17 312.57 58.17 313.24 58.17 315.09 58.17 315.09 57.24 314.91 57.25" style="fill:#231815;"/></g><g id="h"><path d="M58.76,61.8c1.72,2.39,4.59,4.16,7.8,4.16h12.49c5.45,0,9.89-4.44,9.89-9.88,0-2.39-.85-4.58-2.26-6.29" style="fill:#231815;"/><path d="M78.87,46.42c-.19,0-.38,0-.57.02h-11.81c-5.12,0-9.22,4.14-9.22,9.25s4.1,9.26,9.22,9.26c.23,0,.46,0,.67-.03h11.69c5.14.04,9.31-4.15,9.31-9.24s-4.19-9.26-9.3-9.26" style="fill:#328b41;"/><path d="M66.7,65.55h12.17c5.46,0,9.9-4.44,9.9-9.87s-4.45-9.89-9.9-9.89l-.57.03h-11.8c-5.46,0-9.9,4.42-9.9,9.88s4.56,9.85,10.01,9.85h.09M57.86,55.7c0-4.76,3.87-8.63,8.63-8.63h11.83l.55-.02c4.76,0,8.63,3.86,8.63,8.62s-3.87,8.61-8.63,8.61h-11.71l-.66.04c-4.76,0-8.63-3.87-8.63-8.63" style="fill:#c7a97f;"/><polyline points="78.87 64.93 66.53 64.95 66.53 46.45 78.87 46.42" style="fill:#328b41;"/><path d="M69.65,55.68c0-5.11,4.14-9.24,9.26-9.24s9.26,4.15,9.26,9.24-4.15,9.25-9.26,9.25-9.26-4.15-9.26-9.25" style="fill:#328b41;"/><path d="M57.27,55.73c0-5.13,4.16-9.26,9.26-9.26s9.26,4.14,9.26,9.27-4.15,9.24-9.26,9.24-9.26-4.14-9.26-9.25" style="fill:#328b41;"/><path d="M66.53,46.45c-5.11,0-9.25,4.13-9.25,9.25s4.15,9.26,9.25,9.26,9.26-4.15,9.26-9.26-4.15-9.25-9.26-9.25" style="fill:#328b41;"/><path d="M66.53,46.45c-5.11,0-9.25,4.13-9.25,9.25s4.15,9.26,9.25,9.26,9.26-4.15,9.26-9.26-4.15-9.25-9.26-9.25M60.9,61.34c-1.51-1.51-2.33-3.52-2.33-5.65s.84-4.13,2.33-5.64c.73-.73,1.58-1.3,2.5-1.7-2.34,2.52-2.24,7.34-2.24,7.34,0,0-.1,4.83,2.24,7.33-.92-.4-1.77-.97-2.5-1.69M65.89,63.65c-.41-.15-.8-.47-1.19-.85-.66-.66-1.22-1.66-1.62-2.85-.43-1.28-.65-2.76-.65-4.25s.22-2.98.65-4.24c.4-1.21.96-2.21,1.62-2.87.38-.36.78-.69,1.19-.85,0,0,0,15.92,0,15.92ZM67.18,63.65h0v-15.92h0c.4.17.8.49,1.18.85.66.66,1.21,1.66,1.62,2.87.43,1.26.65,2.74.65,4.24s-.23,2.97-.65,4.25c-.4,1.19-.96,2.17-1.62,2.85-.38.38-.78.69-1.18.85M72.17,61.34c-.73.72-1.59,1.29-2.51,1.69,2.34-2.5,2.24-7.33,2.24-7.33,0,0,.1-4.82-2.24-7.34.92.4,1.77.97,2.51,1.7,1.51,1.52,2.33,3.5,2.33,5.64s-.83,4.14-2.33,5.65" style="fill:#231815;"/><rect x="66.18" y="52.83" width=".7" height="1.98" style="fill:#fff;"/><path d="M71.35,52.76c.12.63.21,1.3.25,1.98l-.71.04c-.04-.65-.11-1.27-.24-1.88l.69-.13" style="fill:#fff;"/><rect x="66.18" y="56.58" width=".7" height="1.99" style="fill:#fff;"/><path d="M71.35,58.65c.12-.65.21-1.31.25-2l-.71-.03c-.04.65-.11,1.27-.24,1.88l.69.14" style="fill:#fff;"/><path d="M63.19,49.06l.53.33c-.31.5-.59,1.07-.82,1.69l-.65-.24s.37-1.02.94-1.79" style="fill:#c7a97f;"/><path d="M63.55,47.25c-.63.21-1.23.48-1.79.86l.37.59c.52-.32,1.08-.59,1.66-.8l-.24-.65" style="fill:#c7a97f;"/><path d="M61.71,52.76c-.12.63-.2,1.3-.25,1.98l.7.04c.04-.65.11-1.27.24-1.88l-.69-.13" style="fill:#c7a97f;"/><path d="M60.2,49.37c-.48.47-.9,1.01-1.25,1.58l.6.37c.33-.51.71-1.01,1.16-1.45l-.49-.49" style="fill:#c7a97f;"/><path d="M58.06,52.75c-.22.63-.37,1.27-.44,1.96l.69.07c.08-.62.2-1.21.42-1.8l-.66-.22" style="fill:#c7a97f;"/><path d="M65.6,47.49c.31-.04.63-.05.93-.05s.63,0,.94.05l.09-.69c-.34-.04-.68-.05-1.03-.05s-.67,0-1.01.05l.08.69" style="fill:#c7a97f;"/><rect x="66.18" y="49.09" width=".7" height="2" style="fill:#c7a97f;"/><path d="M69.88,49.06l-.53.33c.31.5.59,1.07.82,1.69l.65-.24s-.37-1.02-.94-1.79" style="fill:#c7a97f;"/><path d="M69.53,47.25c.62.21,1.22.48,1.79.86l-.38.59c-.52-.32-1.08-.59-1.65-.8l.24-.65" style="fill:#c7a97f;"/><path d="M72.88,49.37c.48.47.9,1.01,1.26,1.58l-.59.37c-.33-.51-.72-1.01-1.16-1.45l.49-.49" style="fill:#c7a97f;"/><path d="M63.19,62.34l.53-.33c-.31-.48-.59-1.06-.82-1.68l-.65.25s.37,1,.94,1.77" style="fill:#c7a97f;"/><path d="M63.55,64.17c-.63-.23-1.23-.51-1.79-.87l.37-.61c.52.33,1.08.61,1.66.82l-.24.65" style="fill:#c7a97f;"/><path d="M61.71,58.65c-.12-.65-.2-1.31-.25-2l.7-.03c.04.65.11,1.27.24,1.88l-.69.14" style="fill:#c7a97f;"/><path d="M60.2,62.04c-.48-.48-.9-1-1.25-1.56l.6-.37c.33.5.71,1,1.16,1.42l-.49.49" style="fill:#c7a97f;"/><path d="M58.06,58.65c-.22-.63-.37-1.28-.44-1.96l.69-.08c.08.62.2,1.22.42,1.81l-.66.22" style="fill:#c7a97f;"/><path d="M65.52,64.61c.33.06.67.07,1.01.07s.68-.02,1.03-.07l-.09-.69c-.31.03-.62.05-.94.05s-.63-.02-.93-.05l-.08.69" style="fill:#c7a97f;"/><rect x="66.18" y="60.32" width=".7" height="1.99" style="fill:#c7a97f;"/><path d="M69.88,62.34l-.53-.33c.31-.48.59-1.06.82-1.68l.65.25s-.37,1-.94,1.77" style="fill:#c7a97f;"/><path d="M69.53,64.17c.62-.23,1.22-.51,1.79-.87l-.38-.61c-.52.33-1.08.61-1.65.82l.24.65" style="fill:#c7a97f;"/><path d="M72.88,62.04c.48-.48.9-1,1.26-1.56l-.59-.37c-.33.5-.72,1-1.16,1.42l.49.49" style="fill:#c7a97f;"/><rect x="65.66" y="52.31" width="10.06" height="6.44" style="fill:#328b41;"/><path d="M74.53,55.67c0-2.43,1.96-4.39,4.39-4.39s4.39,1.96,4.39,4.39-1.97,4.39-4.39,4.39-4.39-1.97-4.39-4.39" style="fill:#fff;"/><path d="M74.47,55.67c0,2.45,1.99,4.45,4.45,4.45s4.44-2.01,4.44-4.45-1.99-4.45-4.44-4.45-4.45,1.99-4.45,4.45M74.58,55.67c0-2.4,1.95-4.35,4.34-4.35s4.35,1.95,4.35,4.35-1.96,4.35-4.35,4.35-4.34-1.96-4.34-4.35" style="fill:#231815;"/><path d="M68.43,53.59c0,.22.02.45.05.68-.55-.24-1.06-.37-1.56-.37-.47,0-.7.14-.7.42,0,.3.3.36.94.47,1,.18,1.5.52,1.5,1.41s-.59,1.4-1.7,1.4c-.63,0-1.21-.08-1.73-.24,0-.41-.03-.77-.08-1.08.58.28,1.17.42,1.65.42s.75-.11.75-.41c0-.32-.28-.37-.8-.48-.48-.1-.86-.17-1.15-.39-.3-.2-.47-.58-.47-.99,0-.84.63-1.37,1.8-1.37.43,0,.93.07,1.49.22v.29" style="fill:#231815;"/><path d="M71.63,54.4v1.8c0,.44.05.7.48.7.26,0,.47-.09.72-.29v-2.2h1.01v3.08h-.81l-.09-.32c-.4.3-.77.46-1.16.46s-.7-.14-.93-.42c-.22-.28-.25-.58-.25-.97v-1.84h1.02" style="fill:#231815;"/><path d="M85.81,56.14v.61c-.26.11-.51.17-.73.17s-.36-.11-.36-.31c0-.32.32-.47.96-.47h.12M86.77,55.55c0-.88-.36-1.29-1.5-1.29-.48,0-.9.1-1.26.28l.17.63c.32-.18.64-.28.94-.28.48,0,.68.16.68.5v.21h-.17c-1.24,0-1.92.35-1.92,1.06,0,.6.37.95,1.01.95.39,0,.83-.13,1.28-.41.08.21.2.33.41.41l.65-.58c-.27-.12-.28-.22-.28-.48v-1.01Z" style="fill:#231815;"/><path d="M77.56,54.4h-1.31v3.22h1.31v-3.22ZM77.27,57.33h-.74v-2.66h.74v2.66Z" style="fill:#231815;"/><path d="M77.56,53.17h-1.31v.97h1.31v-.97ZM77.27,53.86h-.74v-.39h.74v.39Z" style="fill:#231815;"/><path d="M82.02,56.46c-.28.13-.59.21-.86.21-.23,0-.4-.06-.51-.17s-.18-.31-.18-.56c0-.27.06-.46.18-.57.1-.1.27-.16.48-.16.27,0,.57.07.9.21l.21.09-.09-1.18-.09-.02c-.36-.1-.66-.15-.97-.15-.58,0-1.07.16-1.41.47-.35.31-.53.76-.53,1.3,0,.5.17.96.48,1.27.34.34.83.52,1.42.52.29,0,.64-.05.98-.15l.09-.02.11-1.2-.22.09M81.86,57.34c-.35.08-.64.09-.81.09-.51,0-.94-.15-1.22-.44-.27-.27-.4-.64-.4-1.07s.13-.79.39-1.04c.29-.28.73-.45,1.27-.45.26,0,.51.05.8.11l.04.52c-.28-.1-.55-.16-.8-.16-.61,0-.94.36-.94,1.03,0,.32.09.6.28.77.16.17.4.25.7.25.25,0,.51-.04.77-.13l-.06.52h-.02Z" style="fill:#231815;"/><path d="M68.28,53.38c0,.22.02.46.05.67-.55-.23-1.06-.36-1.57-.36-.47,0-.7.16-.7.41,0,.3.31.37.95.48.99.18,1.49.52,1.49,1.42s-.58,1.39-1.69,1.39c-.63,0-1.21-.07-1.73-.23-.02-.43-.03-.78-.08-1.08.58.28,1.17.42,1.64.42.51,0,.75-.11.75-.4,0-.34-.28-.4-.8-.51-.47-.09-.85-.17-1.15-.37-.3-.22-.47-.59-.47-.99,0-.86.63-1.38,1.8-1.38.43,0,.92.07,1.49.22v.3" style="fill:#fff;"/><path d="M71.47,54.18v1.81c0,.43.05.68.48.68.26,0,.47-.1.71-.28v-2.21h1.03v3.08h-.82l-.09-.33c-.4.3-.77.47-1.15.47-.41,0-.72-.15-.93-.41-.23-.28-.26-.59-.26-.96v-1.85h1.03" style="fill:#fff;"/><path d="M85.66,55.93v.61c-.27.12-.51.17-.73.17s-.35-.1-.35-.31c0-.31.32-.47.96-.47h.12M86.62,55.35c0-.88-.35-1.31-1.49-1.31-.48,0-.91.1-1.26.29l.18.63c.31-.18.64-.28.94-.28.48,0,.68.16.68.49v.23h-.17c-1.23,0-1.93.35-1.93,1.05,0,.6.37.95,1,.95.39,0,.83-.13,1.27-.4.08.2.21.32.42.4l.65-.58c-.27-.13-.28-.24-.28-.47v-1h0Z" style="fill:#fff;"/><path d="M77.39,54.17h-1.31v3.23h1.31v-3.23ZM77.11,57.11h-.74v-2.65h.74v2.65Z" style="fill:#328b41;"/><path d="M77.39,52.95h-1.31v.97h1.31s0-.97,0-.97ZM77.11,53.64h-.74v-.4h.74v.4Z" style="fill:#328b41;"/><path d="M81.86,56.26c-.28.13-.59.2-.86.2-.23,0-.4-.06-.51-.17-.12-.12-.18-.3-.18-.58s.06-.45.18-.56c.1-.11.26-.16.47-.16.28,0,.57.07.9.22l.22.09-.09-1.19-.09-.02c-.35-.1-.65-.15-.97-.15-.58,0-1.07.16-1.41.47-.35.32-.52.76-.52,1.3s.17.96.49,1.28c.34.34.83.52,1.41.52.29,0,.63-.05.98-.15l.09-.02.12-1.2-.23.1M81.69,57.13c-.35.08-.64.09-.81.09-.51,0-.93-.15-1.21-.44-.27-.26-.41-.64-.41-1.07s.13-.79.39-1.04c.29-.28.73-.44,1.27-.44.26,0,.51.04.8.1l.04.51c-.28-.09-.55-.15-.8-.15-.6,0-.94.37-.94,1.01,0,.34.09.6.27.78.17.16.41.25.71.25.25,0,.51-.05.76-.14l-.06.53h0Z" style="fill:#328b41;"/><path d="M76.74,59.46c-1.13-.8-1.86-2.12-1.86-3.59,0-2.44,1.96-4.4,4.39-4.4.54,0,1.11.11,1.59.28h.03c-.6-.3-1.27-.48-1.99-.48-2.43,0-4.39,1.96-4.39,4.39,0,1.63.9,3.07,2.23,3.83v-.02" style="fill:#231815;"/></g><g id="i"><path d="M183.79,58.44c0-2.48-2.01-4.49-4.49-4.49-1.95,0-3.61,1.24-4.23,2.97l-.04.05c-.29.29-.68.45-1.1.45-.85,0-1.55-.7-1.55-1.55s.69-1.55,1.55-1.55c.41,0,.8.16,1.09.45l.27.27,3.26-3.26-.27-.27c-1.16-1.16-2.71-1.8-4.35-1.8-2.68,0-4.97,1.72-5.81,4.12v-4.11h-4.61v5.14c-.75-.57-1.68-.91-2.7-.91-2.01,0-3.71,1.32-4.28,3.13-.5-.18-.85-.65-.85-1.21v-1.93h1.93v-3.21h-1.93v-1.92h-3.21v1.92h-1.92v3.21h1.92v1.93c0,2.41,1.9,4.38,4.28,4.49.72,1.52,2.27,2.58,4.06,2.58,1.02,0,1.95-.35,2.7-.92h4.61v-4.12c.84,2.4,3.13,4.12,5.81,4.12.76,0,1.51-.14,2.2-.4.81.81,1.93,1.31,3.17,1.31,1.1,0,2.1-.4,2.89-1.06.78.66,1.79,1.06,2.89,1.06v-3.21c-.71,0-1.28-.57-1.28-1.28M167.37,61.27h-3.09v-10.8h3.09v10.8ZM168.54,55.87c0-2.98,2.42-5.4,5.4-5.4,1.32,0,2.56.47,3.54,1.33-.41.41-1.84,1.84-2.2,2.2-.39-.28-.85-.43-1.34-.43-1.27,0-2.3,1.03-2.3,2.3s1.03,2.3,2.3,2.3c.49,0,.95-.15,1.34-.43.36.36,1.79,1.79,2.2,2.2-.98.86-2.22,1.33-3.54,1.33-2.98,0-5.4-2.42-5.4-5.4M179.3,59.72c-.71,0-1.28-.57-1.28-1.28s.57-1.28,1.28-1.28,1.28.58,1.28,1.28-.57,1.28-1.28,1.28" style="fill:#1997ba; fill-rule:evenodd;"/><path d="M160.83,57.15c-.71,0-1.28.58-1.28,1.28s.57,1.28,1.28,1.28,1.28-.57,1.28-1.28-.57-1.28-1.28-1.28Z" style="fill:#fff; fill-rule:evenodd;"/></g><g id="j"><path d="M230.83,55.88c0,.3-.24.54-.54.54s-.55-.24-.55-.54.24-.54.55-.54.54.24.54.54" style="fill:#231815;"/><path d="M219.72,55.88c0,.3-.24.54-.54.54s-.55-.24-.55-.54.24-.54.55-.54.54.24.54.54" style="fill:#231815;"/><path d="M208.4,55.88c0,.3-.24.54-.54.54s-.54-.24-.54-.54.24-.54.54-.54.54.24.54.54" style="fill:#231815;"/><path d="M204.72,55.88v2.43h-1.09v-2.43c0-.77-.62-1.39-1.39-1.39v3.82h-1.09v-3.82c-.77,0-1.39.62-1.39,1.39v2.43h-1.08v-2.43c0-1.37,1.11-2.48,2.48-2.48h1.09c1.37,0,2.48,1.11,2.48,2.48M226.05,56.42c-.21.5-.7.84-1.28.84-.77,0-1.39-.62-1.39-1.39s.62-1.39,1.39-1.39c.57,0,1.06.34,1.28.84h1.14c-.24-1.11-1.24-1.94-2.42-1.94-1.37,0-2.48,1.11-2.48,2.48s1.11,2.48,2.48,2.48c1.18,0,2.17-.83,2.42-1.94h-1.14ZM216.04,55.88c0-1.37-1.11-2.48-2.48-2.48s-2.48,1.11-2.48,2.48v2.43h1.09v-2.43c0-.77.62-1.39,1.39-1.39s1.39.62,1.39,1.39v2.43h1.09v-2.43h0ZM231.67,55.88c0-.77-.62-1.39-1.39-1.39s-1.39.62-1.39,1.39.62,1.39,1.39,1.39,1.39-.62,1.39-1.39M232.77,58.31h-1.09v-.42h-.02c-.09.1-.21.18-.34.24-.31.15-.67.22-1.03.22-1.37,0-2.48-1.11-2.48-2.48s1.11-2.48,2.48-2.48,2.48,1.11,2.48,2.48v2.43h0ZM220.56,55.88c0-.77-.62-1.39-1.39-1.39s-1.39.62-1.39,1.39.62,1.39,1.39,1.39,1.39-.62,1.39-1.39M221.65,58.31h-1.09v-.42h-.02c-.09.1-.21.18-.34.24-.31.15-.67.22-1.03.22-1.37,0-2.48-1.11-2.48-2.48s1.11-2.48,2.48-2.48,2.48,1.11,2.48,2.48v2.43h0ZM209.24,55.88c0-.77-.62-1.39-1.39-1.39s-1.39.62-1.39,1.39.62,1.39,1.39,1.39,1.39-.62,1.39-1.39M210.34,58.31h-1.09v-.42h-.02c-.09.1-.21.18-.34.24-.31.15-.67.22-1.03.22-1.37,0-2.48-1.11-2.48-2.48s1.11-2.48,2.48-2.48,2.48,1.11,2.48,2.48v2.43h0Z" style="fill:#231815;"/></g><rect x=".25" y="33.8" width="442.89" height="43.47" rx="9.11" ry="9.11" style="fill:none; stroke:#231815; stroke-miterlimit:10; stroke-width:.5px;"/><g id="k"><path d="M184.54,3.09h28.19c.86,0,1.56.7,1.56,1.56v17.23c0,.86-.7,1.57-1.57,1.57h-28.18c-.86,0-1.56-.7-1.56-1.56V4.66c0-.86.7-1.57,1.57-1.57h-.01Z" style="fill:#e2c31a;"/><rect x="190.8" y="20.98" width="3.91" height="2.47" style="fill:#c99e11;"/><rect x="194.72" y="20.98" width="3.91" height="2.47" style="fill:#e8b61b;"/><path d="M182.97,20.98v.9c0,.86.7,1.57,1.56,1.57h2.35v-2.47h-3.91Z" style="fill:#c99e11;"/><rect x="186.89" y="20.98" width="3.91" height="2.47" style="fill:#e8b61b;"/><rect x="202.55" y="20.98" width="3.91" height="2.47" style="fill:#e8b61b;"/><path d="M210.37,20.98v2.47h2.35c.86,0,1.56-.7,1.56-1.57v-.9h-3.91Z" style="fill:#e8b61b;"/><rect x="206.46" y="20.98" width="3.91" height="2.47" style="fill:#c99e11;"/><rect x="198.63" y="20.98" width="3.91" height="2.47" style="fill:#c99e11;"/><path d="M187.3,8.34c0-.87.71-1.58,1.58-1.58s1.58.71,1.58,1.58-.7,1.58-1.58,1.58-1.58-.71-1.58-1.58" style="fill:#231815;"/><path d="M190.25,17.57c.49.09.97.23,1.44.41l-.16.42c-.85-.33-1.73-.49-2.64-.49s-1.8.17-2.64.49l-.16-.42c.47-.18.95-.32,1.44-.41v-5.83c-.49-.09-.97-.23-1.44-.41l.16-.42c.41.16.84.29,1.28.37.45.09.9.13,1.36.13.38,0,.89-.09,1.36-.18v6.35h0Z" style="fill:#231815;"/><path d="M201.95,7.63c-4.39,1.31-7.27-.05-7.29-.06l-.19.41c.05.03.72.34,1.86.53v8.94c-1.15.19-1.81.5-1.86.53l.19.41s2.91-1.36,7.29-.06c2.96.88,5.84.58,7.7-.81,1.4-1.05,2.15-2.62,2.15-4.54s-.74-3.49-2.15-4.53c-1.86-1.4-4.75-1.69-7.7-.82M207.77,8.44c.18.17.34.37.47.58.14.22.25.45.34.69.34.86.43,1.81.46,2.73v1.1c-.03.92-.12,1.87-.46,2.73-.09.24-.21.47-.34.69-.13.21-.3.41-.47.58-.59.57-1.35.8-2.15.84-.28.01-.57.01-.85,0-.29-.01-.59-.04-.88-.08-.3-.04-.6-.09-.9-.15-.31-.07-.61-.14-.91-.23-1.11-.33-2.13-.5-3.03-.56v-8.7c.9-.07,1.91-.23,3.03-.56.3-.09.6-.17.91-.23.3-.06.6-.12.9-.15.29-.04.58-.06.88-.08.28-.01.57-.01.85,0,.8.03,1.56.27,2.15.84" style="fill:#231815;"/><rect x="179.9" width="37.46" height="26.54" style="fill:none;"/></g><g id="l"><path d="M235.72,22.67s.72-1.1.83-1.29c.24-.37-.75-.41-.96-.41h-1.48c-.21,0-1.22.03-1.43.35-.1.15-.76,1.18-.84,1.3-.05.08,0,.19.16.26.18.07.48.12.82.12h1.44c.12,0,.4,0,.52-.03.11.03.41.1.56.14.59.16.76.02.78-.03.02-.05-.03-.1-.07-.11-.03-.01-.39-.16-.48-.19.07-.04.12-.08.14-.11M235.63,21.41l-.72,1.1c-.17-.05-.52-.16-.62-.19-.15-.04-.42-.13-.48-.04-.03.04-.04.09.14.23.06.05.22.16.29.2h-1.08s-.47,0-.38-.13l.73-1.12c.1-.16.51-.18.79-.18h.87c.21,0,.53.02.46.14h0Z" style="fill:#003f8d;"/><path d="M263.34,21.58c-.07-.02-.26-.04-.32-.04-.19,0-.27.03-.31.05-.03.02-1.08.55-1.97,1.01l-.66-.99c-.06-.09-.35-.07-.43-.06-.05,0-.2.02-.28.03-.15.03-.16.11-.11.17l.82,1.18c-.28.14-.49.25-.57.29-.17.09-.38.11-.66.11-.34,0-.62-.04-.85-.07l-.18.26c.24.06.74.12,1.12.12.64,0,1.02-.12,1.15-.18.18-.09,3.13-1.58,3.34-1.69.03-.02.06-.05.06-.08,0-.07-.08-.1-.15-.11" style="fill:#003f8d;"/><path d="M258.22,21.61s-.1-.06-.25-.06c-.28,0-.33.02-.48.07-.05.02-.1.03-.16.05h-.19c-.07-.01-.21-.04-.29-.05-.22-.04-.42-.07-.72-.07-.71,0-1.33.14-1.46.34-.03.05-.41.63-.45.69-.03.05-.07.11-.05.17.1.27.91.28,1.12.28.49,0,.85-.07,1.13-.11.04,0,.09-.01.13-.01s.07,0,.1.02c0,0,.06.04.07.05.06.04.16.04.31.04.28,0,.37-.04.42-.11l.76-1.18s.04-.06,0-.11M257.13,22l-.36.55c-.07.1-.5.15-.62.15h-.57c-.17,0-.31-.03-.41-.05-.03-.01-.08-.05-.04-.1.04-.06.33-.49.35-.53.07-.11.37-.18.76-.18h.41c.15,0,.34.01.45.05.04.01.06.06.03.1h0Z" style="fill:#003f8d;"/><path d="M248.83,22.6c-.3.03-1.2.1-1.57.1h-.33s-.62,0-.53-.13l.73-1.12c.1-.16.51-.18.79-.18h1.08c.31,0,.43-.09.43-.18s-.17-.11-.28-.11h-1.41c-.21,0-1.22.03-1.43.35-.1.15-.76,1.18-.84,1.3-.05.08-.02.2.15.27.15.06.45.12,1.24.12.42,0,1.41-.04,1.75-.1l.22-.31" style="fill:#cb191d;"/><path d="M243.67,22.9c-.04.06-.17.11-.42.11h-.17c-.17,0-.35-.05-.27-.18l1.13-1.74c.04-.06.17-.11.42-.11h.17c.17,0,.35.05.27.18l-1.13,1.74" style="fill:#cb191d;"/><path d="M240.36,22.94s.1.07.21.07h.14c.25,0,.38-.05.42-.11l1.13-1.74c.08-.13-.1-.18-.27-.18h-.17c-.25,0-.38.05-.42.11l-.85,1.31c-.06.09-.08.15-.15.19-.11.06-.3.12-.78.12h-.55c-.64,0-.67-.04-.71-.07-.03-.02-.02-.05,0-.07l.92-1.42c.08-.13-.1-.18-.27-.18h-.17c-.25,0-.38.05-.42.11l-.98,1.51c-.04.06-.28.42,1.2.42.81,0,1.07-.05,1.49-.11.17-.02.19-.01.25.03" style="fill:#003f8d;"/><path d="M254.13,21.23c-.11-.27-.91-.26-1.12-.26-.49,0-.85.08-1.13.12-.04,0-.09.01-.13.01s-.07,0-.1-.03c0,0-.06-.04-.07-.05-.06-.04-.16-.04-.3-.04-.28,0-.37.04-.42.11l-1.13,1.74c-.08.13.1.18.27.18h.17c.25,0,.38-.05.42-.11l.41-.63h1.32c.69,0,1.33-.17,1.45-.36.03-.05.29-.43.32-.49.03-.05.08-.1.05-.19M253.18,21.41c-.04.06-.23.35-.26.39-.02.02-.04.05-.07.06-.07.03-.27.1-.63.1h-1.04l.35-.53c.08-.12.49-.15.62-.15h.63c.12,0,.25.01.35.04.03,0,.08.05.04.1h0Z" style="fill:#003f8d;"/><path d="M247.75,16.86l-1.09-.63,2.33-4.05,1.1.63h0l.73.42c.16-.64.24-1.3.24-1.99,0-4.6-3.73-8.34-8.34-8.34s-8.35,3.74-8.35,8.35,3.74,8.35,8.35,8.35c2.24,0,4.27-.88,5.77-2.31l-.73-.42M242.28,15.72c-2.74,0-4.96-2.22-4.96-4.96s2.22-4.96,4.96-4.96,4.96,2.22,4.96,4.96c0,.14,0,.27-.02.4l-4.42-2.55-2.33,4.05,4.22,2.43c-.71.4-1.53.62-2.41.62h0Z" style="fill:#003f8d;"/><polyline points="249.02 17.59 247.75 16.86 250.09 12.81 251.35 13.54 249.02 17.59" style="fill:#cb191d;"/><polyline points="251.06 18.77 250.27 18.31 252.61 14.26 253.39 14.72 251.06 18.77" style="fill:#cb191d;"/><polyline points="253.01 19.89 252.74 19.74 255.07 15.69 255.34 15.84 253.01 19.89" style="fill:#cb191d;"/><path d="M261.94,7.26c0-.14-.12-.26-.26-.26h-3.3c-.14,0-.26-.12-.26-.26v-3.29c0-.14-.12-.26-.26-.26h-2.14c-.14,0-.26.11-.26.26v3.3c0,.14-.12.26-.26.26h-3.3c-.14,0-.26.12-.26.26v2.14c0,.14.12.26.26.26h3.3c.14,0,.26.12.26.26v3.3c0,.14.12.26.26.26h2.14c.14,0,.26-.12.26-.26v-3.3c0-.14.12-.26.26-.26h3.3c.14,0,.26-.12.26-.26v-2.14" style="fill:#003f8d;"/></g></svg>