<?xml version="1.0" encoding="UTF-8"?>
<svg id="a" data-name="レイヤー 1" xmlns="http://www.w3.org/2000/svg" xmlns:xlink="http://www.w3.org/1999/xlink" viewBox="0 0 244.87 55.39">
  <defs>
    <clipPath id="c">
      <path d="M74.68,19.07c0,.16.13.3.3.3V7.03c0-.17-.13-.3-.3-.3v12.34Z" style="fill: none;"/>
    </clipPath>
    <linearGradient id="d" data-name="名称未設定グラデーション 10" x1="-18.34" y1="431.91" x2="-17.34" y2="431.91" gradientTransform="translate(-5381.57 238.43) rotate(90) scale(12.63 -12.63)" gradientUnits="userSpaceOnUse">
      <stop offset="0" stop-color="#00a3df"/>
      <stop offset="1" stop-color="#0075c2"/>
    </linearGradient>
    <clipPath id="e">
      <rect x="5.77" y="7.24" width="63.61" height="11.61" style="fill: none;"/>
    </clipPath>
    <clipPath id="f">
      <path d="M20.88,8.35v7.82c0,.16.13.29.29.29h.04v-7.82c0-.16-.13-.28-.28-.28h-.04Z" style="fill: none;"/>
    </clipPath>
    <linearGradient id="g" data-name="名称未設定グラデーション 10" x1="-22.48" y1="423.24" x2="-21.48" y2="423.24" gradientTransform="translate(-3408.11 190.53) rotate(90) scale(8.1 -8.1)" xlink:href="#d"/>
    <clipPath id="h">
      <rect x="5.77" y="7.24" width="63.61" height="11.61" style="fill: none;"/>
    </clipPath>
    <clipPath id="i">
      <rect x="113.13" y="6.59" width="12.91" height="12.91" style="fill: none;"/>
    </clipPath>
    <clipPath id="j">
      <path d="M115.29,6.59h8.6c1.19,0,2.15.96,2.15,2.15v8.6c0,1.19-.96,2.15-2.15,2.15h-8.61c-1.19,0-2.15-.96-2.15-2.15v-8.6c0-1.19.96-2.15,2.15-2.15Z" style="fill: none;"/>
    </clipPath>
    <clipPath id="k">
      <rect x="113.13" y="6.59" width="12.91" height="12.91" style="fill: none;"/>
    </clipPath>
    <clipPath id="l">
      <path d="M119.86,17.26c-.07-.03-.12-.08-.17-.14-.15-.21-.16-.49-.02-.72.04-.07.1-.12.17-.16.06-.03.12-.05.19-.05h.07c.15,0,.28.08.37.2.05.07.08.14.1.23.02.1.02.2,0,.29-.03.13-.11.25-.22.33-.08.05-.17.08-.26.08-.08,0-.15-.02-.22-.05M120.1,16.18h-.07s.04,0,.07,0M119.9,15.81c-.17.02-.33.09-.46.2-.11.1-.2.23-.25.38-.06.18-.07.37-.03.56.03.17.11.33.23.46.11.12.24.2.4.24.17.04.35.03.51-.04.08-.04.16-.09.23-.15.02-.02.04-.04.06-.06,0,.05,0,.1,0,.16,0,.05.04.08.09.09h.25s.07-.02.09-.06c0-.02,0-.03,0-.05v-1.63s-.04-.09-.08-.09h-.26s-.09.04-.09.08v.18s0,.04,0,.06c-.03-.09-.08-.17-.16-.23-.07-.06-.15-.09-.24-.11-.06-.01-.12-.02-.18-.02-.03,0-.06,0-.1,0" style="fill: none;"/>
    </clipPath>
    <clipPath id="m">
      <rect x="113.13" y="6.59" width="12.91" height="12.91" style="fill: none;"/>
    </clipPath>
    <clipPath id="n">
      <path d="M121.56,15.94c-.06.04-.11.09-.15.14-.05.08-.08.17-.08.26,0,.16.07.32.21.4.05.04.11.07.17.09.1.04.2.07.31.09.07.02.15.04.22.07.04.02.07.05.1.08.01.03.02.06.01.09-.01.04-.04.08-.08.1-.07.04-.14.05-.21.05-.06,0-.12-.01-.17-.04-.06-.02-.1-.07-.13-.13,0-.02-.02-.04-.03-.07-.02-.02-.04-.03-.07-.03h-.26s-.08.04-.09.08c0,.03,0,.06.02.09.02.06.04.11.07.15.09.12.2.21.34.25.17.06.36.07.53.03.1-.02.19-.06.27-.11.05-.03.1-.08.14-.13.05-.07.08-.15.09-.23,0-.08,0-.16-.03-.24-.03-.07-.07-.13-.13-.18-.06-.05-.14-.09-.21-.12-.08-.03-.17-.06-.25-.08-.08-.02-.17-.05-.25-.08-.06-.02-.1-.06-.13-.12-.01-.05,0-.1.03-.13.05-.04.11-.07.17-.07.06,0,.12,0,.18.02.06.02.11.05.14.1.01.02.03.05.03.08,0,.02.02.04.04.05.03,0,.06.01.09,0,.03,0,.06,0,.09,0,.04,0,.08,0,.12,0,.05,0,.08-.05.08-.1-.02-.14-.09-.27-.19-.36-.07-.06-.15-.1-.24-.13-.09-.03-.18-.04-.27-.04-.01,0-.02,0-.03,0-.16,0-.31.05-.45.13" style="fill: none;"/>
    </clipPath>
    <clipPath id="o">
      <rect x="113.13" y="6.59" width="12.91" height="12.91" style="fill: none;"/>
    </clipPath>
    <clipPath id="p">
      <path d="M117.89,15.34c-.13,0-.26.04-.38.09-.12.05-.23.12-.33.21-.1.09-.18.19-.24.3-.1.19-.15.41-.14.63,0,.12.03.25.07.36.11.29.33.53.61.66.18.08.38.11.57.1.18,0,.35-.06.5-.14.14-.08.26-.18.35-.31.02-.02.04-.05.04-.08,0-.04-.01-.07-.05-.08-.07-.04-.14-.08-.21-.12-.03-.02-.07-.02-.1,0-.02.01-.03.03-.04.05-.11.15-.28.24-.46.26-.05,0-.1,0-.15,0-.1,0-.2-.03-.29-.07-.13-.06-.24-.15-.31-.27-.05-.09-.09-.18-.1-.29-.02-.12-.01-.24.02-.35.05-.2.18-.36.36-.46.12-.06.25-.08.38-.08.11,0,.23.03.33.08.09.04.17.11.23.19,0,.01.02.03.03.04.03.02.07.02.1,0,.07-.04.14-.08.21-.12.04-.03.06-.08.03-.12h0c-.15-.22-.38-.38-.64-.45-.1-.02-.2-.04-.3-.04-.03,0-.06,0-.09,0" style="fill: none;"/>
    </clipPath>
    <clipPath id="q">
      <rect x="113.13" y="6.59" width="12.91" height="12.91" style="fill: none;"/>
    </clipPath>
    <clipPath id="r">
      <path d="M115.37,15.33c-.1,0-.2.02-.3.04-.16.04-.31.11-.43.22-.11.09-.2.19-.27.31-.07.12-.12.25-.15.39-.02.15-.02.3,0,.44.02.13.07.26.14.37.2.33.55.55.93.57.1.01.2,0,.3-.01.09-.02.17-.04.26-.08.15-.06.28-.15.39-.27.12-.13.2-.28.25-.45.02-.07.03-.14.04-.22,0-.06,0-.13,0-.19,0-.06-.04-.11-.09-.13-.03,0-.06-.01-.09-.01h-.86c-.06,0-.11.05-.11.11v.16c0,.06.05.11.11.12h.63c-.02.12-.08.23-.16.32-.08.08-.17.14-.27.18-.1.05-.22.07-.33.06-.16,0-.32-.06-.45-.16-.08-.07-.16-.15-.2-.25-.07-.14-.09-.29-.08-.44,0-.08.03-.15.05-.22.05-.12.13-.22.23-.3.11-.08.25-.14.39-.15.1,0,.19,0,.28.02.16.03.3.13.4.26.04.04.1.05.14.03.05-.03.11-.06.17-.09.02-.01.03-.02.04-.04.02-.04.02-.08,0-.12-.11-.15-.25-.26-.41-.34-.16-.08-.34-.12-.52-.12,0,0-.02,0-.03,0" style="fill: none;"/>
    </clipPath>
    <clipPath id="s">
      <rect x="113.13" y="6.59" width="12.91" height="12.91" style="fill: none;"/>
    </clipPath>
    <clipPath id="t">
      <path d="M123.17,15.23s-.07.03-.08.06c0,.02,0,.04,0,.06v2.21c0,.05.04.09.09.09h.25s.09-.04.09-.09v-.91c0-.11.03-.23.09-.33.05-.07.12-.11.19-.14.09-.03.18-.02.27,0,.07.02.13.07.17.13.05.07.08.16.09.25,0,.09,0,.18,0,.28v.71s.04.08.08.09h.25s.07-.02.08-.06c0-.02,0-.05,0-.07v-.75s0-.09,0-.14c0-.06,0-.11-.01-.17-.02-.15-.08-.3-.19-.42-.1-.11-.24-.18-.39-.2-.19-.03-.39,0-.56.1-.04.02-.07.05-.1.07,0-.22,0-.45,0-.67,0-.02,0-.04,0-.06-.02-.03-.05-.05-.08-.05h-.25Z" style="fill: none;"/>
    </clipPath>
    <clipPath id="u">
      <path d="M118.96,9.75c-.2,0-.4.04-.59.11-.16.06-.31.14-.45.25-.27.2-.46.48-.57.8-.12.37-.12.77,0,1.13.31.9,1.29,1.38,2.19,1.07.43-.15.79-.46.99-.88.11-.23.17-.49.17-.75,0-.07-.02-.14-.07-.2-.05-.06-.11-.1-.18-.12-.04,0-.08,0-.13,0-.35,0-.69,0-1.04,0-.15,0-.27.11-.3.25-.02.08,0,.16.04.23.05.08.12.13.2.15.05,0,.1.01.15,0,.22,0,.43,0,.65,0,0,.02-.01.04-.02.06-.14.39-.49.67-.9.71-.18.02-.36,0-.53-.07-.56-.22-.84-.86-.62-1.42.18-.45.62-.73,1.1-.69.18.01.35.07.5.16.07.05.16.06.25.04.07-.02.14-.07.18-.13.04-.05.05-.11.05-.17,0-.09-.03-.17-.1-.24-.03-.02-.06-.04-.09-.06-.26-.16-.56-.24-.87-.24h-.03Z" style="fill: none;"/>
    </clipPath>
    <clipPath id="v">
      <rect x="113.13" y="6.59" width="12.91" height="12.91" style="fill: none;"/>
    </clipPath>
    <clipPath id="w">
      <path d="M118.96,9.75c-.2,0-.4.04-.59.11-.16.06-.31.14-.45.25-.27.2-.46.48-.57.8-.12.37-.12.77,0,1.13.31.9,1.29,1.38,2.19,1.07.43-.15.79-.46.99-.88.11-.23.17-.49.17-.75,0-.07-.02-.14-.07-.2-.05-.06-.11-.1-.18-.12-.04,0-.08,0-.13,0-.35,0-.69,0-1.04,0-.15,0-.27.11-.3.25-.02.08,0,.16.04.23.05.08.12.13.2.15.05,0,.1.01.15,0,.22,0,.43,0,.65,0,0,.02-.01.04-.02.06-.14.39-.49.67-.9.71-.18.02-.36,0-.53-.07-.56-.22-.84-.86-.62-1.42.18-.45.62-.73,1.1-.69.18.01.35.07.5.16.07.05.16.06.25.04.07-.02.14-.07.18-.13.04-.05.05-.11.05-.17,0-.09-.03-.17-.1-.24-.03-.02-.06-.04-.09-.06-.26-.16-.56-.24-.87-.24h-.03Z" style="fill: none;"/>
    </clipPath>
    <clipPath id="x">
      <rect x="113.13" y="6.59" width="12.91" height="12.91" style="fill: none;"/>
    </clipPath>
    <clipPath id="y">
      <rect x="128.98" y="6.05" width="14.96" height="13.99" style="fill: none;"/>
    </clipPath>
    <clipPath id="z">
      <rect x="96.39" y="6.06" width="13.98" height="13.98" style="fill: none;"/>
    </clipPath>
    <clipPath id="aa">
      <rect x="146.02" y="6.61" width="12.91" height="12.88" style="fill: none;"/>
    </clipPath>
    <clipPath id="ab">
      <rect x="162.26" y="6.59" width="13.3" height="12.92" style="fill: none;"/>
    </clipPath>
    <clipPath id="ac">
      <path d="M86.95,6.61l-6.32,6.34v4.39c0,1.19.96,2.15,2.15,2.15h8.58c1.18,0,2.15-.96,2.15-2.15v-8.58c0-1.18-.96-2.15-2.15-2.15h-4.41Z" style="fill: none;"/>
    </clipPath>
    <clipPath id="ad">
      <path d="M82.82,6.61c-1.2,0-2.18.97-2.18,2.18v4.26l6.44-6.44h-4.26Z" style="fill: none;"/>
    </clipPath>
    <clipPath id="ae">
      <rect x="80.51" y="6.49" width="13.12" height="13.12" style="fill: none;"/>
    </clipPath>
    <clipPath id="af">
      <path d="M81.91,8.08l-.18.18s-.02.05,0,.08l.51.51-.63.64-.51-.52s-.05-.02-.07,0h0l-.18.18s-.02.05,0,.07l1.28,1.29s.05.02.07,0l.18-.18s.02-.05,0-.07l-.53-.54.63-.63.53.54s.05.02.07,0c0,0,0,0,0,0l.18-.18s.02-.05,0-.07l-1.28-1.29s-.02-.01-.04-.01-.03,0-.04.01M83.18,6.79h0s-.19.19-.19.19c-.01.01-.02.04-.02.06l.06,1.04-.52-.53s-.07-.03-.09,0l-.17.17s-.03.07,0,.09h0l1.26,1.27s.07.03.09,0c0,0,0,0,0,0l.17-.17s.03-.07,0-.09l-.59-.59,1.13.12s.04,0,.05-.02l.21-.21s.02-.06,0-.09c0,0-.02-.01-.03-.02l-1.19-.11-.07-1.08s-.03-.06-.06-.06c-.02,0-.03,0-.04.02" style="fill: none;"/>
    </clipPath>
    <clipPath id="ag">
      <path d="M81.91,8.08l-.18.18s-.02.05,0,.08l.51.51-.63.64-.51-.52s-.05-.02-.07,0h0l-.18.18s-.02.05,0,.07l1.28,1.29s.05.02.07,0l.18-.18s.02-.05,0-.07l-.53-.54.63-.63.53.54s.05.02.07,0c0,0,0,0,0,0l.18-.18s.02-.05,0-.07l-1.28-1.29s-.02-.02-.04-.02c-.01,0-.03,0-.04.02M83.18,6.79h0s-.19.19-.19.19c-.01.01-.02.04-.02.06l.06,1.04-.52-.53s-.07-.03-.09,0l-.17.17s-.03.07,0,.09h0l1.26,1.27s.07.03.09,0c0,0,0,0,0,0l.17-.17s.03-.07,0-.09l-.59-.59,1.13.12s.04,0,.05-.02l.21-.21s.02-.06,0-.09c0,0-.02-.01-.03-.02l-1.19-.11-.07-1.08s-.03-.06-.06-.06c-.02,0-.03,0-.04.02" style="fill: none;"/>
    </clipPath>
    <clipPath id="ah">
      <path d="M83.09,14.35c.3-.26.85-.38,1.13-.4,1.1-.11,2.11.29,3.29.85-.82,1.02-1.9,1.68-2.97,1.68-1.82,0-2.37-1.38-1.45-2.13M86.55,9.46h0v1.17h-2.86v.45h2.88v.81h-2.37v.45h4.58c-.16.54-.39,1.06-.67,1.55-1.48-.46-3.07-.85-4.08-.6-.64.14-1.05.41-1.29.69-1.12,1.3-.33,3.27,2.03,3.27,1.38,0,2.72-.74,3.75-1.97,1.55.72,4.98,2.07,4.98,2.07v-1.75s-.77-.15-2.45-.7c-.48-.15-1.11-.38-1.8-.63.43-.74.76-1.54.97-2.37h-2.33v-.81h2.83v-.45h-2.83v-1.34h-1.15s-.01,0-.02,0c-.1,0-.18.07-.19.17" style="fill: none;"/>
    </clipPath>
    <clipPath id="ai">
      <rect x="80.51" y="6.49" width="13.12" height="13.12" style="fill: none;"/>
    </clipPath>
    <clipPath id="ak">
      <rect x="130.52" y="37.52" width="47.97" height="13.68" style="fill: none;"/>
    </clipPath>
    <clipPath id="al">
      <rect x="193.04" y="33.33" width="51.83" height="22.06" style="fill: none;"/>
    </clipPath>
    <clipPath id="am">
      <rect x="62.72" y="39.39" width="53.25" height="9.95" style="fill: none;"/>
    </clipPath>
  </defs>
  <g id="b" data-name="Alipay+">
    <g style="clip-path: url(#c);">
      <rect x="74.68" y="6.73" width=".3" height="12.63" style="fill: url(#d);"/>
    </g>
    <path d="M181.68,26.04H.17V.17h168.29c7.3,0,13.23,5.92,13.23,13.23v12.65Z" style="fill: none; stroke: #0075c2; stroke-miterlimit: 10; stroke-width: .33px;"/>
    <g style="clip-path: url(#e);">
      <path d="M36.58,9.81c.61,0,1.04-.4,1.04-1,0-.58-.44-1-1.05-1s-1.04.41-1.04,1,.44,1,1.04,1" style="fill: #0075c2;"/>
      <rect x="32.62" y="8.07" width="1.81" height="8.37" style="fill: #3d3a39;"/>
      <path d="M40.51,16.38c.34.09.7.14,1.06.14,1.62,0,3.07-1.19,3.07-3.31,0-1.9-1.06-3.04-2.36-3.04-.67,0-1.18.25-1.77.73v-.61h-1.81v8.1h1.81v-2.01ZM40.51,11.97c.38-.26.69-.39,1.08-.39h0c.68,0,1.22.54,1.22,1.69,0,1.47-.79,2.12-1.68,2.12-.21,0-.42-.03-.62-.09v-3.33Z" style="fill: #3d3a39;"/>
      <path d="M26.42,14.86h2.88l.44,1.58h2.15l-2.44-8.09h-2.43l-2.72,8.09h1.68l.46-1.58ZM27.88,9.81h.04l1.02,3.73h-2.15l1.08-3.73Z" style="fill: #3d3a39;"/>
      <rect x="35.67" y="10.29" width="1.81" height="6.15" style="fill: #3d3a39;"/>
      <path d="M45.6,13.54c-.3.3-.42.72-.42,1.22,0,1.18.92,1.81,1.78,1.81.64,0,1.16-.24,1.86-.77l.13.64h0s1.81,0,1.81,0l-.22-1.54v-2.57c0-1.4-.83-2.17-2.28-2.17-.93,0-1.57.16-2.74.52l.32,1.41c1.07-.48,1.54-.69,2.03-.69.6,0,.86.42.86,1.08v.05c-2.08.39-2.72.61-3.12,1.01M48.72,14.95c-.48.27-.76.37-1.08.37-.44,0-.71-.29-.71-.75,0-.17.04-.34.17-.48.22-.22.64-.38,1.62-.61v1.47Z" style="fill: #3d3a39;"/>
      <polygon points="52.31 18.34 52.31 18.39 53.91 18.39 56.99 10.3 57.01 10.29 55.3 10.29 54.22 14.03 54.16 14.03 52.92 10.29 50.89 10.29 53.33 16.46 52.31 18.34" style="fill: #3d3a39;"/>
      <path d="M64.81,14.18c.15.03.3.05.46.05h4.12v-1.06c0-.55-.44-.99-.99-.99h-3.12v2.05c-.16,0-.31-.02-.45-.05" style="fill: #0075c2;"/>
      <path d="M60.09,14.23h2.13v-2.05h-3.12v1.06c0,.55.44.99.99.99" style="fill: #00a3df;"/>
      <polygon points="59.1 12.18 59.1 12.18 59.1 12.18 59.1 12.18" style="fill: #38a8e0;"/>
      <path d="M64.81,14.18c.15.03.3.05.45.05v-5.18c0-.55-.44-.99-.99-.99h-1.06v4.11h0c0,.98.68,1.79,1.6,2" style="fill: #0075c2;"/>
      <path d="M64.2,18.35h1.06v-3.11h-2.05v2.12c0,.55.44.99.99.99" style="fill: #00a3df;"/>
    </g>
    <g style="clip-path: url(#f);">
      <rect x="20.88" y="8.35" width=".32" height="8.1" style="fill: url(#g);"/>
    </g>
    <g style="clip-path: url(#h);">
      <path d="M15.54,7.24h-7.91c-1.03,0-1.86.83-1.86,1.86v7.89c0,1.03.83,1.86,1.86,1.86h7.91c1.03,0,1.86-.83,1.86-1.86v-7.89c0-1.03-.83-1.86-1.86-1.86" style="fill: #0075c2;"/>
      <path d="M15.35,14.53c-.47-.15-1.09-.39-1.79-.64.42-.73.75-1.55.97-2.45h-2.29v-.82h2.81v-.46h-2.81v-1.37h-1.15c-.2,0-.2.2-.2.2v1.18h-2.84v.46h2.84v.82h-2.35v.46h4.55c-.17.57-.39,1.11-.66,1.6-1.48-.49-3.05-.88-4.04-.64-.63.16-1.04.43-1.28.72-1.1,1.33-.31,3.36,2.01,3.36,1.37,0,2.7-.76,3.72-2.02,1.53.73,4.55,1.99,4.55,1.99v-1.79s-.38-.03-2.06-.59M8.91,16.17c-1.81,0-2.35-1.42-1.45-2.2.3-.26.85-.39,1.14-.42,1.08-.11,2.07.3,3.25.88-.83,1.07-1.88,1.74-2.93,1.74" style="fill: #fff;"/>
    </g>
    <g style="clip-path: url(#i);">
      <path d="M115.29,6.59h8.61c1.19,0,2.15.96,2.15,2.15v8.61c0,1.19-.96,2.15-2.15,2.15h-8.61c-1.19,0-2.15-.96-2.15-2.15v-8.61c0-1.19.96-2.15,2.15-2.15" style="fill: #14538e;"/>
    </g>
    <g style="clip-path: url(#j);">
      <rect x="112.6" y="6.05" width="13.98" height="13.98" style="fill: #155aa1;"/>
    </g>
    <g style="clip-path: url(#k);">
      <path d="M120.1,16.18h-.07c-.07,0-.13.02-.19.06-.07.04-.13.09-.17.15-.14.22-.13.51.02.72.04.06.1.11.17.15.15.08.34.06.48-.03.11-.08.19-.19.22-.33.02-.1.02-.19,0-.29-.02-.08-.05-.16-.1-.23-.1-.14-.27-.21-.44-.2h.07ZM119.9,15.81c.09-.01.18,0,.28.02.09.02.17.06.24.11.08.06.13.13.16.23,0-.02,0-.04,0-.06v-.18s.04-.09.09-.09h.26s.08.04.08.09v1.63s0,.03,0,.05c-.01.03-.05.06-.08.06h-.25s-.09-.04-.09-.08c0-.05,0-.1,0-.16-.02.02-.04.04-.06.06-.07.06-.14.11-.22.15-.16.07-.34.08-.51.04-.15-.04-.29-.12-.4-.24-.12-.13-.2-.29-.23-.46-.04-.19-.02-.38.03-.56.05-.15.13-.28.25-.38.13-.11.29-.18.46-.2" style="fill: #fff;"/>
    </g>
    <g style="clip-path: url(#l);">
      <rect x="118.59" y="15.27" width="2.96" height="2.97" style="fill: #fff;"/>
    </g>
    <g style="clip-path: url(#m);">
      <path d="M122.73,16.96c-.03-.07-.08-.13-.13-.18-.06-.05-.14-.09-.21-.12-.08-.03-.17-.06-.25-.08s-.17-.05-.25-.08c-.06-.02-.1-.06-.12-.12-.01-.05,0-.1.03-.13.05-.04.11-.07.17-.07.06,0,.12,0,.18.01.06.02.11.05.14.1.02.02.03.05.03.08,0,.02.02.04.05.05.03,0,.06,0,.09,0,.07,0,.14,0,.21,0,.05,0,.08-.05.08-.1-.02-.14-.09-.27-.19-.36-.07-.06-.15-.1-.24-.13-.09-.02-.18-.04-.27-.04-.17,0-.34.04-.48.13-.06.04-.11.09-.15.14-.05.08-.08.17-.08.26,0,.16.07.32.21.4.05.04.11.07.17.09.1.04.2.07.31.09.07.02.15.04.22.08.04.02.07.04.1.08.02.03.02.06.01.09,0,.04-.04.08-.07.1-.07.04-.14.05-.21.05-.06,0-.12-.01-.17-.04-.06-.03-.1-.07-.13-.13,0-.02-.02-.05-.03-.07-.02-.02-.04-.03-.07-.03h-.26s-.08.03-.09.08c0,.03,0,.06.02.09.02.05.04.11.07.15.08.12.2.21.34.25.17.06.36.07.53.03.1-.02.19-.06.27-.11.05-.04.1-.08.14-.13.05-.07.08-.15.09-.23,0-.08,0-.16-.03-.24" style="fill: #fff;"/>
    </g>
    <g style="clip-path: url(#n);">
      <rect x="120.76" y="15.27" width="2.54" height="2.97" style="fill: #fff;"/>
    </g>
    <g style="clip-path: url(#o);">
      <path d="M118.89,17.06c-.07-.04-.14-.08-.21-.12-.03-.02-.07-.02-.1,0-.02.01-.03.03-.04.05-.11.15-.28.24-.46.27-.05,0-.1,0-.15,0-.1,0-.2-.03-.29-.07-.13-.06-.24-.15-.31-.27-.05-.09-.09-.18-.1-.28-.02-.12-.01-.24.02-.35.05-.2.18-.36.36-.46.12-.06.25-.09.38-.08.11,0,.23.03.33.08.09.05.17.11.23.19,0,.02.02.03.03.04.03.02.07.03.1,0,.07-.04.14-.08.21-.12.04-.03.06-.08.03-.13-.15-.22-.38-.38-.64-.45-.13-.03-.26-.04-.39-.04-.13,0-.26.04-.38.08-.12.05-.23.12-.33.21-.09.08-.17.18-.24.3-.1.19-.15.41-.14.63,0,.12.02.25.07.36.11.29.33.53.61.66.18.08.38.11.57.1.17,0,.34-.06.5-.14.14-.07.26-.18.35-.31.02-.02.04-.05.04-.08,0-.04-.02-.07-.05-.09" style="fill: #fff;"/>
    </g>
    <g style="clip-path: url(#p);">
      <rect x="116.25" y="14.79" width="3.23" height="3.43" style="fill: #fff;"/>
    </g>
    <g style="clip-path: url(#q);">
      <path d="M116.46,16.33s-.06-.01-.09-.01h-.86c-.06,0-.11.05-.11.1v.17c0,.06.05.11.11.11,0,0,0,0,.01,0h.62c-.02.12-.07.24-.16.33-.08.08-.17.14-.27.18-.1.05-.22.07-.33.06-.16,0-.32-.06-.45-.16-.09-.07-.16-.15-.2-.25-.07-.13-.09-.29-.08-.44,0-.07.02-.15.05-.22.05-.12.12-.22.23-.3.11-.09.25-.14.39-.15.09,0,.19,0,.28.02.16.04.3.13.4.26.04.04.1.05.15.02.06-.03.11-.06.17-.09.02-.01.03-.02.04-.04.02-.04.02-.08,0-.12-.11-.15-.25-.26-.41-.34-.17-.08-.36-.12-.55-.12-.1,0-.2.02-.3.04-.16.04-.31.12-.43.22-.11.09-.2.19-.27.31-.07.12-.12.25-.14.39-.02.15-.02.3,0,.45.02.13.07.26.14.38.2.33.55.55.93.57.1,0,.2,0,.3-.02.09-.02.17-.04.26-.08.15-.06.28-.15.4-.26.12-.13.2-.29.25-.45.02-.07.03-.14.04-.21,0-.06,0-.13,0-.19,0-.06-.04-.11-.09-.13" style="fill: #fff;"/>
    </g>
    <g style="clip-path: url(#r);">
      <rect x="113.66" y="14.79" width="3.42" height="3.43" style="fill: #fff;"/>
    </g>
    <g style="clip-path: url(#s);">
      <path d="M124.75,16.64c0-.06,0-.11-.01-.17-.02-.15-.08-.3-.19-.41-.1-.11-.24-.18-.39-.2-.19-.04-.39,0-.56.1-.04.02-.07.05-.1.07,0-.22,0-.45,0-.67,0-.02,0-.04,0-.06-.02-.03-.05-.05-.08-.05h-.25s-.07.02-.08.06c0,.02,0,.04,0,.05v2.22s.04.09.09.09h.25s.08-.04.08-.09v-.91c0-.12.03-.23.1-.33.05-.07.12-.11.19-.14.09-.03.18-.02.27,0,.07.02.13.07.17.13.05.08.08.16.09.25s0,.18,0,.27v.71s.04.08.09.08h.25s.07-.02.08-.05c0-.02,0-.05,0-.07v-.75s0-.09,0-.14" style="fill: #fff;"/>
    </g>
    <g style="clip-path: url(#t);">
      <rect x="122.54" y="14.69" width="2.75" height="3.5" style="fill: #fff;"/>
    </g>
    <g style="clip-path: url(#u);">
      <rect x="116.68" y="9.2" width="4.56" height="4.57" style="fill: #2e65a0;"/>
    </g>
    <g style="clip-path: url(#v);">
      <path d="M120.64,11.28c-.05-.06-.11-.1-.18-.12-.04,0-.08,0-.12,0-.35,0-.69,0-1.04,0-.15,0-.28.11-.31.25-.01.08,0,.16.04.23.04.08.12.13.2.15.05,0,.1.01.15,0,.22,0,.43,0,.65,0,0,.02,0,.04-.02.06-.14.39-.49.67-.9.71-.18.02-.36,0-.53-.07-.56-.22-.84-.86-.62-1.42.18-.45.62-.73,1.1-.69.18.01.35.07.5.16.07.05.16.06.25.04.07-.02.14-.06.18-.13.03-.05.05-.11.05-.17,0-.09-.04-.17-.1-.24-.03-.02-.06-.04-.09-.06-.27-.16-.58-.25-.9-.24-.2,0-.4.04-.59.11-.16.06-.31.14-.45.25-.27.2-.46.48-.57.8-.12.37-.13.77,0,1.13.31.9,1.29,1.38,2.19,1.07.44-.15.79-.47.99-.88.11-.23.17-.49.17-.75,0-.07-.02-.14-.07-.2" style="fill: #fff;"/>
    </g>
    <g style="clip-path: url(#w);">
      <rect x="116.68" y="9.2" width="4.56" height="4.57" style="fill: #fff;"/>
    </g>
    <g style="clip-path: url(#x);">
      <path d="M120.75,13.29c-.04-.11-.14-.2-.26-.22-.08-.01-.16,0-.22.05-.27.21-.6.36-.94.42-.34.06-.68.03-1-.07-.29-.09-.55-.25-.77-.46-.2-.18-.35-.4-.47-.63-.31-.64-.27-1.38.09-1.99.04-.06.08-.12.12-.18.05-.06.09-.12.14-.17.02-.03.05-.05.08-.08.73-.71,1.87-.79,2.7-.18.03.03.07.05.11.07.07.03.14.03.21.02.07-.02.14-.06.18-.13.04-.05.05-.11.05-.18,0-.07-.02-.14-.07-.2-.02-.03-.05-.05-.08-.08-.2-.15-.42-.27-.65-.36-.35-.13-.71-.2-1.08-.18-.19,0-.38.03-.57.08-.29.07-.56.19-.8.35-.06.04-.11.07-.16.11-.1.08-.19.16-.28.24-.05.05-.1.1-.14.15-.41.47-.64,1.06-.66,1.68,0,.11,0,.21,0,.32,0,.11.02.21.04.31.01.08.04.16.06.24.13.46.38.87.73,1.2.11.11.23.2.36.29.46.32,1,.48,1.56.47.16,0,.32-.02.47-.04.42-.08.82-.25,1.17-.52.11-.08.16-.22.12-.35" style="fill: #093994;"/>
      <path d="M121.68,11.14c-.03-.27-.11-.54-.22-.79-.05-.13-.19-.21-.33-.2-.1.01-.19.07-.24.16-.04.07-.05.16-.02.23.01.04.03.07.04.1.23.54.22,1.14-.02,1.68-.01.02-.02.04-.03.07-.02.08-.02.16.02.23.08.15.27.22.42.14.06-.03.11-.08.14-.14.11-.24.19-.5.23-.77.03-.24.04-.48,0-.72" style="fill: #71b0e1;"/>
      <path d="M122.68,10.97c-.06-.42-.18-.82-.37-1.19-.02-.04-.05-.08-.09-.11-.14-.1-.33-.07-.44.07-.01.02-.03.04-.04.07-.03.09-.03.18.01.26.02.03.03.06.04.09.04.1.09.19.12.3.16.46.2.95.14,1.43-.05.35-.15.69-.31,1-.04.08-.04.17-.01.25.02.07.07.12.13.16.13.08.3.05.4-.06.03-.03.05-.07.07-.11.33-.67.45-1.41.35-2.15" style="fill: #6faee0;"/>
    </g>
    <g style="clip-path: url(#y);">
      <path d="M139.97,6.36h-7.92c-1.49,0-2.7,1.21-2.7,2.7v7.92c0,1.49,1.21,2.7,2.7,2.7h7.92c1.49,0,2.7-1.21,2.7-2.7v-7.92c0-1.49-1.21-2.7-2.7-2.7" style="fill: #004ea2;"/>
      <path d="M134.54,11.8h-.67c-.2,0-.45.14-.53.32l.07-.36h-.82l-.36,2.04h.82l.23-1.29h.88s-.11.64-.16.93c-.05.29.15.36.24.36h.43l.28-1.59c-.02-.23-.18-.41-.4-.41" style="fill: #fff;"/>
      <polygon points="132 11.76 131.84 12.64 132.47 11.76 132 11.76" style="fill: #fff;"/>
      <polygon points="132.97 8.57 130.22 8.57 130.1 9.24 131.06 9.24 130.68 11.42 131.51 11.42 131.89 9.24 132.85 9.24 132.97 8.57" style="fill: #fff;"/>
      <path d="M132.38,11.42c-.23,0-.38-.19-.34-.41l.21-1.19c.04-.23.26-.42.49-.42h1.35c.23,0,.38.19.34.42l-.21,1.19c-.04.23-.26.41-.49.41h-1.35ZM133.54,10.75l.12-.68h-.74l-.12.68h.74Z" style="fill: #fff;"/>
      <path d="M137.8,10.75l.12-.68h1.07l.12-.67h-1.37c-.23,0-.45.19-.49.41l-.21,1.19c-.04.23.11.41.34.41h1.33l.12-.67h-1.03Z" style="fill: #fff;"/>
      <path d="M136.12,10.75h-.9l.24-1.35h-.72l-.28,1.61c-.04.23.11.41.34.41h.7c.23,0,.41-.14.56-.31,0,0,.08.23.19.29.12.05.47.04.47.04l.36-2.04h-.72l-.24,1.35Z" style="fill: #fff;"/>
      <path d="M141.3,9.41h-.67c-.2,0-.39.14-.46.32l.19-1.1h-.76l-.49,2.78h.76l.23-1.29h.82s-.11.64-.16.93c-.05.29.15.36.24.36h.37l.28-1.59c.04-.23-.11-.41-.34-.41" style="fill: #fff;"/>
      <path d="M140.2,13.74l.21-1.22h-1.21l-.22,1.22h1.21ZM138.61,14.49c-.31,0-.51-.25-.46-.56l.28-1.61c.05-.31.35-.56.65-.56h1.71c.3,0,.51.25.46.56l-.28,1.61c-.05.3-.35.56-.65.56h-1.71Z" style="fill: #fff;"/>
      <path d="M136.95,13.74h-1.22l.21-1.22h1.97l.13-.75h-2.22c-.31,0-.6.25-.65.56l-.28,1.61c-.05.3.15.55.46.55h1.71c.31,0,.6-.25.65-.55l.17-.99h-.81l-.14.79Z" style="fill: #fff;"/>
      <polygon points="135.54 15.47 134.47 17.68 133.79 17.68 133.71 16.34 133.06 17.68 132.38 17.68 132.25 15.47 132.73 15.47 132.82 17.2 133.65 15.47 134.14 15.47 134.22 17.2 135.06 15.47 135.54 15.47" style="fill: #f3d31f;"/>
      <polygon points="137.56 17.68 137.09 17.68 137.56 15.47 138.03 15.47 137.56 17.68" style="fill: #f3d31f;"/>
      <polygon points="138.34 17.68 137.86 17.68 138.33 15.47 138.8 15.47 138.34 17.68" style="fill: #f3d31f;"/>
      <path d="M141.6,17.68h-.38c-.18,0-.3-.02-.37-.05-.07-.03-.1-.11-.1-.21,0-.06,0-.13.03-.21l.37-1.74h.47l-.12.55h.46l-.09.4h-.45l-.14.63c-.01.06-.02.11-.02.13,0,.04.02.07.05.08.03.01.09.02.18.02h.2l-.08.4Z" style="fill: #f3d31f;"/>
      <path d="M131.54,16.65h-.84c.01-.05.02-.09.04-.12.01-.03.03-.05.05-.07.02-.02.05-.03.09-.03.03,0,.08,0,.13,0h.38c.12,0,.18.04.18.11,0,0,0,.05-.02.12M131.95,16.07c-.07-.04-.19-.05-.37-.05h-.68c-.19,0-.34.04-.44.11-.1.07-.17.19-.2.36l-.15.72s-.02.08-.02.12c0,.03,0,.07,0,.09,0,.05,0,.09.02.12.02.03.04.06.08.08.04.02.08.04.14.04.06,0,.14.01.23.01h1.15l.08-.39h-.97c-.09,0-.15,0-.18-.02-.03-.01-.05-.04-.05-.09,0-.03,0-.07.02-.12h0s.2,0,.2,0h0s1.1,0,1.1,0l.12-.56c.02-.08.03-.15.03-.21,0-.1-.04-.17-.1-.21" style="fill: #f3d31f;"/>
      <path d="M135.67,17.28c-.07,0-.1-.03-.1-.09,0-.04.01-.07.04-.1.03-.03.06-.04.11-.04h.51s.2,0,.2,0l-.05.23h-.71ZM137.02,16.15s-.04-.06-.08-.08c-.04-.02-.09-.03-.15-.04-.06,0-.13-.01-.22-.01h-1.14l-.09.4h.97c.09,0,.15,0,.18.02s.04.04.04.08c0,.02,0,.06-.02.13h-.75c-.11,0-.2,0-.27.02-.07.01-.13.03-.18.07-.05.03-.09.08-.11.14-.03.06-.05.14-.08.24l-.02.09c-.02.08-.03.15-.03.21s0,.1.02.13c.02.03.05.06.08.08.04.02.08.03.15.04.06,0,.13.01.22.01h1.22l.25-1.19c.02-.08.03-.15.03-.21,0-.05,0-.1-.02-.13" style="fill: #f3d31f;"/>
      <path d="M140.16,16.65h-.84c.01-.05.02-.09.04-.12.01-.03.03-.05.05-.07.02-.02.05-.03.09-.03.03,0,.08,0,.13,0h.38c.12,0,.18.04.18.11,0,0,0,.05-.02.12M140.57,16.07c-.07-.04-.19-.05-.37-.05h-.68c-.19,0-.34.04-.44.11-.1.07-.17.19-.2.36l-.15.72s-.02.08-.02.12c0,.03,0,.07,0,.09,0,.05,0,.09.02.12.02.03.04.06.08.08.04.02.08.04.14.04.06,0,.14.01.23.01h1.15l.08-.39h-.97c-.09,0-.15,0-.18-.02-.03-.01-.05-.04-.05-.09,0-.03,0-.07.02-.12h0s.2,0,.2,0h0s1.1,0,1.1,0l.12-.56c.02-.08.03-.15.03-.21,0-.1-.04-.17-.1-.21" style="fill: #f3d31f;"/>
      <polygon points="143 6.64 143.16 6.64 143.16 7.12 143.2 7.12 143.2 6.64 143.37 6.64 143.37 6.6 143 6.6 143 6.64" style="fill: #004ea2;"/>
      <polygon points="143.5 6.66 143.7 6.98 143.7 6.98 143.9 6.66 143.9 7.12 143.94 7.12 143.94 6.6 143.89 6.6 143.7 6.91 143.51 6.6 143.46 6.6 143.46 7.12 143.5 7.12 143.5 6.66" style="fill: #004ea2;"/>
    </g>
    <g style="clip-path: url(#z);">
      <path d="M107.79,19.45h-8.83c-1.11,0-2.01-.9-2.01-2.01v-8.83c0-1.11.9-2.01,2.01-2.01h8.83c1.11,0,2.01.9,2.01,2.01v8.83c0,1.11-.9,2.01-2.01,2.01" style="fill: #ffe100;"/>
      <path d="M100.23,11.82c-.74,0-1.34.47-1.34,1.05,0,.35.22.66.55.85l-.16.59c-.01.06.05.1.1.07l.68-.46c.05,0,.11,0,.17,0,.74,0,1.34-.47,1.34-1.06s-.6-1.05-1.34-1.05" style="fill: #231815;"/>
      <path d="M102.75,13.84v.72h-.52v-2.66h.36l.06.17c.11-.11.28-.23.54-.23.51,0,.74.38.74.99,0,.64-.37,1.05-.9,1.05-.1,0-.18,0-.3-.03M102.75,12.33v1.15s.1.01.17.01c.37,0,.51-.26.51-.66,0-.36-.1-.57-.39-.57-.1,0-.2.03-.29.07" style="fill: #231815;"/>
      <path d="M104.99,12.65h.29v-.06c0-.21-.12-.31-.33-.31-.16,0-.36.05-.53.13l-.14-.35c.18-.13.47-.21.72-.21.49,0,.76.26.76.76v1.23h-.36l-.05-.16c-.21.15-.4.21-.57.21-.38,0-.59-.23-.59-.61,0-.41.28-.62.81-.62M105.28,13.33v-.35h-.24c-.27,0-.4.1-.4.29,0,.14.07.21.23.21.14,0,.32-.07.41-.15" style="fill: #231815;"/>
      <path d="M107.3,13.66c-.18.48-.39.83-.71,1.02l-.32-.29c.18-.16.32-.32.43-.52l-.68-1.87.51-.14.44,1.51.43-1.52.51.14-.6,1.66Z" style="fill: #231815;"/>
    </g>
    <g style="clip-path: url(#aa);">
      <path d="M156.49,19.49h-8.05c-1.34,0-2.43-1.09-2.43-2.43v-8.02c0-1.34,1.09-2.43,2.43-2.43h8.05c1.34,0,2.43,1.09,2.43,2.43v8.02c0,1.34-1.09,2.43-2.43,2.43M148.45,6.66c-1.31,0-2.38,1.07-2.38,2.38v8.02c0,1.31,1.07,2.38,2.38,2.38h8.05c1.31,0,2.38-1.07,2.38-2.38v-8.02c0-1.31-1.07-2.38-2.38-2.38h-8.05Z" style="fill: #898989;"/>
      <path d="M150.14,13.07h0s.94-2.7.94-2.7c.01-.03.03-.07.05-.09.02-.02.03-.03.05-.04h0s-.28-.96-.28-.96c-.04-.12-.15-.2-.27-.21h-2.01c-.12,0-.18.09-.15.21l1.14,3.79c.04.11.14.2.26.21.12-.01.23-.09.27-.21" style="fill: #dd1916;"/>
      <path d="M151.94,12.76l-.7-2.34s0,0,0,0l-.06-.19s-.04.02-.05.04c-.02.03-.04.06-.05.09l-.94,2.7h0c-.05.12-.15.2-.27.21,0,0,0,0,0,0h2.22l-.16-.52Z" style="fill: #961e23;"/>
      <path d="M151.28,10.22h-.01s-.04,0-.07.01h-.01s.06-.01.09-.01" style="fill: #eacc2f;"/>
      <path d="M151.28,10.22s-.06,0-.09.02l.75,2.52h0s.16.52.16.52l.09.32c.04.12.15.2.27.21.11,0,.24-.09.29-.21,0,0,0,0,0,0l1-2.86-.11-.37c-.04-.11-.09-.15-.23-.14h-2.13Z" style="fill: #f5d522;"/>
      <polygon points="151.24 10.42 151.24 10.42 151.94 12.76 151.94 12.76 151.19 10.23 151.24 10.42" style="fill: #eacc2f;"/>
      <path d="M155.02,13.8c.12,0,.25-.09.29-.21l1.35-3.84c.04-.12-.01-.21-.13-.21h-2.14c-.12,0-.25.1-.29.21l-.34.98-1.01,2.86h0c-.04.12-.17.21-.29.21h2.56Z" style="fill: #f0832e;"/>
      <path d="M147.44,14.82h-.4v.33h-.19v.36h.19v.42c0,.33.27.55.6.55h.23v-.35h-.23c-.11,0-.21-.09-.21-.21v-.42h.26c.1,0,.18-.09.18-.19v-.17h-.44v-.33ZM149.71,15.95c0,.11-.09.21-.21.21s-.21-.09-.21-.21v-.6c0-.11-.08-.19-.19-.19h-.21v.74c0,.33.18.6.6.6s.6-.27.6-.6v-.74h-.4v.8M151.47,15.86c0-.41-.23-.74-.64-.74-.36,0-.65.29-.65.69,0,.43.26.68.65.69.24,0,.47-.13.58-.35l-.36-.09c-.05.07-.14.11-.22.11-.14,0-.26-.1-.26-.22h.9s0-.07,0-.09M150.56,15.67c0-.12.12-.22.26-.22s.26.1.26.22h-.52ZM148.57,15.15h-.05c-.3,0-.55.24-.55.55h0v.78h.4v-.76c0-.11.09-.2.21-.2h.23v-.36h-.23Z" style="fill: #dd1916; fill-rule: evenodd;"/>
      <path d="M153.45,15.6c0-.27-.2-.48-.51-.48-.19,0-.29.06-.38.15-.09-.09-.2-.15-.39-.15-.31,0-.51.21-.51.48v.77c0,.07.06.13.13.13s.13-.06.13-.13v-.77c.01-.14.13-.25.27-.24.13,0,.23.11.24.23h0v.77c0,.07.06.13.13.13s.13-.06.13-.13v-.77h0c0-.14.12-.24.26-.24.13,0,.25.1.25.24v.77c0,.07.06.13.13.13s.13-.06.13-.13v-.77Z" style="fill: #f0832e;"/>
      <path d="M154.11,15.12c-.32,0-.57.26-.57.58v.22c0,.32.25.58.57.58.32,0,.58-.25.58-.57h0v-.23c0-.32-.26-.58-.58-.58M154.43,15.93c0,.18-.12.33-.32.33s-.32-.15-.32-.33v-.23c0-.18.13-.33.32-.33s.32.15.32.33v.23Z" style="fill: #f0832e;"/>
      <path d="M155.86,15.6c0-.27-.18-.48-.53-.48s-.54.21-.54.48v.77c0,.07.06.13.13.13s.13-.06.13-.13v-.75c0-.13.12-.26.29-.26.14,0,.26.11.27.25h0v.76c0,.07.06.13.13.13s.13-.06.13-.13v-.77Z" style="fill: #f0832e;"/>
      <path d="M158.27,15.25c0-.07-.06-.13-.13-.13s-.13.06-.13.13v.77c0,.13-.12.24-.28.24-.14,0-.28-.11-.28-.24v-.77c0-.07-.06-.13-.13-.13s-.13.06-.13.13v.77c0,.28.21.48.54.48.05,0,.2,0,.28-.1,0,.1,0,.23-.03.28-.04.07-.1.12-.22.12-.07,0-.16-.04-.18-.05-.07-.02-.13-.01-.16.05-.03.07.03.13.07.16.07.04.15.06.23.07.12.01.31,0,.45-.2.07-.1.1-.22.09-.35v-1.23Z" style="fill: #f0832e;"/>
      <path d="M156.55,15.12c-.36,0-.61.3-.61.7s.19.63.47.67c.32.05.52-.1.56-.14.05-.05.05-.12.02-.18-.05-.05-.12-.05-.17-.01-.08.06-.18.09-.28.09-.05,0-.11-.01-.15-.04-.1-.05-.17-.15-.18-.27h.78c.07,0,.11-.06.11-.14,0-.13-.04-.69-.55-.69M156.86,15.74h-.65s0-.38.34-.38c.32,0,.31.38.31.38" style="fill: #f0832e;"/>
    </g>
    <g style="clip-path: url(#ab);">
      <path d="M163.88,12.18v.3h-.18c-.22,0-.3-.1-.3-.26-.11.16-.27.28-.54.28-.35,0-.6-.17-.6-.47,0-.33.24-.52.69-.52h.41v-.1c0-.18-.13-.29-.35-.29-.2,0-.34.1-.36.24h-.34c.03-.32.31-.51.72-.51.43,0,.68.2.68.59v.65c0,.08.03.11.1.11h.07ZM163.36,11.75h-.42c-.21,0-.33.08-.33.24,0,.14.11.23.3.23.28,0,.45-.17.45-.42v-.06Z" style="fill: #9d9d9d;"/>
      <path d="M165.54,11.57v.9h-.34v-.87c0-.31-.13-.47-.39-.47-.27,0-.43.2-.43.53v.82h-.34v-1.62h.3l.04.21c.1-.13.26-.23.52-.23.36,0,.65.2.65.74" style="fill: #9d9d9d;"/>
      <path d="M167.03,10.26h.34v2.21h-.3l-.04-.24c-.1.14-.27.26-.53.26-.44,0-.77-.31-.77-.83s.33-.83.77-.83c.25,0,.42.1.52.24v-.82ZM167.04,11.67c0-.32-.19-.54-.47-.54s-.47.22-.47.54.19.54.47.54.47-.22.47-.53" style="fill: #9d9d9d;"/>
      <path d="M170.93,11.54v.93h-.34v-.91c0-.28-.12-.43-.34-.43-.24,0-.38.18-.38.47v.88h-.35v-.91c0-.28-.12-.43-.34-.43-.24,0-.38.19-.38.48v.87h-.34v-1.62h.3l.04.21c.09-.12.23-.23.47-.23.21,0,.4.09.5.29.11-.18.29-.29.55-.29.34,0,.61.19.61.71" style="fill: #9d9d9d;"/>
      <path d="M171.14,11.66c0-.49.33-.83.83-.83s.82.34.82.83-.33.83-.82.83-.83-.33-.83-.83M172.44,11.66c0-.31-.19-.54-.48-.54s-.48.23-.48.54.19.54.48.54.48-.23.48-.54" style="fill: #9d9d9d;"/>
      <path d="M173.93,10.85v.32h-.15c-.3,0-.4.24-.4.49v.81h-.34v-1.62h.3l.04.24c.08-.14.21-.24.48-.24h.08Z" style="fill: #9d9d9d;"/>
      <path d="M173.97,11.67c0-.5.32-.83.8-.83s.78.3.79.77c0,.04,0,.08-.01.13h-1.22v.02c.01.27.18.45.45.45.21,0,.36-.1.41-.28h.34c-.06.32-.33.56-.73.56-.51,0-.83-.33-.83-.83M175.21,11.49c-.03-.24-.2-.38-.43-.38-.22,0-.4.15-.43.38h.86Z" style="fill: #9d9d9d;"/>
      <path d="M162.55,14.92c0-.5.32-.83.8-.83s.78.3.79.77c0,.04,0,.08-.01.13h-1.22v.02c.01.27.18.45.45.45.21,0,.36-.1.41-.28h.34c-.06.32-.33.56-.73.56-.51,0-.83-.33-.83-.83M163.78,14.74c-.03-.24-.2-.38-.43-.38-.22,0-.4.15-.43.38h.86Z" style="fill: #9d9d9d;"/>
      <rect x="164.38" y="14.68" width="1.08" height=".28" style="fill: #9d9d9d;"/>
      <polygon points="165.53 14.11 165.89 14.11 166.26 15.35 166.63 14.11 166.94 14.11 167.3 15.35 167.68 14.11 168.03 14.11 167.49 15.73 167.12 15.73 166.78 14.62 166.43 15.73 166.05 15.73 165.53 14.11" style="fill: #9d9d9d;"/>
      <path d="M169.66,15.43v.3h-.18c-.22,0-.3-.1-.3-.26-.11.16-.27.28-.54.28-.35,0-.6-.17-.6-.48,0-.33.24-.52.69-.52h.41v-.1c0-.18-.13-.29-.35-.29-.2,0-.34.1-.36.24h-.34c.03-.32.31-.51.72-.51.43,0,.68.2.68.59v.65c0,.08.03.11.1.11h.07ZM169.15,15h-.42c-.21,0-.33.08-.33.24,0,.14.11.23.3.23.28,0,.45-.17.45-.42v-.06Z" style="fill: #9d9d9d;"/>
      <rect x="169.82" y="13.51" width=".34" height="2.21" style="fill: #9d9d9d;"/>
      <rect x="170.46" y="13.51" width=".34" height="2.21" style="fill: #9d9d9d;"/>
      <path d="M171.05,14.92c0-.5.32-.83.8-.83s.78.3.79.77c0,.04,0,.08-.01.13h-1.22v.02c.01.27.18.45.45.45.21,0,.36-.1.41-.28h.34c-.06.32-.33.56-.73.56-.51,0-.83-.33-.83-.83M172.28,14.74c-.03-.24-.2-.38-.43-.38-.22,0-.4.15-.43.38h.86Z" style="fill: #9d9d9d;"/>
      <path d="M172.98,14.41h-.28v-.3h.28v-.45h.34v.45h.4v.3h-.4v.84c0,.13.05.18.17.18h.24v.3h-.32c-.31,0-.44-.15-.44-.44v-.88Z" style="fill: #9d9d9d;"/>
      <path d="M174.2,15.19c.01.17.16.29.4.29.21,0,.35-.08.35-.21,0-.17-.15-.19-.4-.22-.37-.04-.66-.12-.66-.46,0-.31.27-.51.66-.5.4,0,.68.18.7.52h-.34c-.02-.15-.16-.25-.36-.25s-.34.08-.34.21c0,.15.15.17.39.2.37.04.67.12.67.48,0,.31-.29.51-.69.51-.43,0-.73-.2-.74-.55h.34Z" style="fill: #9d9d9d;"/>
      <path d="M162.59,9.74v-.93c0-.44.13-.84.36-1.18.38-.55,1.01-.92,1.73-.92h8.46c1.16,0,2.09.94,2.09,2.1v.93h.12v-.93c0-1.22-.99-2.22-2.21-2.22h-8.46c-1.22,0-2.21.99-2.21,2.22v.93h.12Z" style="fill: #9d9d9d;"/>
      <path d="M175.24,16.38v.91c0,.72-.36,1.35-.91,1.73-.34.23-.74.37-1.18.37h-8.46c-.14,0-.28-.01-.42-.04-.27-.06-.53-.16-.75-.32-.56-.38-.92-1.02-.92-1.74v-.91h-.12v.91c0,1.22.99,2.22,2.21,2.22h8.46c1.22,0,2.21-1,2.21-2.22v-.91h-.12Z" style="fill: #9d9d9d;"/>
    </g>
    <g style="clip-path: url(#ac);">
      <rect x="79.83" y="5.8" width="14.48" height="14.48" style="fill: #2096d5;"/>
      <rect x="80.1" y="6.07" width="13.95" height="13.95" style="fill: #298dc5;"/>
    </g>
    <g style="clip-path: url(#ad);">
      <rect x="80.1" y="6.07" width="7.51" height="7.51" style="fill: #fff;"/>
    </g>
    <g style="clip-path: url(#ae);">
      <path d="M81.91,8.08l-.18.18s-.02.05,0,.08l.51.52-.63.63-.51-.51s-.05-.02-.07,0t0,0l-.18.18s-.02.05,0,.07l1.28,1.29s.05.02.07,0l.18-.18s.02-.05,0-.07l-.53-.54.63-.63.53.54s.05.02.07,0h0l.18-.18s.02-.05,0-.07l-1.28-1.29s-.05-.02-.07,0M83.18,6.79l-.19.2s-.02.04-.02.06l.06,1.04-.52-.53s-.07-.02-.09,0l-.17.17s-.03.07,0,.09h0l1.26,1.27s.07.03.09,0c0,0,0,0,0,0l.17-.17s.02-.07,0-.09l-.59-.59,1.12.12s.04,0,.05-.02l.21-.21s.02-.06,0-.09c0,0-.02-.02-.03-.02l-1.19-.11-.06-1.08s-.03-.06-.06-.06c-.02,0-.03,0-.04.02" style="fill: #2096d5;"/>
    </g>
    <g style="clip-path: url(#af);">
      <polygon points="79.65 9.18 83.26 5.54 85.77 8.08 82.16 11.72 79.65 9.18" style="fill: #2096d5;"/>
    </g>
    <g style="clip-path: url(#ag);">
      <rect x="80.29" y="6.23" width="4.85" height="4.83" style="fill: #2096d5;"/>
    </g>
    <g style="clip-path: url(#ah);">
      <rect x="81.09" y="8.76" width="12.96" height="9.12" style="fill: #fff;"/>
    </g>
    <g style="clip-path: url(#ai);">
      <path d="M93.51,8.76v-.02c0-.29-.06-.57-.17-.83-.32-.77-1.08-1.3-1.96-1.3h-.01c1.18,0,2.14.96,2.14,2.14" style="fill: #fff;"/>
      <path d="M93.51,17.35h0c0,1.17-.96,2.13-2.14,2.13h-8.58c-1.18,0-2.15-.96-2.15-2.15v-8.55c0-1.2.98-2.18,2.18-2.18h-.05c-1.18,0-2.13.95-2.13,2.13v8.61c0,1.18.95,2.13,2.13,2.13h8.61c.88,0,1.64-.54,1.96-1.3.05-.13.1-.26.12-.4.03-.14.04-.28.04-.43" style="fill: #fff;"/>
      <path d="M93.63,8.74c0-1.24-1.01-2.25-2.25-2.25h-8.61c-1.24,0-2.25,1.01-2.25,2.25v8.61c0,1.24,1.01,2.25,2.25,2.25h8.61c1.24,0,2.25-1.01,2.25-2.25v-8.61ZM93.34,18.18c-.32.76-1.08,1.3-1.96,1.3h-8.61c-1.18,0-2.13-.95-2.13-2.13h0v-8.61c0-1.18.95-2.13,2.13-2.13h8.61c.88,0,1.64.54,1.96,1.3.11.26.17.54.17.83h0v8.6h0c0,.16-.01.31-.04.44-.03.14-.07.27-.12.4" style="fill: #fff;"/>
      <path d="M93.63,8.74c0-1.24-1.01-2.25-2.25-2.25h-8.61c-1.24,0-2.25,1.01-2.25,2.25v8.61c0,1.24,1.01,2.25,2.25,2.25h8.61c1.24,0,2.25-1.01,2.25-2.25v-8.61ZM93.34,18.18c-.32.76-1.08,1.3-1.96,1.3h-8.61c-1.18,0-2.13-.95-2.13-2.13h0v-8.61c0-1.18.95-2.13,2.13-2.13h8.61c.88,0,1.64.54,1.96,1.3.11.26.17.54.17.83h0v8.6h0c0,.16-.01.31-.04.44-.03.14-.07.27-.12.4" style="fill: #f2f2f2;"/>
    </g>
  </g>
  <g id="aj" data-name="WeChat Pay">
    <path d="M197.87,15.51c-.08.04-.18.07-.28.07-.24,0-.44-.13-.55-.32l-.04-.09-1.71-3.75s-.03-.09-.03-.13c0-.17.14-.31.31-.31.07,0,.13.02.19.06l2.02,1.44c.15.09.32.15.51.15.11,0,.22-.02.32-.06l9.49-4.22c-1.7-2-4.5-3.31-7.67-3.31-5.19,0-9.39,3.5-9.39,7.82,0,2.36,1.27,4.48,3.25,5.91.16.11.26.3.26.51,0,.07-.01.13-.03.2-.16.59-.41,1.53-.42,1.58-.02.07-.05.15-.05.23,0,.17.14.31.31.31.07,0,.12-.02.18-.06l2.06-1.19c.16-.09.32-.14.5-.14.1,0,.19.02.28.04.96.28,1.99.43,3.07.43,5.19,0,9.39-3.5,9.39-7.82,0-1.31-.39-2.54-1.07-3.63l-10.81,6.24-.07.04Z" style="fill: #25a439;"/>
    <path d="M223.08,13.5h-.62v-4.23c-.24.46-.41.77-.62,1.04l-.33-.58c.86-1.09,1.64-3.58,1.64-3.58l.58.14s-.37,1.17-.65,1.78v5.42Z" style="fill: #514f4e;"/>
    <path d="M224.17,13.36h4.33v-2.55h-4.33v2.55ZM227.91,12.84h-3.13v-1.47h3.13v1.47Z" style="fill: #514f4e;"/>
    <rect x="224.11" y="9.6" width="4.45" height=".52" style="fill: #514f4e;"/>
    <rect x="224.11" y="8.38" width="4.45" height=".52" style="fill: #514f4e;"/>
    <rect x="223.71" y="7.13" width="5.27" height=".55" style="fill: #514f4e;"/>
    <polygon points="225.83 6.36 226.28 7.45 226.83 7.27 226.33 6.15 225.83 6.36" style="fill: #514f4e;"/>
    <path d="M213.58,8.11c.53-.51,1.03-1.23,1.41-1.99l.48.32c-.37.77-.94,1.57-1.6,2.18l-.29-.51Z" style="fill: #514f4e;"/>
    <path d="M214.94,13.5h-.55v-3.16c-.32.42-.5.65-.6.75-.06-.11-.31-.54-.31-.54.59-.63,1.12-1.49,1.48-2.39l.49.26c-.23.56-.45.93-.51,1.05v4.03Z" style="fill: #514f4e;"/>
    <path d="M215.15,12.82c.69-.54.61-1.29.61-2.3h2.1v1.41c.1-.09.42-.37.53-.46l.26.44-1.17.99s-.25-.43-.3-.51c.07-.08.16-.23.16-.54v-.81h-1.06c0,1.2-.05,1.64-.85,2.27,0,0-.19-.34-.28-.48" style="fill: #514f4e;"/>
    <polygon points="218.25 8.66 215.58 8.66 215.58 6.83 216.1 6.83 216.1 8.17 216.67 8.17 216.67 6.25 217.19 6.25 217.19 8.17 217.76 8.17 217.76 6.8 218.25 6.8 218.25 8.66" style="fill: #514f4e;"/>
    <path d="M219.88,11.5c.42-.79.68-1.94.78-3.42h.4v-.52h-1.65c.13-.41.26-.84.37-1.28v-.05s-.54-.11-.54-.11v.05c-.26,1.13-.61,2.09-1.07,2.91.05.08.31.53.31.53.1-.15.15-.24.25-.41.09.81.27,1.58.56,2.3-.45.8-1.26,1.47-1.26,1.47l.3.52c.59-.52,1.02-1.03,1.25-1.42.21.46,1.13,1.4,1.13,1.4,0,0,.28-.48.32-.55-.18-.16-.81-.76-1.14-1.41M219.11,8.38s.11-.26.11-.29h.91c-.08,1.2-.25,2.13-.52,2.78-.22-.56-.39-1.4-.5-2.48" style="fill: #514f4e;"/>
    <rect x="215.63" y="9.32" width="2.5" height=".52" style="fill: #514f4e;"/>
    <path d="M239.21,13.5h-.62v-4.26c-.21.35-.46.7-.73,1.05l-.34-.59c.72-.98,1.33-2.18,1.78-3.51v-.04s.66.14.66.14l-.02.05c-.26.68-.51,1.26-.73,1.73v5.43Z" style="fill: #514f4e;"/>
    <rect x="239.75" y="7.92" width="5.12" height=".58" style="fill: #514f4e;"/>
    <polygon points="241.53 11.5 240.48 9.71 240.99 9.41 242.11 11.18 241.53 11.5" style="fill: #514f4e;"/>
    <path d="M242.71,13.39h-.45l-.37-.64h.82c.25,0,.46-.2.46-.46v-6.12h.64v6.12c0,.6-.49,1.09-1.09,1.09" style="fill: #514f4e;"/>
    <path d="M233.93,11.97c1.91-1.4,2.23-3.06,2.23-3.06h-2.54v-1.16h3.15v-.55h-3.15v-1.07h-.61v1.07h-3.27v.55h3.27v1.16h-2.54s.37,1.7,2.28,3.07c-.78.42-1.82.74-3.09.94,0,0,.26.47.36.61,1.4-.24,2.48-.68,3.31-1.17.83.48,1.89.9,3.24,1.13.17-.27.37-.63.37-.63-1.24-.19-2.25-.48-3.02-.89M231.35,9.45h3.96c-.21.45-.75,1.37-1.96,2.17-1.21-.79-1.77-1.7-2-2.17" style="fill: #514f4e;"/>
    <path d="M214.69,19.64l-1.03-4.06h.56l.48,2.05c.12.51.23,1.01.3,1.4h.01c.07-.4.19-.88.33-1.41l.54-2.05h.55l.49,2.06c.11.48.22.96.28,1.39h.01c.08-.45.2-.9.33-1.4l.54-2.05h.53l-1.15,4.06h-.55l-.51-2.11c-.13-.52-.21-.91-.26-1.32h-.01c-.07.4-.16.8-.31,1.32l-.58,2.11h-.55Z" style="fill: #514f4e;"/>
    <path d="M219.38,18.28c.01.72.47,1.01,1,1.01.31,0,.52-.04.7-.11.05.08.2.34.2.34-.19.08-.51.18-.97.18-.9,0-1.43-.59-1.43-1.47s.52-1.57,1.37-1.57c.95,0,1.2.84,1.2,1.37,0,.11-.01.19-.02.25h-2.05ZM220.93,17.9c0-.34-.14-.86-.73-.86-.54,0-.77.49-.81.86h1.55Z" style="fill: #514f4e;"/>
    <path d="M225.13,19.5c-.19.1-.58.19-1.07.19-1.14,0-2-.72-2-2.05s.86-2.13,2.12-2.13c.51,0,.82.11.96.18,0,0-.16.28-.23.38-.19-.07-.44-.12-.72-.12-.95,0-1.58.61-1.58,1.67,0,.99.57,1.63,1.56,1.63.27,0,.54-.05.75-.12.05.08.21.37.21.37" style="fill: #514f4e;"/>
    <path d="M225.95,15.37h.53v1.82h.01c.08-.15.22-.28.38-.37.16-.09.34-.15.54-.15.39,0,1.02.24,1.02,1.25v1.73h-.53v-1.67c0-.47-.18-.87-.68-.87-.34,0-.61.24-.71.53-.03.07-.04.15-.04.25v1.76h-.53v-4.27Z" style="fill: #514f4e;"/>
    <path d="M231.08,19.64l-.04-.37h-.02c-.16.23-.48.43-.89.43-.59,0-.89-.42-.89-.84,0-.7.63-1.09,1.75-1.08v-.06c0-.24-.07-.67-.66-.67-.24,0-.5.07-.7.18-.05-.08-.18-.31-.18-.31.24-.16.59-.26.96-.26.89,0,1.11.61,1.11,1.19v1.09c0,.25.01.5.05.7h-.48ZM231,18.15c-.58-.01-1.23.09-1.23.66,0,.34.23.5.5.5.38,0,.62-.24.7-.49.02-.05.03-.11.03-.17v-.51Z" style="fill: #514f4e;"/>
    <path d="M240.99,19.64l-.04-.37h-.02c-.16.23-.48.43-.89.43-.59,0-.89-.42-.89-.84,0-.7.63-1.09,1.75-1.08v-.06c0-.24-.07-.67-.66-.67-.24,0-.5.07-.7.18-.05-.08-.18-.31-.18-.31.24-.16.59-.26.96-.26.89,0,1.11.61,1.11,1.19v1.09c0,.25.01.5.05.7h-.48ZM240.91,18.15c-.58-.01-1.23.09-1.23.66,0,.34.23.5.5.5.38,0,.62-.24.7-.49.02-.05.03-.11.03-.17v-.51Z" style="fill: #514f4e;"/>
    <path d="M233.16,15.89v.84h.76v.4h-.76v1.57c0,.36.1.57.4.57.04,0,.08,0,.12,0,.06.1.21.37.21.37-.1.04-.26.07-.47.07-.25,0-.44-.08-.57-.22-.15-.15-.2-.41-.2-.76v-1.59h-.45v-.4h.45v-.84h.52Z" style="fill: #514f4e;"/>
    <path d="M236.17,15.63c.25-.04.58-.08,1-.08.52,0,.9.12,1.14.34.22.19.36.49.36.85s-.11.66-.31.87c-.28.29-.73.44-1.24.44-.16,0-.3,0-.42-.03v1.62h-.52v-4.01ZM236.69,17.59c.11.03.26.04.43.04.63,0,1.02-.31,1.02-.87s-.38-.79-.96-.79c-.23,0-.4.02-.49.04v1.58Z" style="fill: #514f4e;"/>
    <path d="M242.6,16.73l.64,1.72c.07.19.14.42.19.6h.01c.05-.17.11-.4.19-.61l.58-1.71h.56l-.79,2.08c-.38,1-.64,1.51-1,1.82-.2.18-.4.27-.54.32-.04-.08-.24-.42-.24-.42.13-.04.31-.13.46-.26.14-.11.32-.32.44-.59.02-.05.04-.09.04-.12s-.01-.07-.04-.14l-1.08-2.68h.58Z" style="fill: #514f4e;"/>
  </g>
  <g>
    <path d="M17.82,39.96c-2.48,0-4.43,1.93-4.43,4.4s1.95,4.4,4.43,4.4,4.43-1.93,4.43-4.4-1.95-4.4-4.43-4.4M19.47,46.03c-.44.44-1.02.69-1.65.69h0c-.63,0-1.21-.24-1.65-.69-.44-.44-.68-1.03-.68-1.67s.24-1.22.68-1.67c.44-.44,1.02-.69,1.65-.69h0c.63,0,1.21.24,1.65.69.44.44.68,1.03.68,1.67s-.24,1.22-.68,1.67" style="fill: #c09a35;"/>
    <rect x="24.73" y="40.23" width="2.13" height="8.29" style="fill: #c09a35;"/>
    <polygon points="45.02 43.22 45.02 39.96 42.89 39.96 42.89 43.22 39.73 43.22 39.73 45.27 42.89 45.27 42.89 48.52 45.02 48.52 45.02 45.27 48.18 45.27 48.18 43.22 45.02 43.22" style="fill: #c09a35;"/>
    <path d="M8.83,50.79c-3.54,0-6.42-2.88-6.42-6.42s2.88-6.42,6.42-6.42c1.57,0,3.01.57,4.13,1.51.62-.74.85-1.01,1.44-1.71-1.51-1.27-3.45-2.03-5.57-2.03-4.78,0-8.66,3.88-8.66,8.66s3.89,8.66,8.66,8.66c2.12,0,4.06-.77,5.57-2.03l-1.44-1.71c-1.12.94-2.56,1.51-4.13,1.51" style="fill: #c09a35;"/>
    <path d="M8.83,42.02c.57,0,1.1.21,1.51.55.35-.42.79-.93,1.33-1.58-.77-.65-1.76-1.03-2.84-1.03-2.44,0-4.41,1.97-4.41,4.41s1.97,4.41,4.41,4.41c1.08,0,2.07-.39,2.84-1.03l-1.33-1.58c-.41.34-.93.55-1.51.55-1.29,0-2.3-1.03-2.3-2.35s1.01-2.35,2.3-2.35" style="fill: #c09a35;"/>
    <path d="M35.75,40.62c-.55-.38-1.21-.61-1.96-.65-.18,0-.36,0-.54,0-.74.03-1.41.26-1.95.65-.92.64-1.55,1.68-1.59,2.93,0,.1,0,.28,0,.88v4.09h2.13v-4.08c0-.46,0-.76,0-.83.02-.64.3-1.13.76-1.39.02,0,.04-.02.05-.03.02,0,.03-.01.05-.02.12-.06.25-.1.38-.12h.01s.08-.02.12-.02c.05,0,.09,0,.14-.01.06,0,.12,0,.18,0s.12,0,.18,0c.05,0,.1,0,.14.01.04,0,.08.01.12.02h.01c.13.03.26.07.39.12.01,0,.03.01.04.02.02.01.04.02.06.03.46.26.74.75.76,1.4,0,.06,0,.36,0,.82v4.08h2.13v-4.09c0-.6,0-.78,0-.88-.05-1.26-.67-2.3-1.59-2.94" style="fill: #c09a35;"/>
  </g>
  <g style="clip-path: url(#ak);">
    <path d="M133.51,37.52h7.71c1.65,0,2.98,1.34,2.98,2.98v7.72c0,1.65-1.34,2.98-2.98,2.98h-7.72c-1.65,0-2.98-1.34-2.98-2.98v-7.71c0-1.65,1.34-2.98,2.98-2.98Z" style="fill: #c01733;"/>
    <path d="M134.14,40.67v1.47c-.2-.11-.44-.19-.72-.19-.99,0-1.52.77-1.52,1.5s.53,1.5,1.52,1.5c.75,0,1.02-.36,1.54-.6v-3.69h-.83ZM132.74,43.46c0-.36.25-.73.71-.73s.7.34.71.71v.04c0,.36-.25.71-.71.71s-.71-.36-.71-.72" style="fill: #fff;"/>
    <path d="M135.95,44.35h.04c.38,0,.39,0,.39-.2v-.51c-.14.04-.31.08-.48.12l-.1-.46c.2-.04.4-.09.58-.14v-.66h-.48v-.45h.48v-.58h.45v.58h.42v.45h-.42v.51c.2-.08.35-.14.42-.17v.46c-.07.04-.22.11-.42.19v.7c0,.52-.03.63-.7.65l-.18-.48ZM138.76,44.85c-.04-.16-.08-.31-.12-.44-.4.14-.87.24-1.68.36l-.1-.48c.09,0,.2-.03.26-.03.28-.85.51-1.78.68-2.76l.5.08c-.18.93-.39,1.76-.64,2.59.36-.07.62-.13.84-.21-.09-.26-.19-.5-.31-.77l.4-.21c.23.52.41.94.62,1.64l-.44.23Z" style="fill: #fff;"/>
    <path d="M141.26,44.4c-.14.1-.47.31-.81.31-.49,0-.87-.4-.87-1.52,0-.55.08-1.09.15-1.44h.51c-.1.5-.16,1-.16,1.49,0,.59.15.95.44.95.26,0,.55-.23.75-.4v.59ZM142.15,44.38c0-.96-.11-1.7-.66-2.53h.57c.37.6.6,1.33.6,2.53h-.51Z" style="fill: #fff;"/>
    <path d="M135.21,47.51c0,.52-.42.95-.95.95s-.95-.42-.95-.95.42-.95.95-.95.95.42.95.95" style="fill: #e6de64;"/>
    <path d="M138.31,47.51c0,.52-.42.95-.95.95s-.95-.42-.95-.95.42-.95.95-.95.95.42.95.95" style="fill: #e6de64;"/>
    <path d="M141.4,47.51c0,.52-.42.95-.95.95s-.95-.42-.95-.95.42-.95.95-.95.95.42.95.95" style="fill: #e6de64;"/>
    <path d="M154.04,38.21v4.23c-.57-.33-1.26-.53-2.06-.53-2.84,0-4.36,2.22-4.36,4.31s1.51,4.3,4.36,4.3c2.14,0,2.94-1.03,4.43-1.71v-10.6h-2.37ZM150,46.21c0-1.05.71-2.08,2.03-2.08s2.01.99,2.04,2.03v.11c-.02,1.04-.71,2.03-2.04,2.03s-2.03-1.03-2.03-2.08" style="fill: #040000;"/>
    <path d="M159.22,48.75h.12c1.09,0,1.12-.01,1.12-.57v-1.45c-.41.12-.9.24-1.36.35l-.29-1.33c.59-.11,1.16-.26,1.66-.4v-1.89h-1.39v-1.3h1.39v-1.67h1.29v1.67h1.2v1.3h-1.2v1.45c.59-.22,1.01-.41,1.2-.5v1.31c-.2.11-.63.31-1.2.54v2c0,1.48-.08,1.81-2,1.86l-.52-1.38ZM167.29,50.19c-.12-.45-.24-.88-.36-1.27-1.15.39-2.51.69-4.83,1.04l-.29-1.39c.25-.02.56-.08.74-.1.81-2.46,1.47-5.11,1.96-7.92l1.43.24c-.51,2.65-1.13,5.04-1.83,7.43,1.04-.18,1.79-.38,2.4-.59-.25-.75-.55-1.44-.88-2.21l1.15-.61c.66,1.49,1.18,2.7,1.79,4.71l-1.28.66Z" style="fill: #040000;"/>
    <path d="M174.45,48.9c-.39.29-1.35.9-2.34.9-1.42,0-2.51-1.15-2.51-4.35,0-1.57.24-3.12.42-4.12h1.47c-.29,1.44-.47,2.86-.47,4.29,0,1.7.43,2.74,1.27,2.74.76,0,1.58-.66,2.15-1.14v1.69ZM177.02,48.84c0-2.76-.31-4.89-1.88-7.27h1.63c1.07,1.71,1.72,3.81,1.72,7.27h-1.47Z" style="fill: #040000;"/>
  </g>
  <g style="clip-path: url(#al);">
    <path d="M199.94,33.33h8.8c1.23,0,1.99,1,1.71,2.23l-4.1,17.6c-.29,1.23-1.52,2.23-2.75,2.23h-8.8c-1.23,0-1.99-1-1.71-2.23l4.1-17.6c.29-1.23,1.52-2.23,2.75-2.23" style="fill: #df3232;"/>
    <path d="M208.01,33.33h10.12c1.23,0,.68,1,.39,2.23l-4.1,17.6c-.29,1.23-.2,2.23-1.43,2.23h-10.12c-1.23,0-1.99-1-1.7-2.23l4.1-17.6c.29-1.23,1.52-2.23,2.75-2.23" style="fill: #004889;"/>
    <path d="M217.73,33.33h8.8c1.23,0,1.99,1,1.71,2.23l-4.1,17.6c-.29,1.23-1.52,2.23-2.75,2.23h-8.8c-1.23,0-1.99-1-1.71-2.23l4.1-17.6c.29-1.23,1.52-2.23,2.75-2.23" style="fill: #00808a;"/>
    <path d="M216.26,49.88h.83l.24-.8h-.83l-.24.8ZM216.93,47.68l-.29.94s.32-.16.49-.21c.17-.04.43-.07.43-.07l.2-.66h-.83ZM217.34,46.32l-.28.91s.31-.14.48-.19c.17-.04.42-.06.42-.06l.2-.66h-.83ZM219.17,46.32l-1.07,3.55h.29l-.22.73h-.29l-.07.23h-1.02l.07-.23h-2.08l.21-.68h.21l1.09-3.61.22-.73h1.04l-.11.37s.28-.2.54-.27c.26-.07,1.77-.1,1.77-.1l-.22.72h-.36Z" style="fill: #fff; fill-rule: evenodd;"/>
    <path d="M219.63,45.6h1.11v.42c0,.07.06.1.19.1h.23l-.21.68h-.6c-.52.04-.72-.19-.7-.44l-.02-.77Z" style="fill: #fff;"/>
    <path d="M219.78,48.84h-1.06l.18-.61h1.21l.18-.55h-1.2l.2-.69h3.33l-.21.69h-1.11l-.18.55h1.12l-.18.61h-1.21l-.21.26h.49l.12.77c.01.07.02.13.04.16.02.03.17.04.26.04h.15l-.23.75h-.38c-.06,0-.15,0-.26-.01-.12,0-.19-.07-.27-.11-.07-.03-.17-.12-.2-.26l-.12-.76-.55.75c-.18.24-.41.42-.81.42h-.77l.2-.67h.3c.09,0,.16-.03.22-.06.06-.03.11-.05.16-.14l.8-1.13Z" style="fill: #fff;"/>
    <path d="M208.18,47.18h2.8l-.21.67h-1.12l-.17.57h1.15l-.21.69h-1.15l-.28.93c-.03.1.27.12.38.12l.57-.08-.23.76h-1.3c-.1,0-.18-.01-.29-.04-.11-.03-.16-.07-.21-.15-.04-.08-.12-.14-.07-.3l.37-1.23h-.64l.21-.7h.64l.17-.57h-.64l.2-.67Z" style="fill: #fff;"/>
    <path d="M210.07,45.98h1.15l-.21.7h-1.57l-.17.15c-.07.07-.1.04-.19.09-.09.04-.28.13-.52.13h-.5l.2-.67h.15c.13,0,.21-.01.26-.04.05-.03.11-.1.17-.22l.29-.52h1.14l-.2.38Z" style="fill: #fff;"/>
    <path d="M212.27,47.13s.32-.29.85-.39c.12-.02.89-.01.89-.01l.11-.38h-1.62l-.24.78ZM213.79,47.42h-1.61l-.1.32h1.39c.16-.02.2,0,.21,0l.1-.32ZM211.71,45.6h.98l-.14.49s.31-.25.53-.34c.22-.08.7-.15.7-.15h1.59s-.54,1.79-.54,1.79c-.09.31-.2.51-.26.6-.06.09-.13.17-.27.25-.13.07-.25.11-.37.12-.11,0-.27.02-.49.02h-1.53l-.43,1.42c-.04.14-.06.21-.03.25.02.03.07.07.15.07l.67-.07-.23.78h-.76c-.24,0-.41,0-.54-.01-.12,0-.24,0-.32-.06-.07-.06-.18-.14-.18-.23,0-.08.04-.2.09-.38l1.37-4.55Z" style="fill: #fff; fill-rule: evenodd;"/>
    <path d="M214.57,48.51l-.09.43c-.04.13-.07.24-.17.33-.11.09-.23.18-.53.18l-.54.02v.49c-.01.14.03.13.05.15.03.02.05.03.07.04h.17s.52-.04.52-.04l-.21.72h-.6c-.42,0-.73-.01-.83-.09-.1-.06-.11-.14-.11-.28l.04-1.91h.95v.39s.22,0,.22,0c.08,0,.13,0,.16-.03.03-.02.05-.05.06-.1l.09-.31h.75Z" style="fill: #fff;"/>
    <path d="M200.98,38.95c-.04.15-.64,2.97-.65,2.97-.13.57-.23.98-.55,1.24-.19.15-.4.23-.65.23-.4,0-.64-.2-.68-.57v-.13s.11-.77.12-.77c0,0,.64-2.57.76-2.91,0-.02,0-.03.01-.04-1.25.01-1.47,0-1.48-.02,0,.02-.04.19-.04.19l-.65,2.89-.06.25-.11.8c0,.24.04.43.14.6.3.53,1.15.6,1.63.6.62,0,1.2-.13,1.6-.37.68-.4.86-1.04,1.02-1.6l.08-.28s.66-2.67.77-3.01c0-.02,0-.03.01-.04-.9.01-1.17,0-1.26-.02" style="fill: #fff;"/>
    <path d="M204.64,44.25c-.44,0-.6,0-1.12.02l-.02-.04c.05-.2.09-.39.14-.59l.06-.27c.1-.42.19-.91.2-1.05,0-.09.04-.31-.22-.31-.11,0-.22.05-.33.11-.06.22-.19.85-.25,1.14-.13.6-.13.67-.19.97l-.04.04c-.46,0-.61,0-1.14.02l-.03-.04c.09-.36.18-.72.26-1.07.22-.97.27-1.34.33-1.83l.04-.03c.51-.07.64-.09,1.19-.2l.05.05-.09.31c.09-.06.18-.11.28-.16.26-.13.55-.17.71-.17.24,0,.51.07.62.35.11.25.04.56-.1,1.17l-.07.31c-.14.68-.16.8-.24,1.27l-.05.04Z" style="fill: #fff;"/>
    <path d="M206.44,44.25c-.27,0-.44,0-.61,0-.17,0-.33.01-.58.02l-.02-.02-.02-.02c.07-.26.11-.35.14-.44.03-.09.06-.18.12-.44.08-.34.13-.57.16-.78.04-.2.06-.37.08-.57l.02-.02.02-.02c.27-.04.43-.06.61-.09.17-.02.35-.06.62-.11v.02s.02.03.02.03c-.05.21-.1.42-.15.63-.05.21-.1.42-.15.63-.1.45-.14.61-.16.73-.02.11-.03.18-.07.41l-.02.02-.03.02Z" style="fill: #fff;"/>
    <path d="M209.25,42.67c-.02.12-.12.54-.26.72-.1.13-.21.21-.33.21-.04,0-.25,0-.26-.32,0-.16.03-.33.07-.5.12-.51.26-.95.6-.95.28,0,.3.32.18.84M210.41,42.72c.16-.68.04-1-.12-1.19-.23-.29-.64-.39-1.06-.39-.25,0-.86.03-1.33.46-.34.31-.5.74-.59,1.15-.09.41-.2,1.17.48,1.44.21.09.52.12.72.12.5,0,1.02-.14,1.41-.55.31-.34.44-.84.49-1.04" style="fill: #fff;"/>
    <path d="M221.23,44.29c-.53,0-.69,0-1.18.02l-.03-.04c.14-.51.27-1.01.39-1.53.16-.67.19-.95.24-1.34l.04-.03c.53-.08.68-.1,1.23-.2l.02.05c-.1.42-.2.84-.3,1.26-.2.88-.28,1.33-.35,1.78l-.05.04Z" style="fill: #fff;"/>
    <path d="M220.43,42.74c-.03.11-.13.54-.26.72-.09.13-.31.21-.43.21-.03,0-.25,0-.26-.32,0-.16.03-.32.07-.5.12-.5.26-.93.61-.93.27,0,.39.31.27.83M221.49,42.78c.16-.68-.47-.06-.57-.28-.15-.35-.06-1.06-.67-1.29-.24-.09-.79.03-1.27.46-.33.31-.5.74-.59,1.14-.1.41-.2,1.16.48,1.43.22.09.42.12.61.11.69-.04,1.22-1.08,1.61-1.49.3-.33.35.12.4-.08" style="fill: #fff;"/>
    <path d="M213.43,44.25c-.44,0-.59,0-1.12.02l-.02-.04c.04-.2.09-.39.14-.59l.06-.27c.1-.42.19-.91.2-1.05,0-.09.04-.31-.21-.31-.11,0-.22.05-.33.11-.06.22-.19.85-.25,1.14-.12.6-.13.67-.19.97l-.04.04c-.46,0-.61,0-1.14.02l-.02-.04c.09-.36.17-.72.26-1.07.22-.97.27-1.34.33-1.83l.04-.03c.51-.07.64-.09,1.19-.2l.04.05-.08.31c.09-.06.19-.11.28-.16.26-.13.55-.17.71-.17.24,0,.51.07.62.35.11.25.04.56-.11,1.17l-.07.31c-.14.68-.17.8-.24,1.27l-.06.04Z" style="fill: #fff;"/>
    <path d="M217.27,38.95h-.37c-.96.01-1.34,0-1.5-.01-.01.07-.04.2-.04.2,0,0-.34,1.59-.34,1.59,0,0-.82,3.38-.86,3.54.84,0,1.18,0,1.32,0,.03-.16.23-1.1.23-1.1,0,0,.17-.7.18-.72,0,0,.05-.07.1-.1h.08c.72,0,1.53,0,2.17-.47.43-.32.73-.8.86-1.37.03-.14.06-.31.06-.48,0-.22-.05-.44-.17-.61-.33-.46-.97-.46-1.72-.47M217.75,40.6c-.08.35-.31.65-.6.79-.24.12-.54.13-.85.13h-.2v-.08s.38-1.58.38-1.58v-.08s.02-.06.02-.06l.14.02s.75.06.77.07c.29.11.42.41.33.8" style="fill: #fff;"/>
    <path d="M225.61,41.17l-.04-.05c-.55.11-.64.13-1.15.19l-.04.04s0,.02,0,.02h0c-.38.86-.36.67-.67,1.35,0-.03,0-.05,0-.09l-.08-1.47-.05-.05c-.57.11-.59.13-1.12.19l-.04.04s0,.04,0,.06h0c.06.34.05.27.11.8.03.26.07.53.1.79.05.43.08.64.15,1.3-.36.59-.45.81-.78,1.33l.02.05c.51-.02.64-.02,1.02-.02l.08-.1c.29-.62,2.49-4.4,2.49-4.4" style="fill: #fff;"/>
    <path d="M206.92,41.53c.29-.2.33-.49.08-.63-.25-.15-.69-.1-.98.1-.3.2-.33.49-.08.63.25.14.69.1.98-.11" style="fill: #fff;"/>
    <path d="M223.08,45.62l-.43.74c-.13.25-.39.44-.79.44h-.69s.2-.67.2-.67h.13c.07,0,.12,0,.16-.02.03-.01.06-.04.09-.08l.25-.4h1.07Z" style="fill: #fff;"/>
    <path d="M244.87,48.97h-.42v-3.75c0-.13-.03-.43-.24-.43h-3.94v-.42h3.94c.31,0,.67.23.67.86v3.75Z" style="fill: #231815;"/>
    <path d="M234.26,48.97h-.42v-3.75c0-.63.36-.86.67-.86h3.94v.42h-3.94c-.22,0-.24.3-.24.43v3.75Z" style="fill: #231815;"/>
    <path d="M238.44,55.39h-3.94c-.31,0-.67-.23-.67-.86v-3.75h.42v3.75c0,.13.02.43.25.43h3.94v.42Z" style="fill: #231815;"/>
    <path d="M244.2,55.39h-3.94v-.42h3.94c.22,0,.24-.3.24-.43v-3.75h.42v3.75c0,.63-.36.86-.67.86" style="fill: #231815;"/>
    <polygon points="239.57 50.09 235.56 50.09 235.56 49.67 239.14 49.67 239.14 46.08 239.57 46.08 239.57 50.09" style="fill: #231815;"/>
    <rect x="240.28" y="49.67" width="2.85" height=".42" style="fill: #231815;"/>
    <rect x="239.14" y="50.79" width=".42" height="2.89" style="fill: #231815;"/>
    <path d="M238.45,48.97h-2.89v-2.89h2.89v2.89ZM235.98,48.55h2.04v-2.04h-2.04v2.04Z" style="fill: #231815;"/>
    <path d="M243.15,48.97h-2.89v-2.89h2.89v2.89ZM240.68,48.55h2.04v-2.04h-2.04v2.04Z" style="fill: #231815;"/>
    <path d="M238.45,53.67h-2.89v-2.89h2.89v2.89ZM235.98,53.25h2.04v-2.04h-2.04v2.04Z" style="fill: #231815;"/>
    <rect x="240.26" y="50.78" width=".42" height="1.97" style="fill: #231815;"/>
    <polygon points="243.15 53.67 240.27 53.67 240.27 53.25 242.73 53.25 242.73 50.79 243.15 50.79 243.15 53.67" style="fill: #231815;"/>
    <rect x="241.49" y="50.79" width=".42" height="1.34" style="fill: #231815;"/>
  </g>
  <g style="clip-path: url(#am);">
    <path d="M90.34,42.7h-1.42s-.02,0-.03.01c-1.14,1.74-2.45,3.5-3.52,4.51-.37.35-.95.78-1.34.78-.33,0-.51-.32-.25-1.31.17-.61,1.81-6.77,1.94-7.26,0-.02,0-.03-.03-.03-.54,0-2.84-.06-3.62,2.84,0,0-.5,1.88-.72,2.68-.14.48-.34.92-.6,1.32-.86,1.3-2.06,1.86-2.77,1.86-.44,0-.68-.19-.77-.52-.08-.33.08-.99.16-1.31.05-.17.78-2.89,1.3-4.86.27-1.01.48-1.8.53-1.97h0s0-.03-.02-.03c-.54,0-2.84-.06-3.62,2.83,0,0-.87,3.24-.87,3.24-.06.2-.21.6-.45.96-.56.8-1.55,1.58-2.07,1.58-.37,0-.52-.35-.26-1.31l1.94-7.26s0-.03-.03-.03h-.83c-3.06,0-5.24.49-6.86,1.55-2.72,1.78-3.4,5.29-3.4,6.01,0,.77.24,2.38,2.91,2.38h.1c1.62-.03,2.77-.89,3.46-1.68.02-.02.04-.05.06-.07.01-.01.02,0,.03,0,.28,1.54,1.69,1.67,2.13,1.67,1.67,0,2.89-1.22,3.23-1.67.01-.01.03,0,.03,0,.17.79.79,1.75,2.85,1.75,1.67,0,2.85-.88,3.56-1.68.02-.02.04-.05.06-.07.01-.01.03,0,.03.01.25,1.42,1.49,1.66,2.1,1.66,1.36,0,2.33-.62,3.41-1.75,1.29-1.37,2.98-3.73,3.69-4.78,0-.02,0-.03-.01-.03M70.64,40.57l-1.12,4.17c-.14.55-.36,1.05-.65,1.48-.86,1.3-1.99,1.86-2.77,1.86-.87,0-.89-.73-.6-1.83,1.18-4.4,3.82-5.43,5.11-5.7.02,0,.03,0,.02.02" style="fill: #ea5504;"/>
    <path d="M108.18,49.34h-1.87l-.67-1.94h-3.6l-.67,1.94h-1.87l3.65-9.95h1.38l3.65,9.95ZM102.58,45.86h2.56l-1.26-3.69-1.3,3.69Z" style="fill: #ea5504;"/>
    <polygon points="115.98 39.39 113.93 39.39 111.49 44.4 109.04 39.39 107 39.39 110.6 46.39 110.6 49.34 112.37 49.34 112.37 46.39 115.98 39.39" style="fill: #ea5504;"/>
    <path d="M96.18,46.3c1.91,0,3.45-1.55,3.45-3.46s-1.55-3.45-3.45-3.45h-3.84v9.95h1.76v-3.04h2.08ZM94.1,44.71v-3.71h1.92c1.02,0,1.85.83,1.85,1.85s-.83,1.85-1.85,1.85h-1.92Z" style="fill: #ea5504;"/>
  </g>
</svg>