<?xml version="1.0" encoding="UTF-8"?>
<svg id="a" data-name="Layer 1" xmlns="http://www.w3.org/2000/svg" viewBox="0 0 55.52 70.35">
  <path d="M.73,26.56c.89,1.21,1.61,2.55,2.08,4,.49,1.45.76,2.99.76,4.62s-.27,3.17-.76,4.62c-.47,1.44-1.2,2.79-2.08,4.01-1.23,1.64-.88,3.96.77,5.18,1.64,1.21,3.95.87,5.18-.77,1.34-1.82,2.42-3.86,3.15-6.06.75-2.19,1.15-4.55,1.15-6.98s-.4-4.79-1.14-6.98c-.74-2.2-1.82-4.23-3.16-6.06-1.21-1.64-3.53-1.99-5.17-.76-1.65,1.21-2,3.53-.77,5.18M13.43,19.65c2.79,4.52,4.39,9.82,4.39,15.53s-1.6,11.01-4.39,15.54c-1.07,1.74-.54,4.02,1.21,5.09,1.74,1.07,4.03.52,5.1-1.21,3.48-5.64,5.49-12.31,5.49-19.42s-2.01-13.77-5.49-19.42c-1.07-1.74-3.36-2.29-5.1-1.21-1.74,1.08-2.28,3.36-1.21,5.1M26.88,12.61c3.88,6.63,6.08,14.33,6.08,22.57s-2.2,15.94-6.08,22.57c-1.04,1.77-.43,4.04,1.33,5.08,1.78,1.03,4.04.44,5.08-1.32,4.5-7.73,7.09-16.73,7.09-26.32,0-9.58-2.59-18.59-7.09-26.32-1.03-1.76-3.3-2.36-5.07-1.33-1.76,1.03-2.36,3.3-1.33,5.07M40.29,5.54c4.97,8.75,7.82,18.85,7.82,29.64s-2.84,20.89-7.82,29.63c-1,1.78-.39,4.05,1.38,5.06,1.79,1.01,4.04.39,5.06-1.39,5.59-9.82,8.78-21.19,8.78-33.3s-3.2-23.48-8.78-33.3c-1.01-1.78-3.27-2.4-5.06-1.39-1.77,1.02-2.39,3.28-1.38,5.05" style="fill: #101820;"/>
</svg>