<?xml version="1.0" encoding="UTF-8"?><svg id="a" xmlns="http://www.w3.org/2000/svg" xmlns:xlink="http://www.w3.org/1999/xlink" viewBox="0 0 481.94 101.97"><defs><clipPath id="b"><rect x="53.77" y="7.65" width="141.17" height="86.67" style="fill:none;"/></clipPath><clipPath id="c"><rect x="53.77" y="7.65" width="141.17" height="86.67" style="fill:none;"/></clipPath></defs><rect x="28.89" y=".38" width="310.81" height="101.22" rx="8.62" ry="8.62" style="fill:none; stroke:#040000; stroke-miterlimit:10; stroke-width:.75px;"/><g style="opacity:0;"><rect x="194.95" y="7.53" width="131.39" height="86.9" style="fill:#fff;"/></g><rect x="243.32" y="22.67" width="34.66" height="56.61" style="fill:#eb5f1b;"/><path d="M246.89,50.98c0-11.04,5.06-21.48,13.75-28.3-15.63-12.29-38.26-9.57-50.55,6.06-12.29,15.63-9.57,38.26,6.06,50.55,13.06,10.26,31.43,10.26,44.49,0-8.69-6.82-13.76-17.26-13.75-28.31Z" style="fill:#dc171f;"/><path d="M315.45,73.29v-1.16h.5v-.24h-1.19v.24h.47v1.16h.22ZM317.76,73.29v-1.4h-.36l-.42,1-.42-1h-.36v1.4h.26v-1.06l.39.91h.27l.39-.91v1.06h.25Z" style="fill:#ee9a23;"/><path d="M318.89,50.98c0,19.88-16.12,36-36,36-8.07,0-15.91-2.71-22.25-7.7,15.63-12.29,18.35-34.92,6.06-50.55-1.77-2.25-3.81-4.29-6.06-6.06,15.63-12.29,38.26-9.58,50.55,6.05,4.99,6.34,7.7,14.18,7.7,22.25h0Z" style="fill:#ee9a23;"/><g style="opacity:0;"><rect x="350.54" y="7.53" width="131.4" height="86.9" style="fill:#fff;"/></g><path d="M382.24,16.03h27.9c3.9,0,6.3,3.2,5.4,7.1l-13,55.7c-.9,3.9-4.8,7.1-8.7,7.1h-27.9c-3.9,0-6.3-3.2-5.4-7.1l13-55.7c.9-3.9,4.8-7.1,8.7-7.1" style="fill:#de2323;"/><path d="M407.84,16.03h32.1c3.9,0,2.1,3.2,1.2,7.1l-13,55.7c-.9,3.9-.6,7.1-4.5,7.1h-32.1c-3.9,0-6.3-3.2-5.4-7.1l13-55.7c.9-3.9,4.8-7.1,8.7-7.1" style="fill:#15315e;"/><path d="M438.64,16.03h27.9c3.9,0,6.3,3.2,5.4,7.1l-13,55.7c-.9,3.9-4.8,7.1-8.7,7.1h-27.9c-3.9,0-6.3-3.2-5.4-7.1l13-55.7c.9-3.9,4.8-7.1,8.7-7.1" style="fill:#016863;"/><path d="M433.94,68.43h2.6l.8-2.5h-2.6l-.8,2.5ZM436.04,61.53l-.9,3s1-.5,1.5-.7c.5-.1,1.4-.2,1.4-.2l.6-2.1h-2.6ZM437.34,57.23l-.9,2.9s1-.4,1.5-.6c.5-.1,1.4-.2,1.4-.2l.6-2.1s-2.6,0-2.6,0ZM443.14,57.23l-3.4,11.2h.9l-.7,2.3h-.9l-.2.7h-3.2l.2-.7h-6.6l.7-2.2h.7l3.4-11.4.7-2.3h3.3l-.3,1.2s.9-.6,1.7-.9c.8-.2,5.6-.3,5.6-.3l-.7,2.3h-1.1l-.1.1Z" style="fill:#fff; fill-rule:evenodd;"/><path d="M444.64,54.93h3.5v1.3c0,.2.2.3.6.3h.7l-.7,2.2h-1.9c-1.6.1-2.3-.6-2.2-1.4,0,0,0-2.4,0-2.4Z" style="fill:#fff;"/><path d="M445.14,65.13h-3.4l.6-1.9h3.8l.5-1.8h-3.8l.7-2.2h10.5l-.7,2.2h-3.5l-.6,1.8h3.5l-.6,1.9h-3.8l-.7.8h1.6l.4,2.4c0,.2,0,.4.1.5,0,0,.5.1.8.1h.5l-.7,2.4h-2c-.4,0-.6-.2-.9-.4-.2-.1-.5-.4-.6-.8l-.4-2.4-1.7,2.4c-.6.8-1.3,1.3-2.6,1.3h-2.4l.6-2.1h.9c.3,0,.5-.1.7-.2.2,0,.3-.2.5-.4l2.5-3.6h.2Z" style="fill:#fff;"/><path d="M408.34,59.93h8.9l-.7,2.1h-3.6l-.6,1.8h3.6l-.7,2.2h-3.6l-.9,2.9c-.1.3.9.4,1.2.4l1.8-.3-.7,2.4h-4.1c-.3,0-.6,0-.9-.1-.3,0-.5-.2-.7-.5-.1-.2-.4-.4-.2-.9l1.2-3.9h-2l.7-2.2h2l.5-1.8h-2l.6-2.1h.2Z" style="fill:#fff;"/><path d="M414.34,56.13h3.6l-.7,2.2h-5l-.5.5c-.2.2-.3.1-.6.3-.3.1-.9.4-1.6.4h-1.6l.6-2.1h.5c.4,0,.7,0,.8-.1.2,0,.3-.3.5-.7l.9-1.7h3.6l-.6,1.2h.1Z" style="fill:#fff;"/><path d="M421.34,59.73s1-.9,2.7-1.2h2.8l.4-1.2h-5.1l-.7,2.5-.1-.1ZM426.14,60.63h-5.1l-.3,1h5.1l.3-1ZM419.54,54.93h3.1l-.5,1.6s1-.8,1.7-1.1,2.2-.5,2.2-.5h5l-1.7,5.7c-.3,1-.6,1.6-.8,1.9-.2.3-.4.5-.9.8-.4.2-.8.4-1.2.4h-6.3l-1.4,4.5c-.1.4-.2.7-.1.8,0,.1.2.2.5.2l2.1-.2-.7,2.5h-4.1c-.4,0-.8,0-1-.2s-.6-.5-.6-.7.1-.7.3-1.2l4.3-14.4.1-.1Z" style="fill:#fff; fill-rule:evenodd;"/><path d="M428.54,64.13l-.3,1.4c-.1.4-.2.8-.6,1-.3.3-.7.6-1.7.6h-1.7v1.6q0,.4.2.5s.1.1.2.1h.5l1.6-.1-.7,2.3h-1.9c-1.3,0-2.3,0-2.6-.3-.3-.2-.4-.5-.3-.9v-6h3.1v1.2h1.2s.2-.2.2-.3l.3-1h2.4l.1-.1Z" style="fill:#fff;"/><path d="M385.54,33.83c-.1.5-2,9.4-2,9.4-.4,1.8-.7,3.1-1.7,3.9-.6.5-1.3.7-2.1.7-1.3,0-2-.6-2.1-1.8v-.4l.4-2.4s2-8.1,2.4-9.2v-.1h-4.7l-.1.6-2.1,9.2-.2.8-.3,2.5c0,.8.1,1.4.4,1.9.9,1.7,3.6,1.9,5.2,1.9s3.8-.4,5-1.2c2.2-1.3,2.7-3.3,3.2-5l.2-.9s2.1-8.5,2.5-9.5v-.1h-4" style="fill:#fff;"/><path d="M397.14,50.63h-3.5c.1-.7.3-1.4.4-2l.2-.9c.3-1.3.6-2.9.6-3.3,0-.3.1-1-.7-1s-.7.2-1.1.3c-.2.7-.6,2.7-.8,3.6-.4,1.9-.4,2.1-.6,3.1h-.1c-1.4.1-1.9.1-3.6.2h0c.3-1.3.6-2.4.8-3.5.7-3.1.9-4.2,1.1-5.8h.1c1.6-.3,2-.4,3.8-.7v.2c.1,0-.1,1-.1,1,.3-.2.6-.4.9-.5.8-.4,1.7-.5,2.3-.5.8,0,1.6.2,2,1.1.3.8.1,1.8-.3,3.7l-.2,1c-.5,2.1-.5,2.5-.8,4h-.4Z" style="fill:#fff;"/><path d="M402.84,50.63h-3.7v-.1c.2-.8.3-1.1.4-1.4.1-.3.2-.6.4-1.4.2-1.1.4-1.8.5-2.5.1-.6.2-1.2.3-1.8h0v-.1c.8-.1,1.4-.2,1.9-.3.6,0,1.1-.2,2-.4h0v.2c-.2.7-.3,1.3-.5,2s-.3,1.3-.5,2c-.3,1.4-.4,1.9-.5,2.3,0,.4,0,.6-.2,1.3h0v.1l-.1.1Z" style="fill:#fff;"/><path d="M411.74,45.63c0,.4-.4,1.7-.8,2.3-.3.4-.7.7-1.1.7s-.8,0-.8-1c0-.5,0-1,.2-1.6.4-1.6.8-3,1.9-3s.9,1,.6,2.7M415.44,45.83c.5-2.2.1-3.2-.4-3.8-.7-.9-2-1.2-3.4-1.2s-2.7,0-4.2,1.5c-1.1,1-1.6,2.3-1.9,3.6-.3,1.3-.6,3.7,1.5,4.6.7.3,1.6.4,2.3.4,1.6,0,3.2-.4,4.5-1.7,1-1.1,1.4-2.6,1.5-3.3" style="fill:#fff;"/><path d="M449.74,50.73h-3.8c.4-1.7.9-3.3,1.2-5,.5-2.1.6-3,.8-4.2h.1c1.7-.3,2.1-.4,3.9-.7h0c-.3,1.5-.6,2.8-.9,4.1-.6,2.8-.9,4.2-1.1,5.7h-.2v.1Z" style="fill:#fff;"/><path d="M447.14,45.83c0,.3-.4,1.7-.8,2.3-.3.4-1,.7-1.4.7s-.8,0-.8-1c0-.5.1-1,.2-1.6.4-1.6.8-3,1.9-3s1.2,1,.9,2.6M450.54,46.03c.5-2.1-1.5-.2-1.8-.9-.5-1.1-.2-3.3-2.1-4.1-.7-.3-2.5,0-4,1.5-1.1,1-1.6,2.3-1.9,3.6s-.6,3.7,1.5,4.5c.7.3,1.3.4,1.9.4,2.2-.1,3.9-3.4,5.1-4.7,1-1,1.1.4,1.3-.2" style="fill:#fff;"/><path d="M425.04,50.63h-3.5c.1-.7.3-1.4.4-2l.2-.9c.3-1.3.6-2.9.6-3.3,0-.3.1-1-.7-1s-.7.2-1.1.3c-.2.7-.6,2.7-.8,3.6-.4,1.9-.4,2.1-.6,3.1h-.1c-1.4.1-1.9.1-3.6.2h0c.3-1.3.5-2.4.8-3.5.7-3.1.9-4.2,1.1-5.8h.1c1.6-.3,2-.4,3.8-.7v.2c.1,0-.1,1-.1,1,.3-.2.6-.4.9-.5.8-.4,1.8-.5,2.2-.5.8,0,1.6.2,2,1.1.3.8.1,1.8-.3,3.7l-.2,1c-.5,2.1-.5,2.5-.8,4h-.3Z" style="fill:#fff;"/><path d="M437.14,33.83h-5.9c0,.2-.1.6-.1.6l-1.1,5s-2.6,10.7-2.7,11.2h4.2c.1-.5.7-3.5.7-3.5,0,0,.5-2.2.6-2.3,0,0,.2-.2.3-.3h.2c2.3,0,4.9,0,6.9-1.5,1.4-1,2.3-2.5,2.7-4.3.1-.4.2-1,.2-1.5s-.1-1.4-.6-1.9c-1-1.4-3.1-1.5-5.4-1.5M438.64,39.03c-.2,1.1-1,2.1-1.9,2.5-.8.4-1.7.4-2.7.4h-.6v-.2l1.2-5v-.5h.5l2.4.3c.9.4,1.3,1.3,1.1,2.5" style="fill:#fff;"/><path d="M463.54,40.83h-.1c-1.7.2-2,.3-3.6.5h-.1v.2h0c-1.2,2.7-1.1,2.1-2.1,4.3v-.3l-.2-4.7h-.2c-1.8.2-1.9.3-3.5.5h-.1v.3h0c.2,1.1.2.9.4,2.5,0,.8.2,1.7.3,2.5.2,1.4.3,2,.5,4.1-1.1,1.9-1.4,2.6-2.5,4.2h3.2l.3-.3c.9-2,7.9-13.9,7.9-13.9" style="fill:#fff;"/><path d="M404.34,42.03c.9-.6,1-1.5.3-2-.8-.5-2.2-.3-3.1.3-.9.6-1,1.5-.3,2,.8.5,2.2.3,3.1-.3" style="fill:#fff;"/><path d="M455.54,54.93l-1.4,2.3c-.4.8-1.2,1.4-2.5,1.4h-2.2l.6-2.1h.9c.1,0,.2-.1.3-.2l.8-1.3h3.4l.1-.1Z" style="fill:#fff;"/><g style="clip-path:url(#b);"><g style="clip-path:url(#c);"><path d="M114.72,38.51l-10.48,25.02h-6.84l-5.16-19.96c-.31-1.23-.59-1.68-1.54-2.2-1.56-.84-4.12-1.64-6.38-2.13l.15-.73h11.01c1.4,0,2.67.93,2.98,2.55l2.72,14.48,6.73-17.03h6.8ZM141.53,55.36c.03-6.6-9.13-6.97-9.07-9.92.02-.9.87-1.85,2.74-2.1.93-.12,3.48-.21,6.38,1.12l1.14-5.3c-1.56-.57-3.56-1.11-6.05-1.11-6.4,0-10.9,3.4-10.94,8.27-.04,3.6,3.21,5.61,5.66,6.81,2.52,1.23,3.37,2.01,3.36,3.11-.02,1.68-2.01,2.42-3.87,2.45-3.25.05-5.14-.88-6.64-1.58l-1.17,5.48c1.51.69,4.3,1.3,7.2,1.33,6.8,0,11.25-3.36,11.27-8.56M158.42,63.52h5.99l-5.22-25.02h-5.52c-1.24,0-2.29.72-2.75,1.84l-9.71,23.18h6.8l1.35-3.74h8.3l.78,3.74ZM151.2,54.66l3.41-9.39,1.96,9.39h-5.37ZM123.97,38.51l-5.35,25.02h-6.47l5.35-25.02h6.47Z" style="fill:#1f449a;"/></g></g><rect y="24.1" width="53.77" height="53.77" style="fill:#fff;"/><path d="M12.44,46.12c.5.68.91,1.44,1.17,2.25.28.82.43,1.68.43,2.6s-.15,1.79-.43,2.6c-.26.81-.68,1.57-1.17,2.26-.69.92-.5,2.23.43,2.92.92.68,2.23.49,2.92-.43.76-1.03,1.36-2.18,1.78-3.41.42-1.23.65-2.56.65-3.93s-.23-2.7-.64-3.93c-.42-1.24-1.03-2.38-1.78-3.41-.68-.92-1.99-1.12-2.91-.43-.93.68-1.13,1.99-.43,2.92M19.59,42.23c1.57,2.55,2.47,5.53,2.47,8.75s-.9,6.2-2.47,8.76c-.6.98-.3,2.27.68,2.87.98.6,2.27.29,2.87-.68,1.96-3.18,3.09-6.94,3.09-10.94s-1.13-7.76-3.09-10.94c-.6-.98-1.89-1.29-2.87-.68s-1.28,1.89-.68,2.87M27.17,38.26c2.19,3.74,3.43,8.08,3.43,12.72s-1.24,8.98-3.43,12.72c-.59,1-.24,2.28.75,2.86,1,.58,2.28.25,2.86-.74,2.54-4.36,4-9.43,4-14.83s-1.46-10.48-4-14.83c-.58-.99-1.86-1.33-2.86-.75-.99.58-1.33,1.86-.75,2.86M34.73,34.28c2.8,4.93,4.41,10.62,4.41,16.7s-1.6,11.77-4.41,16.7c-.56,1-.22,2.28.78,2.85,1.01.57,2.28.22,2.85-.78,3.15-5.53,4.95-11.94,4.95-18.76s-1.8-13.23-4.95-18.76c-.57-1-1.84-1.35-2.85-.78-1,.57-1.35,1.85-.78,2.85" style="fill:#101820;"/></svg>