<?xml version="1.0" encoding="UTF-8"?>
<svg id="_レイヤー_1" data-name="レイヤー_1" xmlns="http://www.w3.org/2000/svg" version="1.1" viewBox="0 0 131.4 86.9">
  <!-- Generator: Adobe Illustrator 29.3.1, SVG Export Plug-In . SVG Version: 2.1.0 Build 151)  -->
  <defs>
    <style>
      .st0 {
        fill: #006a65;
      }

      .st1, .st2 {
        fill: #fff;
      }

      .st2 {
        fill-rule: evenodd;
      }

      .st3 {
        fill: #ed171f;
      }

      .st4 {
        opacity: 0;
      }

      .st5 {
        fill: #082f67;
      }
    </style>
  </defs>
  <g class="st4">
    <rect class="st1" width="131.4" height="86.9"/>
  </g>
  <g>
    <path class="st3" d="M31.7,8.5h27.9c3.9,0,6.3,3.2,5.4,7.1l-13,55.7c-.9,3.9-4.8,7.1-8.7,7.1H15.4c-3.9,0-6.3-3.2-5.4-7.1L23,15.6c.9-3.9,4.8-7.1,8.7-7.1"/>
    <path class="st5" d="M57.3,8.5h32.1c3.9,0,2.1,3.2,1.2,7.1l-13,55.7c-.9,3.9-.6,7.1-4.5,7.1h-32.1c-3.9,0-6.3-3.2-5.4-7.1l13-55.7c.9-3.9,4.8-7.1,8.7-7.1"/>
    <path class="st0" d="M88.1,8.5h27.9c3.9,0,6.3,3.2,5.4,7.1l-13,55.7c-.9,3.9-4.8,7.1-8.7,7.1h-27.9c-3.9,0-6.3-3.2-5.4-7.1l13-55.7c.9-3.9,4.8-7.1,8.7-7.1"/>
    <path class="st2" d="M83.4,60.9h2.6l.8-2.5h-2.6l-.8,2.5ZM85.5,54l-.9,3s1-.5,1.5-.7c.5-.1,1.4-.2,1.4-.2l.6-2.1h-2.6ZM86.8,49.7l-.9,2.9s1-.4,1.5-.6c.5-.1,1.4-.2,1.4-.2l.6-2.1h-2.6ZM92.6,49.7l-3.4,11.2h.9l-.7,2.3h-.9l-.2.7h-3.2l.2-.7h-6.6l.7-2.2h.7l3.4-11.4.7-2.3h3.3l-.3,1.2s.9-.6,1.7-.9c.8-.2,5.6-.3,5.6-.3l-.7,2.3h-1.1Z"/>
    <path class="st1" d="M94.1,47.4h3.5v1.3c0,.2.2.3.6.3h.7l-.7,2.2h-1.9c-1.6.1-2.3-.6-2.2-1.4v-2.4Z"/>
    <path class="st1" d="M94.6,57.6h-3.4l.6-1.9h3.8l.5-1.8h-3.8l.7-2.2h10.5l-.7,2.2h-3.5l-.6,1.8h3.5l-.6,1.9h-3.8l-.7.8h1.6l.4,2.4c0,.2,0,.4.1.5,0,0,.5.1.8.1h.5l-.7,2.4h-1.2c-.2,0-.5,0-.8,0-.4,0-.6-.2-.9-.4-.2-.1-.5-.4-.6-.8l-.4-2.4-1.7,2.4c-.6.8-1.3,1.3-2.6,1.3h-2.4l.6-2.1h.9c.3,0,.5-.1.7-.2.2,0,.3-.2.5-.4l2.5-3.6Z"/>
    <path class="st1" d="M57.8,52.4h8.9l-.7,2.1h-3.6l-.6,1.8h3.6l-.7,2.2h-3.6l-.9,2.9c-.1.3.9.4,1.2.4l1.8-.3-.7,2.4h-4.1c-.3,0-.6,0-.9-.1-.3,0-.5-.2-.7-.5-.1-.2-.4-.4-.2-.9l1.2-3.9h-2l.7-2.2h2l.5-1.8h-2l.6-2.1Z"/>
    <path class="st1" d="M63.8,48.6h3.6l-.7,2.2h-5l-.5.5c-.2.2-.3.1-.6.3-.3.1-.9.4-1.6.4h-1.6l.6-2.1h.5c.4,0,.7,0,.8-.1.2,0,.3-.3.5-.7l.9-1.7h3.6l-.6,1.2Z"/>
    <path class="st2" d="M70.8,52.2s1-.9,2.7-1.2c.4,0,2.8,0,2.8,0l.4-1.2h-5.1l-.7,2.5ZM75.6,53.1h-5.1l-.3,1h4.4c.5,0,.6,0,.7,0l.3-1ZM69,47.4h3.1l-.5,1.6s1-.8,1.7-1.1c.7-.3,2.2-.5,2.2-.5h5s-1.7,5.7-1.7,5.7c-.3,1-.6,1.6-.8,1.9-.2.3-.4.5-.9.8-.4.2-.8.4-1.2.4-.3,0-.8,0-1.5,0h-4.8l-1.4,4.5c-.1.4-.2.7-.1.8,0,.1.2.2.5.2l2.1-.2-.7,2.5h-2.4c-.8,0-1.3,0-1.7,0-.4,0-.8,0-1-.2-.2-.2-.6-.5-.6-.7,0-.2.1-.7.3-1.2l4.3-14.4Z"/>
    <path class="st1" d="M78,56.6l-.3,1.4c-.1.4-.2.8-.6,1-.3.3-.7.6-1.7.6h-1.7c0,0,0,1.6,0,1.6,0,.4,0,.4.2.5,0,0,.1.1.2.1h.5s1.6-.1,1.6-.1l-.7,2.3h-1.9c-1.3,0-2.3,0-2.6-.3-.3-.2-.4-.5-.3-.9v-6h3.1v1.2s.7,0,.7,0c.2,0,.4,0,.5,0,0,0,.2-.2.2-.3l.3-1h2.4Z"/>
    <path class="st1" d="M35,26.3c-.1.5-2,9.4-2,9.4-.4,1.8-.7,3.1-1.7,3.9-.6.5-1.3.7-2.1.7-1.3,0-2-.6-2.1-1.8v-.4s.4-2.4.4-2.4c0,0,2-8.1,2.4-9.2,0,0,0,0,0-.1-4,0-4.7,0-4.7,0,0,0-.1.6-.1.6l-2.1,9.2-.2.8-.3,2.5c0,.8.1,1.4.4,1.9.9,1.7,3.6,1.9,5.2,1.9s3.8-.4,5-1.2c2.2-1.3,2.7-3.3,3.2-5l.2-.9s2.1-8.5,2.5-9.5c0,0,0,0,0-.1-2.9,0-3.7,0-4,0"/>
    <path class="st1" d="M46.6,43.1c-1.4,0-1.9,0-3.5,0h0c.1-.7.3-1.4.4-2l.2-.9c.3-1.3.6-2.9.6-3.3,0-.3.1-1-.7-1s-.7.2-1.1.3c-.2.7-.6,2.7-.8,3.6-.4,1.9-.4,2.1-.6,3.1h-.1c-1.4.1-1.9.1-3.6.2h0c.3-1.3.6-2.4.8-3.5.7-3.1.9-4.2,1.1-5.8h.1c1.6-.3,2-.4,3.8-.7v.2c.1,0-.1,1-.1,1,.3-.2.6-.4.9-.5.8-.4,1.7-.5,2.3-.5.8,0,1.6.2,2,1.1.3.8.1,1.8-.3,3.7l-.2,1c-.5,2.1-.5,2.5-.8,4h-.2Z"/>
    <path class="st1" d="M52.3,43.1c-.8,0-1.4,0-1.9,0-.5,0-1,0-1.8,0h0c0,0,0-.1,0-.1.2-.8.3-1.1.4-1.4.1-.3.2-.6.4-1.4.2-1.1.4-1.8.5-2.5.1-.6.2-1.2.3-1.8h0s0-.1,0-.1c.8-.1,1.4-.2,1.9-.3.6,0,1.1-.2,2-.4h0c0,0,0,.2,0,.2-.2.7-.3,1.3-.5,2-.2.7-.3,1.3-.5,2-.3,1.4-.4,1.9-.5,2.3,0,.4,0,.6-.2,1.3h0c0,0,0,.1,0,.1Z"/>
    <path class="st1" d="M61.2,38.1c0,.4-.4,1.7-.8,2.3-.3.4-.7.7-1.1.7s-.8,0-.8-1c0-.5,0-1,.2-1.6.4-1.6.8-3,1.9-3s.9,1,.6,2.7M64.9,38.3c.5-2.2.1-3.2-.4-3.8-.7-.9-2-1.2-3.4-1.2s-2.7,0-4.2,1.5c-1.1,1-1.6,2.3-1.9,3.6-.3,1.3-.6,3.7,1.5,4.6.7.3,1.6.4,2.3.4,1.6,0,3.2-.4,4.5-1.7,1-1.1,1.4-2.6,1.5-3.3"/>
    <path class="st1" d="M99.2,43.2c-1.7,0-2.2,0-3.7,0h-.1c.4-1.7.9-3.3,1.2-5,.5-2.1.6-3,.8-4.2h.1c1.7-.3,2.1-.4,3.9-.7h0c-.3,1.5-.6,2.8-.9,4.1-.6,2.8-.9,4.2-1.1,5.7h-.2Z"/>
    <path class="st1" d="M96.6,38.3c0,.3-.4,1.7-.8,2.3-.3.4-1,.7-1.4.7s-.8,0-.8-1c0-.5.1-1,.2-1.6.4-1.6.8-3,1.9-3s1.2,1,.9,2.6M100,38.5c.5-2.1-1.5-.2-1.8-.9-.5-1.1-.2-3.3-2.1-4.1-.7-.3-2.5,0-4,1.5-1.1,1-1.6,2.3-1.9,3.6-.3,1.3-.6,3.7,1.5,4.5.7.3,1.3.4,1.9.4,2.2-.1,3.9-3.4,5.1-4.7,1-1,1.1.4,1.3-.2"/>
    <path class="st1" d="M74.5,43.1c-1.4,0-1.9,0-3.5,0h0c.1-.7.3-1.4.4-2l.2-.9c.3-1.3.6-2.9.6-3.3,0-.3.1-1-.7-1s-.7.2-1.1.3c-.2.7-.6,2.7-.8,3.6-.4,1.9-.4,2.1-.6,3.1h-.1c-1.4.1-1.9.1-3.6.2h0c.3-1.3.5-2.4.8-3.5.7-3.1.9-4.2,1.1-5.8h.1c1.6-.3,2-.4,3.8-.7v.2c.1,0-.1,1-.1,1,.3-.2.6-.4.9-.5.8-.4,1.8-.5,2.2-.5.8,0,1.6.2,2,1.1.3.8.1,1.8-.3,3.7l-.2,1c-.5,2.1-.5,2.5-.8,4h-.2Z"/>
    <path class="st1" d="M86.6,26.3s-1.2,0-1.2,0c-3,0-4.2,0-4.7,0,0,.2-.1.6-.1.6l-1.1,5s-2.6,10.7-2.7,11.2c2.6,0,3.7,0,4.2,0,.1-.5.7-3.5.7-3.5,0,0,.5-2.2.6-2.3,0,0,.2-.2.3-.3h.2c2.3,0,4.9,0,6.9-1.5,1.4-1,2.3-2.5,2.7-4.3.1-.4.2-1,.2-1.5s-.1-1.4-.6-1.9c-1-1.4-3.1-1.5-5.4-1.5M88.1,31.5c-.2,1.1-1,2.1-1.9,2.5-.8.4-1.7.4-2.7.4h-.6v-.2s1.2-5,1.2-5v-.3s0-.2,0-.2h.5s2.4.3,2.4.3c.9.4,1.3,1.3,1.1,2.5"/>
    <path class="st1" d="M113,33.3h-.1c-1.7.2-2,.3-3.6.5h-.1c0,.1,0,.2,0,.2h0c-1.2,2.7-1.1,2.1-2.1,4.3,0-.1,0-.2,0-.3l-.2-4.7h-.2c-1.8.2-1.9.3-3.5.5h-.1c0,.2,0,.2,0,.3h0c.2,1.1.2.9.4,2.5,0,.8.2,1.7.3,2.5.2,1.4.3,2,.5,4.1-1.1,1.9-1.4,2.6-2.5,4.2h0c1.6,0,2,0,3.2,0l.3-.3c.9-2,7.9-13.9,7.9-13.9"/>
    <path class="st1" d="M53.8,34.5c.9-.6,1-1.5.3-2-.8-.5-2.2-.3-3.1.3-.9.6-1,1.5-.3,2,.8.5,2.2.3,3.1-.3"/>
    <path class="st1" d="M105,47.4l-1.4,2.3c-.4.8-1.2,1.4-2.5,1.4h-2.2s.6-2.1.6-2.1h.4c.2,0,.4,0,.5,0,.1,0,.2-.1.3-.2l.8-1.3h3.4Z"/>
  </g>
</svg>