<?xml version="1.0" encoding="UTF-8"?>
<svg id="Layer_1" data-name="Layer 1" xmlns="http://www.w3.org/2000/svg" viewBox="0 0 3197.29 1032.59">
  <defs>
    <style>
      .cls-1 {
        fill: #1434cb;
      }
    </style>
  </defs>
  <path class="cls-1" d="M1213.97,18.25l-418.59,998.72h-273.1L316.28,219.95c-12.51-49.09-23.38-67.08-61.41-87.76C192.77,98.5,90.22,66.89,0,47.28l6.13-29.03h439.61c56.04,0,106.41,37.3,119.13,101.83l108.79,577.91L942.53,18.23h271.44v.02ZM2284.02,690.89c1.1-263.59-364.49-278.11-361.97-395.86.78-35.84,34.9-73.94,109.59-83.66,37.02-4.85,139.01-8.54,254.7,44.7l45.38-211.79c-62.16-22.56-142.15-44.28-241.66-44.28-255.37,0-435.08,135.75-436.59,330.14-1.65,143.78,128.27,224.01,226.16,271.79,100.7,48.92,134.49,80.36,134.1,124.13-.72,66.99-80.31,96.57-154.7,97.73-129.86,2-205.21-35.14-265.27-63.06l-46.83,218.8c60.37,27.69,171.79,51.86,287.31,53.07,271.42,0,448.97-134.07,449.8-341.69M2958.35,1016.97h238.95L2988.72,18.25h-220.55c-49.59,0-91.42,28.88-109.94,73.27l-387.69,925.44h271.29l53.85-149.17h331.47l31.19,149.17ZM2670.08,663.1l135.98-374.98,78.27,374.98h-214.25ZM1583.1,18.25l-213.63,998.72h-258.35L1324.84,18.25h258.26Z"/>
</svg>